<svg id="Capa_1" enable-background="new 0 0 512 512" height="512" viewBox="0 0 512 512" width="512" xmlns="http://www.w3.org/2000/svg"><g><g><path d="m63.501 47.008h384.998v417.984h-384.998z" fill="#93ecea"/><path d="m21.795 7.5v497l71.667-28.086-4.307-39.274v-362.28l-3.505-44.758z" fill="#e4996d"/><path d="m490.205 7.5v497l-67.763-28.086.403-39.274v-362.28l7.409-44.758z" fill="#e4996d"/><path d="m336.059 376.241s40.739-52.664 40.739-124.877c0-65.532-53.314-118.846-118.846-118.846s-118.846 53.314-118.846 118.846c0 72.212 40.739 124.877 40.739 124.877z" fill="#423e4f"/><path d="m161.509 437.14c0-86.021 46.133-117.528 46.133-117.528h100.621s46.133 31.506 46.133 117.528z" fill="#77728d"/><path d="m227.642 319.613h-20s-46.133 31.506-46.133 117.527h20c0-86.021 46.133-117.527 46.133-117.527z" fill="#5c576e"/><path d="m422.845 74.86 67.36-67.36h-468.41l67.36 67.36z" fill="#d97c41"/><path d="m89.155 437.14-67.36 67.36h468.41l-67.36-67.36z" fill="#d97c41"/><path d="m216.828 301.383v49.994c0 13.732 11.132 24.863 24.863 24.863h32.521c13.732 0 24.863-11.132 24.863-24.863v-49.994z" fill="#ffddcf"/><path d="m342.739 251.364c0 46.827-37.96 84.787-84.787 84.787s-84.787-37.961-84.787-84.787 37.96-73.243 84.787-73.243 84.787 26.417 84.787 73.243z" fill="#ffddcf"/><path d="m193.165 251.364c0-43.441 32.677-69.3 74.787-72.814-3.282-.274-6.614-.428-10-.428-46.827 0-84.787 26.416-84.787 73.243 0 46.826 37.96 84.787 84.787 84.787 3.386 0 6.718-.221 10-.607-42.111-4.952-74.787-40.74-74.787-84.181z" fill="#ffcbbe"/></g><g><path d="m210.434 228.807c-4.142 0-7.5 3.357-7.5 7.5v9.131c0 4.142 3.358 7.5 7.5 7.5s7.5-3.358 7.5-7.5v-9.131c0-4.143-3.358-7.5-7.5-7.5z"/><path d="m305.469 228.807c-4.142 0-7.5 3.357-7.5 7.5v9.131c0 4.142 3.358 7.5 7.5 7.5s7.5-3.358 7.5-7.5v-9.131c0-4.143-3.358-7.5-7.5-7.5z"/><path d="m275.407 239.512c-3.123-2.722-7.86-2.397-10.582.726-1.737 1.993-4.242 3.135-6.874 3.135s-5.138-1.143-6.874-3.135c-2.721-3.123-7.459-3.448-10.582-.727s-3.448 7.458-.727 10.582c4.585 5.262 11.212 8.28 18.182 8.28 6.969 0 13.596-3.018 18.182-8.28 2.723-3.122 2.398-7.86-.725-10.581z"/><path d="m14.295 7.5v497c0 4.114 3.387 7.5 7.499 7.5h468.41.001.001c4.124 0 7.499-3.398 7.499-7.5v-497c0-4.081-3.372-7.5-7.5-7.5h-468.41c-4.19 0-7.5 3.525-7.5 7.5zm401.05 74.86v347.281h-53.57c-.766-24.923-5.306-45.211-11.347-61.446 6.331-10.396 14.582-25.938 21.411-45.523 1.364-3.911-.702-8.188-4.613-9.551-3.912-1.364-8.188.701-9.551 4.612-4.627 13.271-9.943 24.554-14.77 33.461-8.023-15.431-16.896-25.623-22.99-31.495 18.616-16.896 30.325-41.273 30.325-68.334 0-24.592-9.546-45.341-27.606-60.004-16.472-13.373-39.442-20.738-64.681-20.738s-48.209 7.365-64.681 20.738c-18.061 14.663-27.606 35.412-27.606 60.004 0 27.061 11.708 51.439 30.325 68.335-6.092 5.87-14.959 16.055-22.98 31.476-11.201-20.743-26.403-56.821-26.403-99.811 0-22.352 6.629-43.927 19.17-62.392 2.328-3.426 1.437-8.091-1.99-10.418-3.427-2.328-8.091-1.437-10.418 1.99-14.237 20.961-21.762 45.45-21.762 70.819 0 53.992 22.249 97.694 33.87 116.83-6.042 16.235-10.582 36.523-11.348 61.447h-57.475v-347.281zm15 351.674v-356.068l52.36-52.36v460.787zm-206.017-96.705c21.273 8.339 45.491 8.53 67.248 0v14.049c0 9.574-7.789 17.363-17.363 17.363h-32.521c-9.574 0-17.363-7.789-17.363-17.363v-14.049zm63.888-14.855c-51.437 21.805-107.551-16.324-107.551-71.109 0-19.919 7.628-36.641 22.061-48.358 13.807-11.21 33.42-17.384 55.226-17.384s41.419 6.173 55.226 17.384c14.433 11.717 22.061 28.439 22.061 48.358 0 31.88-19.406 59.31-47.023 71.109zm-80.164 6.526c.421.272.851.527 1.276.792v21.586c0 17.845 14.518 32.363 32.363 32.363h32.521c17.845 0 32.363-14.518 32.363-32.363v-21.586c.083-.051 1.192-.737 1.275-.791 5.32 4.873 15.219 15.479 23.67 33.14.021.044.042.086.063.13 1.166 2.444 2.303 5.027 3.397 7.744 6.138 15.245 10.97 34.884 11.791 59.625h-177.637c1.211-35.958 12.514-76.453 38.918-100.64zm-126.397-251.033v356.067l-37.091 37.091-15.269 15.269v-460.787zm-41.753 419.033 52.36-52.359h69.248 192.886 65.344l52.358 52.359zm379.837-429.64h-327.478l-52.359-52.36h432.197z"/><path d="m183.675 168.495c20.465-18.363 46.844-28.477 74.277-28.477 61.396 0 111.346 49.949 111.346 111.346 0 12.721-1.344 25.751-3.996 38.729-.829 4.058 1.789 8.02 5.847 8.849.507.104 1.012.153 1.509.153 3.489 0 6.615-2.449 7.34-6 2.853-13.963 4.299-28.003 4.299-41.73 0-69.667-56.678-126.346-126.346-126.346-31.136 0-61.073 11.476-84.294 32.313-3.083 2.766-3.34 7.508-.573 10.591 2.766 3.082 7.508 3.338 10.591.572z"/></g></g></svg>