<svg width="133" height="177" viewBox="0 0 133 177" fill="none" xmlns="http://www.w3.org/2000/svg">
<g filter="url(#filter0_d)">
<rect x="6" y="2" width="125" height="169" rx="8" fill="#E4D8F1"/>
</g>
<path fill-rule="evenodd" clip-rule="evenodd" d="M73.6412 50.002C122.854 51.8913 123.896 77.9654 75.7415 128.284C74.4914 129.59 71.6978 131 71.6978 131C71.6978 131 68.3157 129.446 66.9498 127.904C60.761 120.919 54.9876 113.443 50.3884 107.396C39.4666 93.0352 33.4914 82.2786 32.233 73.2005C30.2902 59.1852 40.4504 51.4588 64.5248 50.002C66.2784 49.8959 71.6978 55.5431 71.6978 55.5431L73.6412 58.5526C73.6412 58.5526 75.0333 63.2401 75.0333 56.8261C75.0333 52.0542 73.6081 51.4695 73.6412 50.002Z" fill="#F2416F"/>
<path fill-rule="evenodd" clip-rule="evenodd" d="M22.3082 33.0003C29.7634 33.3035 29.9213 37.4882 22.6264 45.564C22.437 45.7737 22.0138 46 22.0138 46C22.0138 46 21.5014 45.7505 21.2945 45.5031C20.357 44.382 19.4824 43.1821 18.7856 42.2116C17.1311 39.9068 16.2259 38.1805 16.0353 36.7235C15.741 34.4741 17.2801 33.2341 20.9272 33.0003C21.1928 32.9833 22.0138 33.8896 22.0138 33.8896L22.3082 34.3726C22.3082 34.3726 22.5191 35.1249 22.5191 34.0955C22.5191 33.3297 22.3032 33.2358 22.3082 33.0003Z" fill="#F2416F"/>
<path d="M20.8828 14.5112C21.3223 14.5194 21.6234 14.6903 21.7861 15.0239C21.957 15.3494 22.0425 15.7279 22.0425 16.1592C22.0425 16.5824 22.0099 16.9486 21.9448 17.2578C21.6193 18.6413 21.1839 19.9922 20.6387 21.3105C20.5247 21.5954 20.4149 21.8843 20.3091 22.1772C20.244 22.34 20.1667 22.5312 20.0771 22.751C19.89 23.1823 19.6987 23.6746 19.5034 24.228C19.3081 24.7733 19.182 25.3022 19.125 25.8149C19.0762 26.3195 19.1657 26.7223 19.3936 27.0234C19.4505 27.0885 19.5075 27.1536 19.5645 27.2188C19.654 27.3001 19.7313 27.3896 19.7964 27.4873C19.8696 27.585 19.9144 27.6908 19.9307 27.8047C19.9388 28.1872 19.7598 28.4557 19.3936 28.6104C19.0355 28.765 18.6937 28.826 18.3682 28.7935C17.9124 28.7446 17.4811 28.5859 17.0742 28.3174C16.6755 28.0488 16.3459 27.7355 16.0854 27.3774C16.0529 27.3368 16.0285 27.292 16.0122 27.2432C16.0041 27.1943 16.0163 27.1536 16.0488 27.1211C16.0651 27.1048 16.0854 27.0926 16.1099 27.0845C16.1343 27.0763 16.1587 27.0723 16.1831 27.0723C16.2482 27.0723 16.3174 27.0682 16.3906 27.0601C16.6999 27.0356 17.005 27.0153 17.3062 26.999C17.355 26.999 17.3957 26.9868 17.4282 26.9624C17.4445 26.9543 17.4567 26.9421 17.4648 26.9258C17.4893 26.8932 17.5015 26.8566 17.5015 26.8159C17.5015 26.7752 17.4974 26.7305 17.4893 26.6816C17.2939 25.5098 17.355 24.2891 17.6724 23.0195C17.9897 21.75 18.3763 20.5171 18.832 19.3208C19.0355 18.7593 19.2186 18.2222 19.3813 17.7095C18.9907 18.0757 18.5675 18.4012 18.1118 18.686C17.9246 18.8244 17.7212 18.9017 17.5015 18.918C17.3794 18.918 17.2695 18.8854 17.1719 18.8203C17.0824 18.7552 17.0295 18.6657 17.0132 18.5518C17.005 18.4704 17.0213 18.3931 17.062 18.3198C17.1027 18.2384 17.1515 18.1652 17.2085 18.1001C17.7456 17.4002 18.3112 16.7329 18.9053 16.0981C19.0111 15.9842 19.125 15.854 19.2471 15.7075C19.4668 15.4308 19.7109 15.1704 19.9795 14.9263C20.2562 14.674 20.5573 14.5356 20.8828 14.5112Z" fill="#F2416F"/>
<path d="M28.0483 16.9404C28.5285 17.3473 28.8296 17.9211 28.9517 18.6616C29.1877 20.395 29.1226 22.1203 28.7563 23.8374C28.5854 24.5291 28.2721 25.2249 27.8164 25.9248C27.3688 26.6165 26.8195 27.0967 26.1685 27.3652C25.5174 27.6257 24.8135 27.4588 24.0566 26.8647C22.7139 25.7091 22.0099 24.2484 21.9448 22.4824C21.9367 22.222 21.9367 21.9453 21.9448 21.6523C21.9692 20.7897 22.0994 19.9189 22.3354 19.04C22.5796 18.153 22.9539 17.384 23.4585 16.7329C23.8654 16.269 24.3455 15.9964 24.8989 15.915C25.4604 15.8255 26.0179 15.8825 26.5713 16.0859C27.1328 16.2812 27.6252 16.5661 28.0483 16.9404ZM27.377 20.1997C27.377 20.1021 27.377 20.0003 27.377 19.8945C27.3851 19.569 27.377 19.2476 27.3525 18.9302C27.3281 18.6047 27.259 18.2873 27.145 17.978C27.0881 17.8315 27.027 17.742 26.9619 17.7095C26.8968 17.6769 26.8073 17.6891 26.6934 17.7461C26.1969 17.974 25.7656 18.328 25.3994 18.8081C25.375 18.8488 25.3465 18.8895 25.314 18.9302C25.2244 19.0604 25.1268 19.1825 25.021 19.2964C24.9152 19.4103 24.7891 19.4958 24.6426 19.5527C24.6019 19.569 24.5612 19.6056 24.5205 19.6626C24.488 19.7196 24.4595 19.7765 24.4351 19.8335C24.2316 20.1997 24.1095 20.6066 24.0688 21.0542C24.0607 21.3716 24.0404 21.693 24.0078 22.0186C23.9915 22.1895 23.9793 22.3644 23.9712 22.5435C23.9224 23.5933 24.0811 24.5861 24.4473 25.522C24.5286 25.7498 24.6629 25.8149 24.8501 25.7173C25.2977 25.5057 25.668 25.168 25.9609 24.7041C26.3841 24.0368 26.7259 23.3369 26.9863 22.6045C27.2549 21.8639 27.3851 21.0623 27.377 20.1997Z" fill="#F2416F"/>
<path d="M113.883 143.511C114.322 143.519 114.623 143.69 114.786 144.024C114.957 144.349 115.042 144.728 115.042 145.159C115.042 145.582 115.01 145.949 114.945 146.258C114.619 147.641 114.184 148.992 113.639 150.311C113.525 150.595 113.415 150.884 113.309 151.177C113.244 151.34 113.167 151.531 113.077 151.751C112.89 152.182 112.699 152.675 112.503 153.228C112.308 153.773 112.182 154.302 112.125 154.815C112.076 155.319 112.166 155.722 112.394 156.023C112.451 156.089 112.507 156.154 112.564 156.219C112.654 156.3 112.731 156.39 112.796 156.487C112.87 156.585 112.914 156.691 112.931 156.805C112.939 157.187 112.76 157.456 112.394 157.61C112.035 157.765 111.694 157.826 111.368 157.793C110.912 157.745 110.481 157.586 110.074 157.317C109.675 157.049 109.346 156.736 109.085 156.377C109.053 156.337 109.028 156.292 109.012 156.243C109.004 156.194 109.016 156.154 109.049 156.121C109.065 156.105 109.085 156.093 109.11 156.084C109.134 156.076 109.159 156.072 109.183 156.072C109.248 156.072 109.317 156.068 109.391 156.06C109.7 156.036 110.005 156.015 110.306 155.999C110.355 155.999 110.396 155.987 110.428 155.962C110.444 155.954 110.457 155.942 110.465 155.926C110.489 155.893 110.501 155.857 110.501 155.816C110.501 155.775 110.497 155.73 110.489 155.682C110.294 154.51 110.355 153.289 110.672 152.02C110.99 150.75 111.376 149.517 111.832 148.321C112.035 147.759 112.219 147.222 112.381 146.709C111.991 147.076 111.568 147.401 111.112 147.686C110.925 147.824 110.721 147.902 110.501 147.918C110.379 147.918 110.27 147.885 110.172 147.82C110.082 147.755 110.029 147.666 110.013 147.552C110.005 147.47 110.021 147.393 110.062 147.32C110.103 147.238 110.152 147.165 110.208 147.1C110.746 146.4 111.311 145.733 111.905 145.098C112.011 144.984 112.125 144.854 112.247 144.708C112.467 144.431 112.711 144.17 112.979 143.926C113.256 143.674 113.557 143.536 113.883 143.511Z" fill="#F2416F"/>
<path d="M121.048 145.94C121.528 146.347 121.83 146.921 121.952 147.662C122.188 149.395 122.123 151.12 121.756 152.837C121.585 153.529 121.272 154.225 120.816 154.925C120.369 155.617 119.819 156.097 119.168 156.365C118.517 156.626 117.813 156.459 117.057 155.865C115.714 154.709 115.01 153.248 114.945 151.482C114.937 151.222 114.937 150.945 114.945 150.652C114.969 149.79 115.099 148.919 115.335 148.04C115.58 147.153 115.954 146.384 116.458 145.733C116.865 145.269 117.346 144.996 117.899 144.915C118.46 144.826 119.018 144.882 119.571 145.086C120.133 145.281 120.625 145.566 121.048 145.94ZM120.377 149.2C120.377 149.102 120.377 149 120.377 148.895C120.385 148.569 120.377 148.248 120.353 147.93C120.328 147.605 120.259 147.287 120.145 146.978C120.088 146.832 120.027 146.742 119.962 146.709C119.897 146.677 119.807 146.689 119.693 146.746C119.197 146.974 118.766 147.328 118.399 147.808C118.375 147.849 118.347 147.889 118.314 147.93C118.224 148.06 118.127 148.182 118.021 148.296C117.915 148.41 117.789 148.496 117.643 148.553C117.602 148.569 117.561 148.606 117.521 148.663C117.488 148.72 117.459 148.777 117.435 148.833C117.232 149.2 117.11 149.607 117.069 150.054C117.061 150.372 117.04 150.693 117.008 151.019C116.992 151.189 116.979 151.364 116.971 151.543C116.922 152.593 117.081 153.586 117.447 154.522C117.529 154.75 117.663 154.815 117.85 154.717C118.298 154.506 118.668 154.168 118.961 153.704C119.384 153.037 119.726 152.337 119.986 151.604C120.255 150.864 120.385 150.062 120.377 149.2Z" fill="#F2416F"/>
<defs>
<filter id="filter0_d" x="0" y="0" width="133" height="177" filterUnits="userSpaceOnUse" color-interpolation-filters="sRGB">
<feFlood flood-opacity="0" result="BackgroundImageFix"/>
<feColorMatrix in="SourceAlpha" type="matrix" values="0 0 0 0 0 0 0 0 0 0 0 0 0 0 0 0 0 0 127 0"/>
<feOffset dx="-2" dy="2"/>
<feGaussianBlur stdDeviation="2"/>
<feColorMatrix type="matrix" values="0 0 0 0 0 0 0 0 0 0 0 0 0 0 0 0 0 0 0.247159 0"/>
<feBlend mode="normal" in2="BackgroundImageFix" result="effect1_dropShadow"/>
<feBlend mode="normal" in="SourceGraphic" in2="effect1_dropShadow" result="shape"/>
</filter>
</defs>
</svg>
