<svg width="133" height="177" viewBox="0 0 133 177" fill="none" xmlns="http://www.w3.org/2000/svg">
<g filter="url(#filter0_d)">
<rect x="6" y="2" width="125" height="169" rx="8" fill="#E4D8F1"/>
</g>
<path fill-rule="evenodd" clip-rule="evenodd" d="M73.6411 50.002C122.854 51.8913 123.896 77.9654 75.7414 128.284C74.4914 129.59 71.6977 131 71.6977 131C71.6977 131 68.3156 129.446 66.9497 127.904C60.7609 120.919 54.9876 113.443 50.3883 107.396C39.4666 93.0352 33.4914 82.2786 32.2329 73.2005C30.2901 59.1852 40.4503 51.4588 64.5247 50.002C66.2783 49.8959 71.6977 55.5431 71.6977 55.5431L73.6411 58.5526C73.6411 58.5526 75.0333 63.2401 75.0333 56.8261C75.0333 52.0542 73.6081 51.4695 73.6411 50.002Z" fill="#F2416F"/>
<path d="M25.5337 25.2788C25.7697 25.4823 25.8673 25.6694 25.8266 25.8403C25.7941 26.0031 25.6802 26.1374 25.4848 26.2432C25.2977 26.3408 25.0942 26.3937 24.8745 26.4019C24.5408 26.41 24.195 26.4059 23.8369 26.3896C23.4625 26.3652 23.0841 26.3368 22.7016 26.3042C21.896 26.2228 21.0903 26.1943 20.2846 26.2188C19.4871 26.235 18.7303 26.41 18.0141 26.7437C17.7944 26.8332 17.5136 26.8454 17.1719 26.7803C16.8382 26.707 16.5574 26.5728 16.3296 26.3774C16.1098 26.1821 16.0692 25.938 16.2075 25.645C16.3621 25.4009 16.5778 25.2137 16.8545 25.0835C16.887 25.0672 16.9155 25.0509 16.9399 25.0347C17.827 24.4976 18.6001 23.8018 19.2593 22.9473C19.9266 22.0928 20.5084 21.1732 21.0049 20.1885C21.5094 19.2038 21.957 18.2516 22.3476 17.332C22.4209 17.1774 22.4738 17.0146 22.5063 16.8438C22.547 16.6729 22.5267 16.5142 22.4453 16.3677C21.0862 17.2303 20.0324 18.3778 19.2837 19.8101C19.2511 19.8833 19.2104 19.9484 19.1616 20.0054C19.1128 20.0623 19.0517 20.099 18.9785 20.1152C18.889 20.1152 18.8076 20.0908 18.7344 20.042C18.1891 19.6839 17.9002 19.1794 17.8677 18.5283C17.9002 18.0075 18.063 17.5233 18.3559 17.0757C18.5757 16.7013 18.8605 16.2944 19.2104 15.855C19.5685 15.4155 19.9632 15.0371 20.3945 14.7197C20.834 14.3942 21.2938 14.2233 21.7739 14.207C22.2215 14.2314 22.6406 14.3657 23.0312 14.6099C23.6253 14.9354 24.0688 15.3667 24.3618 15.9038C24.6629 16.4328 24.7524 17.0391 24.6303 17.7227C24.435 18.5365 24.081 19.2852 23.5683 19.9688C23.0475 20.7256 22.4697 21.4377 21.8349 22.105C21.2083 22.7642 20.5654 23.4111 19.9062 24.0459C19.7028 24.2412 19.5034 24.4365 19.3081 24.6318C19.5522 24.762 19.8126 24.8312 20.0893 24.8394C20.3742 24.8394 20.659 24.8231 20.9438 24.7905C20.9927 24.7824 21.0456 24.7743 21.1025 24.7661C21.1269 24.7661 21.1513 24.7661 21.1758 24.7661C21.8431 24.6766 22.5958 24.64 23.4341 24.6562C24.2723 24.6725 24.9721 24.88 25.5337 25.2788Z" fill="#F2416F"/>
<path d="M118.534 155.279C118.77 155.482 118.867 155.669 118.827 155.84C118.794 156.003 118.68 156.137 118.485 156.243C118.298 156.341 118.094 156.394 117.874 156.402C117.541 156.41 117.195 156.406 116.837 156.39C116.463 156.365 116.084 156.337 115.702 156.304C114.896 156.223 114.09 156.194 113.285 156.219C112.487 156.235 111.73 156.41 111.014 156.744C110.794 156.833 110.514 156.845 110.172 156.78C109.838 156.707 109.557 156.573 109.33 156.377C109.11 156.182 109.069 155.938 109.207 155.645C109.362 155.401 109.578 155.214 109.854 155.083C109.887 155.067 109.916 155.051 109.94 155.035C110.827 154.498 111.6 153.802 112.259 152.947C112.927 152.093 113.508 151.173 114.005 150.188C114.509 149.204 114.957 148.252 115.348 147.332C115.421 147.177 115.474 147.015 115.506 146.844C115.547 146.673 115.527 146.514 115.445 146.368C114.086 147.23 113.032 148.378 112.284 149.81C112.251 149.883 112.21 149.948 112.162 150.005C112.113 150.062 112.052 150.099 111.978 150.115C111.889 150.115 111.808 150.091 111.734 150.042C111.189 149.684 110.9 149.179 110.868 148.528C110.9 148.007 111.063 147.523 111.356 147.076C111.576 146.701 111.86 146.294 112.21 145.855C112.568 145.416 112.963 145.037 113.395 144.72C113.834 144.394 114.294 144.223 114.774 144.207C115.221 144.231 115.641 144.366 116.031 144.61C116.625 144.935 117.069 145.367 117.362 145.904C117.663 146.433 117.752 147.039 117.63 147.723C117.435 148.536 117.081 149.285 116.568 149.969C116.048 150.726 115.47 151.438 114.835 152.105C114.208 152.764 113.565 153.411 112.906 154.046C112.703 154.241 112.503 154.437 112.308 154.632C112.552 154.762 112.813 154.831 113.089 154.839C113.374 154.839 113.659 154.823 113.944 154.791C113.993 154.782 114.046 154.774 114.103 154.766C114.127 154.766 114.151 154.766 114.176 154.766C114.843 154.677 115.596 154.64 116.434 154.656C117.272 154.673 117.972 154.88 118.534 155.279Z" fill="#F2416F"/>
<path fill-rule="evenodd" clip-rule="evenodd" d="M22.3082 33.0003C29.7634 33.3035 29.9213 37.4882 22.6264 45.564C22.437 45.7737 22.0138 46 22.0138 46C22.0138 46 21.5014 45.7505 21.2945 45.5031C20.357 44.382 19.4824 43.1821 18.7856 42.2116C17.1311 39.9068 16.2259 38.1805 16.0353 36.7235C15.741 34.4741 17.2801 33.2341 20.9272 33.0003C21.1928 32.9833 22.0138 33.8896 22.0138 33.8896L22.3082 34.3726C22.3082 34.3726 22.5191 35.1249 22.5191 34.0955C22.5191 33.3297 22.3032 33.2358 22.3082 33.0003Z" fill="#F2416F"/>
<defs>
<filter id="filter0_d" x="0" y="0" width="133" height="177" filterUnits="userSpaceOnUse" color-interpolation-filters="sRGB">
<feFlood flood-opacity="0" result="BackgroundImageFix"/>
<feColorMatrix in="SourceAlpha" type="matrix" values="0 0 0 0 0 0 0 0 0 0 0 0 0 0 0 0 0 0 127 0"/>
<feOffset dx="-2" dy="2"/>
<feGaussianBlur stdDeviation="2"/>
<feColorMatrix type="matrix" values="0 0 0 0 0 0 0 0 0 0 0 0 0 0 0 0 0 0 0.247159 0"/>
<feBlend mode="normal" in2="BackgroundImageFix" result="effect1_dropShadow"/>
<feBlend mode="normal" in="SourceGraphic" in2="effect1_dropShadow" result="shape"/>
</filter>
</defs>
</svg>
