<svg width="133" height="177" viewBox="0 0 133 177" fill="none" xmlns="http://www.w3.org/2000/svg">
<g filter="url(#filter0_d)">
<rect x="6" y="2" width="125" height="169" rx="8" fill="#E4D8F1"/>
</g>
<path fill-rule="evenodd" clip-rule="evenodd" d="M66.5879 84.978C78.9961 84.978 89.0549 75.1332 89.0549 62.989C89.0549 50.8448 78.9961 41 66.5879 41C54.1797 41 44.1208 50.8448 44.1208 62.989C44.1208 75.1332 54.1797 84.978 66.5879 84.978Z" fill="#393A36"/>
<path fill-rule="evenodd" clip-rule="evenodd" d="M89.533 113.659C101.941 113.659 112 103.814 112 91.6703C112 79.5261 101.941 69.6813 89.533 69.6813C77.1248 69.6813 67.0659 79.5261 67.0659 91.6703C67.0659 103.814 77.1248 113.659 89.533 113.659Z" fill="#393A36"/>
<path fill-rule="evenodd" clip-rule="evenodd" d="M47.467 115.571C59.8752 115.571 69.9341 105.727 69.9341 93.5824C69.9341 81.4382 59.8752 71.5934 47.467 71.5934C35.0588 71.5934 25 81.4382 25 93.5824C25 105.727 35.0588 115.571 47.467 115.571Z" fill="#393A36"/>
<path fill-rule="evenodd" clip-rule="evenodd" d="M62.8663 103.004C68.2713 105.782 70.4934 112.079 59.2792 125.616C65.5872 124.603 73.0586 122.859 76.6662 116.087C69.6686 113.019 71.7327 103.64 71.6491 95.7566L62.8663 103.004Z" fill="#393A36" stroke="#393A36"/>
<path d="M18.5818 28.7019C19.1148 28.7386 19.6418 28.6918 20.1626 28.5616C21.1473 28.3337 22.1198 27.9532 23.0801 27.4202C24.0404 26.8872 24.785 26.1731 25.314 25.2779C25.5907 24.8059 25.7087 24.3054 25.668 23.7764C25.5866 23.2067 25.3323 22.6839 24.905 22.2078C24.4778 21.7317 24.02 21.3594 23.5318 21.0909C23.4992 21.0746 23.4707 21.0583 23.4463 21.042C23.2347 20.9281 23.0353 20.802 22.8482 20.6636C23.1981 20.2567 23.544 19.8417 23.8858 19.4185C23.9916 19.2802 24.0973 19.1459 24.2031 19.0157C24.431 18.739 24.6202 18.444 24.7708 18.1307C24.9213 17.8173 24.9966 17.4857 24.9966 17.1358C24.9722 16.6882 24.8115 16.2772 24.5144 15.9029C24.2174 15.5285 23.8817 15.2315 23.5073 15.0118C22.8482 14.6049 22.1442 14.4706 21.3955 14.6089C20.7038 14.8124 20.1016 15.1827 19.5889 15.7198C19.0681 16.2162 18.6083 16.7574 18.2095 17.3433C17.9898 17.6281 17.8636 17.9374 17.8311 18.271C17.8392 18.5396 17.9287 18.7817 18.0996 18.9974C18.2705 19.213 18.4618 19.4063 18.6734 19.5772C18.714 19.6179 18.7547 19.6525 18.7954 19.681C18.8361 19.7094 18.8849 19.7277 18.9419 19.7359C19.0314 19.7359 19.1108 19.7033 19.1799 19.6382C19.2491 19.5731 19.3081 19.5039 19.357 19.4307C20.1219 18.3158 21.0659 17.3799 22.189 16.6231C22.3355 16.5173 22.4962 16.4359 22.6712 16.3789C22.8461 16.322 23.0109 16.3301 23.1655 16.4034C22.2866 18.5111 20.895 20.1916 18.9907 21.4449C18.535 21.689 18.4251 22.0471 18.6612 22.5191C18.7425 22.6737 18.8463 22.8385 18.9724 23.0135C19.0986 23.1884 19.243 23.3207 19.4058 23.4102C19.536 23.4672 19.6621 23.4834 19.7842 23.459C19.9876 23.4021 20.183 23.3003 20.3701 23.1539C20.3945 23.1294 20.423 23.1091 20.4556 23.0928C21.2775 22.5232 22.189 22.2302 23.19 22.2139C23.3364 22.2058 23.4809 22.222 23.6233 22.2627C23.7657 22.3034 23.8776 22.3807 23.959 22.4947C24.0241 22.5923 24.0546 22.7002 24.0506 22.8182C24.0465 22.9362 24.0282 23.0481 23.9956 23.1539C23.8329 23.6096 23.5847 24.0124 23.251 24.3623C22.4046 25.3064 21.3996 26.0266 20.2359 26.523C20.1952 26.5393 20.1504 26.5555 20.1016 26.5718C19.8412 26.6939 19.5095 26.8282 19.1067 26.9747C18.7039 27.1211 18.3133 27.2107 17.9348 27.2432C17.5564 27.2758 17.2736 27.1862 17.0864 26.9747C17.0132 26.8689 16.9807 26.7509 16.9888 26.6206C16.9969 26.4904 17.0173 26.3643 17.0498 26.2422C17.1638 25.7784 17.2573 25.3145 17.3306 24.8506C17.3469 24.7204 17.3306 24.6045 17.2818 24.5027C17.2329 24.401 17.1353 24.3827 16.9888 24.4478C16.6633 24.6187 16.4171 24.8852 16.2503 25.2474C16.0834 25.6095 16.0041 25.9655 16.0122 26.3155C16.0529 27.1374 16.4151 27.7762 17.0987 28.232C17.5544 28.5087 18.0488 28.6653 18.5818 28.7019Z" fill="#393A36"/>
<path d="M112.582 158.702C113.115 158.739 113.642 158.692 114.163 158.562C115.147 158.334 116.12 157.953 117.08 157.42C118.04 156.887 118.785 156.173 119.314 155.278C119.591 154.806 119.709 154.305 119.668 153.776C119.587 153.207 119.332 152.684 118.905 152.208C118.478 151.732 118.02 151.359 117.532 151.091C117.499 151.075 117.471 151.058 117.446 151.042C117.235 150.928 117.035 150.802 116.848 150.664C117.198 150.257 117.544 149.842 117.886 149.418C117.992 149.28 118.097 149.146 118.203 149.016C118.431 148.739 118.62 148.444 118.771 148.131C118.921 147.817 118.997 147.486 118.997 147.136C118.972 146.688 118.811 146.277 118.514 145.903C118.217 145.529 117.882 145.231 117.507 145.012C116.848 144.605 116.144 144.471 115.396 144.609C114.704 144.812 114.102 145.183 113.589 145.72C113.068 146.216 112.608 146.757 112.209 147.343C111.99 147.628 111.864 147.937 111.831 148.271C111.839 148.54 111.929 148.782 112.1 148.997C112.271 149.213 112.462 149.406 112.673 149.577C112.714 149.618 112.755 149.652 112.795 149.681C112.836 149.709 112.885 149.728 112.942 149.736C113.031 149.736 113.111 149.703 113.18 149.638C113.249 149.573 113.308 149.504 113.357 149.431C114.122 148.316 115.066 147.38 116.189 146.623C116.335 146.517 116.496 146.436 116.671 146.379C116.846 146.322 117.011 146.33 117.166 146.403C116.287 148.511 114.895 150.192 112.991 151.445C112.535 151.689 112.425 152.047 112.661 152.519C112.743 152.674 112.846 152.839 112.972 153.013C113.099 153.188 113.243 153.321 113.406 153.41C113.536 153.467 113.662 153.483 113.784 153.459C113.988 153.402 114.183 153.3 114.37 153.154C114.395 153.129 114.423 153.109 114.456 153.093C115.278 152.523 116.189 152.23 117.19 152.214C117.336 152.206 117.481 152.222 117.623 152.263C117.766 152.303 117.878 152.381 117.959 152.495C118.024 152.592 118.055 152.7 118.051 152.818C118.046 152.936 118.028 153.048 117.996 153.154C117.833 153.61 117.585 154.012 117.251 154.362C116.405 155.306 115.4 156.027 114.236 156.523C114.195 156.539 114.15 156.556 114.102 156.572C113.841 156.694 113.51 156.828 113.107 156.975C112.704 157.121 112.313 157.211 111.935 157.243C111.556 157.276 111.274 157.186 111.086 156.975C111.013 156.869 110.981 156.751 110.989 156.621C110.997 156.49 111.017 156.364 111.05 156.242C111.164 155.778 111.257 155.314 111.331 154.851C111.347 154.72 111.331 154.604 111.282 154.503C111.233 154.401 111.135 154.383 110.989 154.448C110.663 154.619 110.417 154.885 110.25 155.247C110.083 155.609 110.004 155.966 110.012 156.315C110.053 157.137 110.415 157.776 111.099 158.232C111.554 158.509 112.049 158.665 112.582 158.702Z" fill="#393A36"/>
<path fill-rule="evenodd" clip-rule="evenodd" d="M21 39C22.6569 39 24 37.6569 24 36C24 34.3431 22.6569 33 21 33C19.3431 33 18 34.3431 18 36C18 37.6569 19.3431 39 21 39Z" fill="#393A36"/>
<path fill-rule="evenodd" clip-rule="evenodd" d="M24 42C25.6569 42 27 40.6569 27 39C27 37.3431 25.6569 36 24 36C22.3431 36 21 37.3431 21 39C21 40.6569 22.3431 42 24 42Z" fill="#393A36"/>
<path fill-rule="evenodd" clip-rule="evenodd" d="M19 42C20.6569 42 22 40.6569 22 39C22 37.3431 20.6569 36 19 36C17.3431 36 16 37.3431 16 39C16 40.6569 17.3431 42 19 42Z" fill="#393A36"/>
<path fill-rule="evenodd" clip-rule="evenodd" d="M20.6189 41.2135C21.5515 41.6787 21.9349 42.7332 20 45C21.0884 44.8303 22.3775 44.5384 23 43.4043C21.7926 42.8906 22.1488 41.3201 22.1343 40L20.6189 41.2135Z" fill="#393A36" stroke="#393A36"/>
<defs>
<filter id="filter0_d" x="0" y="0" width="133" height="177" filterUnits="userSpaceOnUse" color-interpolation-filters="sRGB">
<feFlood flood-opacity="0" result="BackgroundImageFix"/>
<feColorMatrix in="SourceAlpha" type="matrix" values="0 0 0 0 0 0 0 0 0 0 0 0 0 0 0 0 0 0 127 0"/>
<feOffset dx="-2" dy="2"/>
<feGaussianBlur stdDeviation="2"/>
<feColorMatrix type="matrix" values="0 0 0 0 0 0 0 0 0 0 0 0 0 0 0 0 0 0 0.247159 0"/>
<feBlend mode="normal" in2="BackgroundImageFix" result="effect1_dropShadow"/>
<feBlend mode="normal" in="SourceGraphic" in2="effect1_dropShadow" result="shape"/>
</filter>
</defs>
</svg>
