<svg width="133" height="177" viewBox="0 0 133 177" fill="none" xmlns="http://www.w3.org/2000/svg">
<g filter="url(#filter0_d)">
<rect x="6" y="2" width="125" height="169" rx="8" fill="#E4D8F1"/>
</g>
<path fill-rule="evenodd" clip-rule="evenodd" d="M69.6274 36C61.0051 57.7227 47.79 74.5346 30 85.5C47.5348 94.7611 61.0844 109.996 70.1048 135C78.1121 116.137 90.5239 99.6593 109 85.5C89.0014 72.9019 78.9227 54.927 69.6274 36Z" fill="#F2416F"/>
<path d="M18.5818 28.7018C19.1148 28.7384 19.6418 28.6917 20.1626 28.5614C21.1473 28.3336 22.1198 27.9531 23.0801 27.4201C24.0404 26.887 24.785 26.1729 25.314 25.2778C25.5907 24.8057 25.7087 24.3053 25.668 23.7763C25.5866 23.2066 25.3323 22.6838 24.905 22.2077C24.4778 21.7316 24.02 21.3593 23.5318 21.0907C23.4992 21.0745 23.4707 21.0582 23.4463 21.0419C23.2347 20.928 23.0353 20.8018 22.8482 20.6635C23.1981 20.2566 23.544 19.8416 23.8858 19.4184C23.9916 19.28 24.0973 19.1458 24.2031 19.0155C24.431 18.7389 24.6202 18.4438 24.7708 18.1305C24.9213 17.8172 24.9966 17.4856 24.9966 17.1357C24.9722 16.6881 24.8115 16.2771 24.5144 15.9028C24.2174 15.5284 23.8817 15.2314 23.5073 15.0116C22.8482 14.6047 22.1442 14.4705 21.3955 14.6088C20.7038 14.8123 20.1016 15.1825 19.5889 15.7196C19.0681 16.2161 18.6083 16.7572 18.2095 17.3432C17.9898 17.628 17.8636 17.9373 17.8311 18.2709C17.8392 18.5395 17.9287 18.7816 18.0996 18.9972C18.2705 19.2129 18.4618 19.4062 18.6734 19.5771C18.714 19.6178 18.7547 19.6523 18.7954 19.6808C18.8361 19.7093 18.8849 19.7276 18.9419 19.7358C19.0314 19.7358 19.1108 19.7032 19.1799 19.6381C19.2491 19.573 19.3081 19.5038 19.357 19.4306C20.1219 18.3157 21.0659 17.3798 22.189 16.623C22.3355 16.5172 22.4962 16.4358 22.6712 16.3788C22.8461 16.3219 23.0109 16.33 23.1655 16.4032C22.2866 18.511 20.895 20.1915 18.9907 21.4447C18.535 21.6889 18.4251 22.047 18.6612 22.519C18.7425 22.6736 18.8463 22.8384 18.9724 23.0133C19.0986 23.1883 19.243 23.3206 19.4058 23.4101C19.536 23.467 19.6621 23.4833 19.7842 23.4589C19.9876 23.4019 20.183 23.3002 20.3701 23.1537C20.3945 23.1293 20.423 23.109 20.4556 23.0927C21.2775 22.523 22.189 22.2301 23.19 22.2138C23.3364 22.2056 23.4809 22.2219 23.6233 22.2626C23.7657 22.3033 23.8776 22.3806 23.959 22.4945C24.0241 22.5922 24.0546 22.7 24.0506 22.818C24.0465 22.936 24.0282 23.0479 23.9956 23.1537C23.8329 23.6095 23.5847 24.0123 23.251 24.3622C22.4046 25.3062 21.3996 26.0265 20.2359 26.5229C20.1952 26.5391 20.1504 26.5554 20.1016 26.5717C19.8412 26.6938 19.5095 26.828 19.1067 26.9745C18.7039 27.121 18.3133 27.2105 17.9348 27.2431C17.5564 27.2756 17.2736 27.1861 17.0864 26.9745C17.0132 26.8687 16.9807 26.7507 16.9888 26.6205C16.9969 26.4903 17.0173 26.3642 17.0498 26.2421C17.1638 25.7782 17.2573 25.3144 17.3306 24.8505C17.3469 24.7203 17.3306 24.6043 17.2818 24.5026C17.2329 24.4009 17.1353 24.3826 16.9888 24.4477C16.6633 24.6186 16.4171 24.8851 16.2503 25.2472C16.0834 25.6094 16.0041 25.9654 16.0122 26.3153C16.0529 27.1373 16.4151 27.7761 17.0987 28.2319C17.5544 28.5085 18.0488 28.6652 18.5818 28.7018Z" fill="#F2416F"/>
<path d="M112.582 159.702C113.115 159.738 113.642 159.692 114.163 159.561C115.147 159.334 116.12 158.953 117.08 158.42C118.04 157.887 118.785 157.173 119.314 156.278C119.591 155.806 119.709 155.305 119.668 154.776C119.587 154.207 119.332 153.684 118.905 153.208C118.478 152.732 118.02 152.359 117.532 152.091C117.499 152.074 117.471 152.058 117.446 152.042C117.235 151.928 117.035 151.802 116.848 151.663C117.198 151.257 117.544 150.842 117.886 150.418C117.992 150.28 118.097 150.146 118.203 150.016C118.431 149.739 118.62 149.444 118.771 149.131C118.921 148.817 118.997 148.486 118.997 148.136C118.972 147.688 118.811 147.277 118.514 146.903C118.217 146.528 117.882 146.231 117.507 146.012C116.848 145.605 116.144 145.47 115.396 145.609C114.704 145.812 114.102 146.183 113.589 146.72C113.068 147.216 112.608 147.757 112.209 148.343C111.99 148.628 111.864 148.937 111.831 149.271C111.839 149.539 111.929 149.782 112.1 149.997C112.271 150.213 112.462 150.406 112.673 150.577C112.714 150.618 112.755 150.652 112.795 150.681C112.836 150.709 112.885 150.728 112.942 150.736C113.031 150.736 113.111 150.703 113.18 150.638C113.249 150.573 113.308 150.504 113.357 150.431C114.122 149.316 115.066 148.38 116.189 147.623C116.335 147.517 116.496 147.436 116.671 147.379C116.846 147.322 117.011 147.33 117.166 147.403C116.287 149.511 114.895 151.191 112.991 152.445C112.535 152.689 112.425 153.047 112.661 153.519C112.743 153.674 112.846 153.838 112.972 154.013C113.099 154.188 113.243 154.321 113.406 154.41C113.536 154.467 113.662 154.483 113.784 154.459C113.988 154.402 114.183 154.3 114.37 154.154C114.395 154.129 114.423 154.109 114.456 154.093C115.278 153.523 116.189 153.23 117.19 153.214C117.336 153.206 117.481 153.222 117.623 153.263C117.766 153.303 117.878 153.381 117.959 153.495C118.024 153.592 118.055 153.7 118.051 153.818C118.046 153.936 118.028 154.048 117.996 154.154C117.833 154.609 117.585 155.012 117.251 155.362C116.405 156.306 115.4 157.026 114.236 157.523C114.195 157.539 114.15 157.555 114.102 157.572C113.841 157.694 113.51 157.828 113.107 157.975C112.704 158.121 112.313 158.211 111.935 158.243C111.556 158.276 111.274 158.186 111.086 157.975C111.013 157.869 110.981 157.751 110.989 157.621C110.997 157.49 111.017 157.364 111.05 157.242C111.164 156.778 111.257 156.314 111.331 155.851C111.347 155.72 111.331 155.604 111.282 155.503C111.233 155.401 111.135 155.383 110.989 155.448C110.663 155.619 110.417 155.885 110.25 156.247C110.083 156.609 110.004 156.965 110.012 157.315C110.053 158.137 110.415 158.776 111.099 159.232C111.554 159.509 112.049 159.665 112.582 159.702Z" fill="#F2416F"/>
<path fill-rule="evenodd" clip-rule="evenodd" d="M22.521 32C21.1021 35.5107 18.9275 38.2278 16 40C18.8855 41.4968 21.1152 43.959 22.5995 48C23.9172 44.9514 25.9596 42.2884 29 40C25.7091 37.9639 24.0506 35.0589 22.521 32Z" fill="#F2416F"/>
<defs>
<filter id="filter0_d" x="0" y="0" width="133" height="177" filterUnits="userSpaceOnUse" color-interpolation-filters="sRGB">
<feFlood flood-opacity="0" result="BackgroundImageFix"/>
<feColorMatrix in="SourceAlpha" type="matrix" values="0 0 0 0 0 0 0 0 0 0 0 0 0 0 0 0 0 0 127 0"/>
<feOffset dx="-2" dy="2"/>
<feGaussianBlur stdDeviation="2"/>
<feColorMatrix type="matrix" values="0 0 0 0 0 0 0 0 0 0 0 0 0 0 0 0 0 0 0.247159 0"/>
<feBlend mode="normal" in2="BackgroundImageFix" result="effect1_dropShadow"/>
<feBlend mode="normal" in="SourceGraphic" in2="effect1_dropShadow" result="shape"/>
</filter>
</defs>
</svg>
