<svg width="133" height="177" viewBox="0 0 133 177" fill="none" xmlns="http://www.w3.org/2000/svg">
<g filter="url(#filter0_d)">
<rect x="6" y="2" width="125" height="169" rx="8" fill="#E4D8F1"/>
</g>
<path fill-rule="evenodd" clip-rule="evenodd" d="M73.6411 50.002C122.854 51.8913 123.896 77.9654 75.7414 128.284C74.4914 129.59 71.6977 131 71.6977 131C71.6977 131 68.3156 129.446 66.9497 127.904C60.7609 120.919 54.9876 113.443 50.3883 107.396C39.4666 93.0352 33.4914 82.2786 32.2329 73.2005C30.2901 59.1852 40.4503 51.4588 64.5247 50.002C66.2783 49.8959 71.6977 55.5431 71.6977 55.5431L73.6411 58.5526C73.6411 58.5526 75.0333 63.2401 75.0333 56.8261C75.0333 52.0542 73.6081 51.4695 73.6411 50.002Z" fill="#F2416F"/>
<path d="M24.5317 20.0907C25.02 20.3593 25.4757 20.7336 25.8989 21.2138C26.3302 21.6858 26.5866 22.2066 26.6679 22.7763C26.7086 23.3053 26.5906 23.8057 26.3139 24.2778C25.785 25.1729 25.0403 25.8891 24.08 26.4262C23.1198 26.9552 22.1473 27.3336 21.1626 27.5614C20.6417 27.6917 20.1128 27.7364 19.5757 27.6957C19.0467 27.6632 18.5543 27.5085 18.0986 27.2319C17.415 26.7761 17.0529 26.1373 17.0122 25.3153C17.004 24.9654 17.0814 24.6114 17.2441 24.2533C17.415 23.8871 17.6632 23.6186 17.9887 23.4477C18.1352 23.3826 18.2329 23.4029 18.2817 23.5087C18.3305 23.6064 18.3468 23.7203 18.3305 23.8505C18.2573 24.3144 18.1637 24.7782 18.0498 25.2421C18.0172 25.3642 17.9969 25.4903 17.9887 25.6205C17.9806 25.7507 18.0132 25.8687 18.0864 25.9745C18.2736 26.1861 18.5543 26.2756 18.9287 26.2431C19.3112 26.2105 19.7018 26.121 20.1006 25.9745C20.5075 25.828 20.8411 25.6938 21.1015 25.5717C21.1504 25.5554 21.1951 25.5391 21.2358 25.5229C22.3995 25.0264 23.4046 24.3062 24.2509 23.3622C24.5846 23.0123 24.8328 22.6095 24.9956 22.1537C25.0281 22.0479 25.0444 21.9381 25.0444 21.8241C25.0525 21.7021 25.0241 21.5922 24.959 21.4945C24.8776 21.3806 24.7636 21.3033 24.6172 21.2626C24.4788 21.2219 24.3364 21.2056 24.1899 21.2138C23.1889 21.2301 22.2775 21.523 21.4555 22.0927C21.423 22.109 21.3945 22.1293 21.3701 22.1537C21.1829 22.3002 20.9876 22.4019 20.7842 22.4589C20.6621 22.4833 20.5359 22.467 20.4057 22.4101C20.243 22.3206 20.0965 22.1903 19.9663 22.0195C19.8442 21.8404 19.7425 21.6736 19.6611 21.519C19.4251 21.047 19.535 20.6889 19.9907 20.4447C21.895 19.1915 23.2866 17.511 24.1655 15.4032C24.0109 15.33 23.844 15.3219 23.665 15.3788C23.4941 15.4358 23.3354 15.5172 23.1889 15.623C22.0659 16.3798 21.1219 17.3157 20.3569 18.4306C20.3081 18.5038 20.247 18.573 20.1738 18.6381C20.1087 18.7032 20.0314 18.7358 19.9419 18.7358C19.8849 18.7276 19.8361 18.7113 19.7954 18.6869C19.7547 18.6544 19.714 18.6178 19.6733 18.5771C19.4617 18.4062 19.2705 18.2149 19.0996 18.0033C18.9287 17.7836 18.8392 17.5395 18.831 17.2709C18.8636 16.9373 18.9897 16.628 19.2094 16.3432C19.6082 15.7572 20.068 15.2161 20.5888 14.7196C21.1015 14.1825 21.7037 13.8123 22.3955 13.6088C23.1442 13.4705 23.8481 13.6047 24.5073 14.0116C24.8816 14.2314 25.2153 14.5284 25.5083 14.9028C25.8094 15.2771 25.9721 15.6881 25.9966 16.1357C25.9966 16.4856 25.9192 16.8193 25.7646 17.1366C25.6181 17.4459 25.431 17.7389 25.2031 18.0155C25.0973 18.1458 24.9915 18.28 24.8857 18.4184C24.5439 18.8416 24.1981 19.2566 23.8481 19.6635C24.0353 19.8018 24.2347 19.928 24.4463 20.0419C24.4707 20.0582 24.4992 20.0745 24.5317 20.0907Z" fill="#F2416F"/>
<path d="M118.532 150.091C119.02 150.359 119.476 150.734 119.899 151.214C120.33 151.686 120.587 152.207 120.668 152.776C120.709 153.305 120.591 153.806 120.314 154.278C119.785 155.173 119.04 155.889 118.08 156.426C117.12 156.955 116.147 157.334 115.163 157.561C114.642 157.692 114.113 157.736 113.576 157.696C113.047 157.663 112.554 157.509 112.099 157.232C111.415 156.776 111.053 156.137 111.012 155.315C111.004 154.965 111.081 154.611 111.244 154.253C111.415 153.887 111.663 153.619 111.989 153.448C112.135 153.383 112.233 153.403 112.282 153.509C112.331 153.606 112.347 153.72 112.331 153.851C112.257 154.314 112.164 154.778 112.05 155.242C112.017 155.364 111.997 155.49 111.989 155.621C111.981 155.751 112.013 155.869 112.086 155.975C112.274 156.186 112.554 156.276 112.929 156.243C113.311 156.211 113.702 156.121 114.101 155.975C114.507 155.828 114.841 155.694 115.102 155.572C115.15 155.555 115.195 155.539 115.236 155.523C116.4 155.026 117.405 154.306 118.251 153.362C118.585 153.012 118.833 152.609 118.996 152.154C119.028 152.048 119.044 151.938 119.044 151.824C119.053 151.702 119.024 151.592 118.959 151.495C118.878 151.381 118.764 151.303 118.617 151.263C118.479 151.222 118.336 151.206 118.19 151.214C117.189 151.23 116.277 151.523 115.456 152.093C115.423 152.109 115.395 152.129 115.37 152.154C115.183 152.3 114.988 152.402 114.784 152.459C114.662 152.483 114.536 152.467 114.406 152.41C114.243 152.321 114.096 152.19 113.966 152.019C113.844 151.84 113.742 151.674 113.661 151.519C113.425 151.047 113.535 150.689 113.991 150.445C115.895 149.191 117.287 147.511 118.165 145.403C118.011 145.33 117.844 145.322 117.665 145.379C117.494 145.436 117.335 145.517 117.189 145.623C116.066 146.38 115.122 147.316 114.357 148.431C114.308 148.504 114.247 148.573 114.174 148.638C114.109 148.703 114.031 148.736 113.942 148.736C113.885 148.728 113.836 148.711 113.795 148.687C113.755 148.654 113.714 148.618 113.673 148.577C113.462 148.406 113.27 148.215 113.1 148.003C112.929 147.784 112.839 147.539 112.831 147.271C112.864 146.937 112.99 146.628 113.209 146.343C113.608 145.757 114.068 145.216 114.589 144.72C115.102 144.183 115.704 143.812 116.395 143.609C117.144 143.47 117.848 143.605 118.507 144.012C118.882 144.231 119.215 144.528 119.508 144.903C119.809 145.277 119.972 145.688 119.997 146.136C119.997 146.486 119.919 146.819 119.765 147.137C119.618 147.446 119.431 147.739 119.203 148.016C119.097 148.146 118.992 148.28 118.886 148.418C118.544 148.842 118.198 149.257 117.848 149.663C118.035 149.802 118.235 149.928 118.446 150.042C118.471 150.058 118.499 150.074 118.532 150.091Z" fill="#F2416F"/>
<path fill-rule="evenodd" clip-rule="evenodd" d="M22.3082 33.0003C29.7634 33.3035 29.9213 37.4882 22.6264 45.564C22.437 45.7737 22.0138 46 22.0138 46C22.0138 46 21.5014 45.7505 21.2945 45.5031C20.357 44.382 19.4824 43.1821 18.7856 42.2116C17.1311 39.9068 16.2259 38.1805 16.0353 36.7235C15.741 34.4741 17.2801 33.2341 20.9272 33.0003C21.1928 32.9833 22.0138 33.8896 22.0138 33.8896L22.3082 34.3726C22.3082 34.3726 22.5191 35.1249 22.5191 34.0955C22.5191 33.3297 22.3032 33.2358 22.3082 33.0003Z" fill="#F2416F"/>
<defs>
<filter id="filter0_d" x="0" y="0" width="133" height="177" filterUnits="userSpaceOnUse" color-interpolation-filters="sRGB">
<feFlood flood-opacity="0" result="BackgroundImageFix"/>
<feColorMatrix in="SourceAlpha" type="matrix" values="0 0 0 0 0 0 0 0 0 0 0 0 0 0 0 0 0 0 127 0"/>
<feOffset dx="-2" dy="2"/>
<feGaussianBlur stdDeviation="2"/>
<feColorMatrix type="matrix" values="0 0 0 0 0 0 0 0 0 0 0 0 0 0 0 0 0 0 0.247159 0"/>
<feBlend mode="normal" in2="BackgroundImageFix" result="effect1_dropShadow"/>
<feBlend mode="normal" in="SourceGraphic" in2="effect1_dropShadow" result="shape"/>
</filter>
</defs>
</svg>
