<svg width="133" height="177" viewBox="0 0 133 177" fill="none" xmlns="http://www.w3.org/2000/svg">
<g filter="url(#filter0_d)">
<rect x="6" y="2" width="125" height="169" rx="8" fill="#E4D8F1"/>
</g>
<path fill-rule="evenodd" clip-rule="evenodd" d="M66.5 89C78.9264 89 89 79.1503 89 67C89 54.8497 78.9264 45 66.5 45C54.0736 45 44 54.8497 44 67C44 79.1503 54.0736 89 66.5 89Z" fill="#393A36"/>
<path fill-rule="evenodd" clip-rule="evenodd" d="M89.5 118C101.926 118 112 108.15 112 96C112 83.8497 101.926 74 89.5 74C77.0736 74 67 83.8497 67 96C67 108.15 77.0736 118 89.5 118Z" fill="#393A36"/>
<path fill-rule="evenodd" clip-rule="evenodd" d="M47.5 120C59.9264 120 70 110.15 70 98C70 85.8497 59.9264 76 47.5 76C35.0736 76 25 85.8497 25 98C25 110.15 35.0736 120 47.5 120Z" fill="#393A36"/>
<path fill-rule="evenodd" clip-rule="evenodd" d="M62.5072 107.281C67.7919 110.072 69.9646 116.399 59 130C65.1676 128.982 72.4726 127.23 76 120.426C69.1582 117.344 71.1763 107.92 71.0945 100L62.5072 107.281Z" fill="#393A36" stroke="#393A36"/>
<path fill-rule="evenodd" clip-rule="evenodd" d="M21 39C22.6569 39 24 37.6569 24 36C24 34.3431 22.6569 33 21 33C19.3431 33 18 34.3431 18 36C18 37.6569 19.3431 39 21 39Z" fill="#393A36"/>
<path fill-rule="evenodd" clip-rule="evenodd" d="M24 42C25.6569 42 27 40.6569 27 39C27 37.3431 25.6569 36 24 36C22.3431 36 21 37.3431 21 39C21 40.6569 22.3431 42 24 42Z" fill="#393A36"/>
<path fill-rule="evenodd" clip-rule="evenodd" d="M19 42C20.6569 42 22 40.6569 22 39C22 37.3431 20.6569 36 19 36C17.3431 36 16 37.3431 16 39C16 40.6569 17.3431 42 19 42Z" fill="#393A36"/>
<path fill-rule="evenodd" clip-rule="evenodd" d="M20.6189 41.2135C21.5515 41.6787 21.9349 42.7332 20 45C21.0884 44.8303 22.3775 44.5384 23 43.4043C21.7926 42.8906 22.1488 41.3201 22.1343 40L20.6189 41.2135Z" fill="#393A36" stroke="#393A36"/>
<path d="M22.3152 27.8423C22.4739 27.94 22.6468 27.8749 22.834 27.647C22.9072 27.5412 22.9479 27.4273 22.956 27.3052C22.9642 27.2645 22.9683 27.2279 22.9683 27.1953C23.2205 26.0479 23.5664 24.9187 24.0058 23.8079C24.4453 22.697 24.9132 21.6045 25.4097 20.5303L25.7759 19.7002C25.8572 19.5293 25.9468 19.3381 26.0444 19.1265C26.2804 18.6626 26.5063 18.152 26.7219 17.5945C26.9376 17.0371 27.0495 16.4999 27.0576 15.9832C27.0657 15.4664 26.8745 15.0331 26.4839 14.6831C26.1665 14.3983 25.9122 14.2416 25.7209 14.2132C25.5297 14.1847 25.3283 14.378 25.1167 14.793C24.7749 15.4603 24.5023 16.152 24.2988 16.8682C24.2744 16.9658 24.2459 17.0635 24.2134 17.1612C24.0994 17.6901 23.9001 18.1784 23.6152 18.626C23.2653 19.0817 22.8116 19.4032 22.2541 19.5904C21.6967 19.7775 21.1291 19.9118 20.5513 19.9932L23.7739 15.5987C23.9204 15.4196 24.0262 15.2202 24.0913 15.0005C24.132 14.7075 24.0486 14.441 23.8411 14.2009C23.6335 13.9609 23.3996 13.7595 23.1391 13.5967C23.0659 13.5397 22.9906 13.4929 22.9133 13.4563C22.836 13.4197 22.7526 13.4055 22.6631 13.4136C22.5491 13.438 22.4535 13.497 22.3762 13.5906C22.2989 13.6842 22.2358 13.7879 22.187 13.9019C21.3976 15.44 20.3844 16.8112 19.1475 18.0156C19.123 18.0482 19.0946 18.0767 19.062 18.1011C18.7446 18.3778 18.4883 18.6952 18.293 19.0532C18.0976 19.5334 18.1099 20.0176 18.3296 20.5059C18.5493 20.9942 18.8952 21.3644 19.3672 21.6167C20.0833 21.9504 20.832 22.044 21.6133 21.8975C21.7191 21.8812 21.8167 21.8609 21.9062 21.8364C21.9958 21.812 22.0731 21.7978 22.1382 21.7937C22.2033 21.7897 22.2521 21.808 22.2847 21.8487C22.4067 22.044 22.4169 22.2718 22.3152 22.5322C22.2134 22.7927 22.0853 23.049 21.9307 23.3013C21.8167 23.4966 21.7313 23.6634 21.6743 23.8018C21.3325 24.7865 21.3244 25.7752 21.6499 26.7681C21.7069 26.9308 21.7923 27.1262 21.9062 27.354C22.0202 27.5819 22.1565 27.7447 22.3152 27.8423Z" fill="#393A36"/>
<path d="M114.16 158.431C114.319 158.529 114.492 158.463 114.679 158.236C114.752 158.13 114.793 158.016 114.801 157.894C114.809 157.853 114.813 157.817 114.813 157.784C115.065 156.636 115.411 155.507 115.851 154.397C116.29 153.286 116.758 152.193 117.255 151.119L117.621 150.289C117.702 150.118 117.792 149.927 117.889 149.715C118.125 149.251 118.351 148.741 118.567 148.183C118.782 147.626 118.894 147.089 118.903 146.572C118.911 146.055 118.719 145.622 118.329 145.272C118.011 144.987 117.757 144.83 117.566 144.802C117.375 144.773 117.173 144.967 116.962 145.382C116.62 146.049 116.347 146.741 116.144 147.457C116.119 147.554 116.091 147.652 116.058 147.75C115.944 148.279 115.745 148.767 115.46 149.215C115.11 149.67 114.657 149.992 114.099 150.179C113.542 150.366 112.974 150.5 112.396 150.582L115.619 146.187C115.765 146.008 115.871 145.809 115.936 145.589C115.977 145.296 115.893 145.03 115.686 144.79C115.478 144.55 115.244 144.348 114.984 144.185C114.911 144.128 114.836 144.082 114.758 144.045C114.681 144.008 114.598 143.994 114.508 144.002C114.394 144.027 114.298 144.086 114.221 144.179C114.144 144.273 114.081 144.377 114.032 144.491C113.243 146.029 112.229 147.4 110.992 148.604C110.968 148.637 110.939 148.665 110.907 148.69C110.59 148.966 110.333 149.284 110.138 149.642C109.943 150.122 109.955 150.606 110.174 151.095C110.394 151.583 110.74 151.953 111.212 152.205C111.928 152.539 112.677 152.633 113.458 152.486C113.564 152.47 113.662 152.449 113.751 152.425C113.841 152.401 113.918 152.386 113.983 152.382C114.048 152.378 114.097 152.397 114.13 152.437C114.252 152.633 114.262 152.86 114.16 153.121C114.058 153.381 113.93 153.638 113.776 153.89C113.662 154.085 113.576 154.252 113.519 154.39C113.177 155.375 113.169 156.364 113.495 157.357C113.552 157.519 113.637 157.715 113.751 157.943C113.865 158.171 114.001 158.333 114.16 158.431Z" fill="#393A36"/>
<defs>
<filter id="filter0_d" x="0" y="0" width="133" height="177" filterUnits="userSpaceOnUse" color-interpolation-filters="sRGB">
<feFlood flood-opacity="0" result="BackgroundImageFix"/>
<feColorMatrix in="SourceAlpha" type="matrix" values="0 0 0 0 0 0 0 0 0 0 0 0 0 0 0 0 0 0 127 0"/>
<feOffset dx="-2" dy="2"/>
<feGaussianBlur stdDeviation="2"/>
<feColorMatrix type="matrix" values="0 0 0 0 0 0 0 0 0 0 0 0 0 0 0 0 0 0 0.247159 0"/>
<feBlend mode="normal" in2="BackgroundImageFix" result="effect1_dropShadow"/>
<feBlend mode="normal" in="SourceGraphic" in2="effect1_dropShadow" result="shape"/>
</filter>
</defs>
</svg>
