<svg width="133" height="177" viewBox="0 0 133 177" fill="none" xmlns="http://www.w3.org/2000/svg">
<g filter="url(#filter0_d)">
<rect x="6" y="2" width="125" height="169" rx="8" fill="#E4D8F1"/>
</g>
<path fill-rule="evenodd" clip-rule="evenodd" d="M73.6411 50.002C122.854 51.8913 123.896 77.9654 75.7414 128.284C74.4914 129.59 71.6977 131 71.6977 131C71.6977 131 68.3156 129.446 66.9497 127.904C60.7609 120.919 54.9876 113.443 50.3883 107.396C39.4666 93.0352 33.4914 82.2786 32.2329 73.2005C30.2901 59.1852 40.4503 51.4588 64.5247 50.002C66.2783 49.8959 71.6977 55.5431 71.6977 55.5431L73.6411 58.5526C73.6411 58.5526 75.0333 63.2401 75.0333 56.8261C75.0333 52.0542 73.6081 51.4695 73.6411 50.002Z" fill="#F2416F"/>
<path fill-rule="evenodd" clip-rule="evenodd" d="M22.3082 33.0003C29.7634 33.3035 29.9213 37.4882 22.6264 45.564C22.437 45.7737 22.0138 46 22.0138 46C22.0138 46 21.5014 45.7505 21.2945 45.5031C20.357 44.382 19.4824 43.1821 18.7856 42.2116C17.1311 39.9068 16.2259 38.1805 16.0353 36.7235C15.741 34.4741 17.2801 33.2341 20.9272 33.0003C21.1928 32.9833 22.0138 33.8896 22.0138 33.8896L22.3082 34.3726C22.3082 34.3726 22.5191 35.1249 22.5191 34.0955C22.5191 33.3297 22.3032 33.2358 22.3082 33.0003Z" fill="#F2416F"/>
<path d="M25.4839 14.6832C25.8745 15.0331 26.0657 15.4685 26.0576 15.9893C26.0495 16.502 25.9355 17.0391 25.7158 17.6007C25.5042 18.1541 25.2804 18.6627 25.0444 19.1265C24.9468 19.3381 24.8572 19.5294 24.7759 19.7003C24.6538 19.977 24.5317 20.2537 24.4097 20.5304C23.9132 21.6046 23.4453 22.6991 23.0058 23.814C22.5664 24.9208 22.2205 26.0479 21.9683 27.1954C21.9683 27.2279 21.9642 27.2646 21.956 27.3053C21.9479 27.4273 21.9072 27.5413 21.834 27.6471C21.6468 27.8749 21.4718 27.94 21.3091 27.8424C21.1544 27.7447 21.0202 27.5819 20.9062 27.3541C20.7923 27.1262 20.7069 26.9309 20.6499 26.7681C20.3244 25.7753 20.3325 24.7865 20.6743 23.8018C20.7313 23.6635 20.8167 23.4967 20.9307 23.3014C21.0853 23.0491 21.2114 22.7927 21.3091 22.5323C21.4149 22.2719 21.4067 22.044 21.2847 21.8487C21.2521 21.808 21.2033 21.7917 21.1382 21.7999C21.0731 21.7999 20.9958 21.8121 20.9062 21.8365C20.8167 21.8609 20.7191 21.8813 20.6133 21.8975C19.832 22.044 19.0833 21.9504 18.3672 21.6168C17.8952 21.3645 17.5493 20.9942 17.3296 20.5059C17.1099 20.0177 17.0976 19.5334 17.293 19.0533C17.4883 18.6952 17.7446 18.3778 18.062 18.1012C18.0946 18.0767 18.123 18.0483 18.1475 18.0157C19.3844 16.8113 20.3976 15.44 21.187 13.9019C21.2358 13.788 21.2969 13.6863 21.3701 13.5968C21.4515 13.4991 21.5491 13.4381 21.6631 13.4137C21.7526 13.4055 21.834 13.4218 21.9072 13.4625C21.9886 13.495 22.0659 13.5398 22.1391 13.5968C22.3996 13.7595 22.6315 13.963 22.8349 14.2071C23.0465 14.4431 23.132 14.7076 23.0913 15.0006C23.0262 15.2203 22.9204 15.4197 22.7739 15.5987C21.6997 17.0636 20.6255 18.5284 19.5513 19.9932C20.1291 19.9119 20.6947 19.7776 21.248 19.5904C21.8096 19.4032 22.2653 19.0818 22.6152 18.6261C22.9001 18.1785 23.0994 17.6902 23.2134 17.1612C23.2459 17.0636 23.2744 16.9659 23.2988 16.8682C23.5023 16.1521 23.7749 15.4604 24.1167 14.7931C24.3283 14.378 24.5277 14.1868 24.7148 14.2193C24.9101 14.2437 25.1665 14.3984 25.4839 14.6832Z" fill="#F2416F"/>
<path d="M117.484 144.683C117.875 145.033 118.066 145.469 118.058 145.989C118.049 146.502 117.936 147.039 117.716 147.601C117.504 148.154 117.28 148.663 117.044 149.127C116.947 149.338 116.857 149.529 116.776 149.7C116.654 149.977 116.532 150.254 116.41 150.53C115.913 151.605 115.445 152.699 115.006 153.814C114.566 154.921 114.221 156.048 113.968 157.195C113.968 157.228 113.964 157.265 113.956 157.305C113.948 157.427 113.907 157.541 113.834 157.647C113.647 157.875 113.472 157.94 113.309 157.842C113.154 157.745 113.02 157.582 112.906 157.354C112.792 157.126 112.707 156.931 112.65 156.768C112.324 155.775 112.333 154.787 112.674 153.802C112.731 153.663 112.817 153.497 112.931 153.301C113.085 153.049 113.211 152.793 113.309 152.532C113.415 152.272 113.407 152.044 113.285 151.849C113.252 151.808 113.203 151.792 113.138 151.8C113.073 151.8 112.996 151.812 112.906 151.837C112.817 151.861 112.719 151.881 112.613 151.898C111.832 152.044 111.083 151.95 110.367 151.617C109.895 151.365 109.549 150.994 109.33 150.506C109.11 150.018 109.098 149.533 109.293 149.053C109.488 148.695 109.745 148.378 110.062 148.101C110.095 148.077 110.123 148.048 110.147 148.016C111.384 146.811 112.398 145.44 113.187 143.902C113.236 143.788 113.297 143.686 113.37 143.597C113.451 143.499 113.549 143.438 113.663 143.414C113.753 143.406 113.834 143.422 113.907 143.462C113.989 143.495 114.066 143.54 114.139 143.597C114.4 143.76 114.631 143.963 114.835 144.207C115.047 144.443 115.132 144.708 115.091 145.001C115.026 145.22 114.92 145.42 114.774 145.599C113.7 147.064 112.625 148.528 111.551 149.993C112.129 149.912 112.695 149.778 113.248 149.59C113.81 149.403 114.265 149.082 114.615 148.626C114.9 148.178 115.099 147.69 115.213 147.161C115.246 147.064 115.274 146.966 115.299 146.868C115.502 146.152 115.775 145.46 116.117 144.793C116.328 144.378 116.528 144.187 116.715 144.219C116.91 144.244 117.166 144.398 117.484 144.683Z" fill="#F2416F"/>
<defs>
<filter id="filter0_d" x="0" y="0" width="133" height="177" filterUnits="userSpaceOnUse" color-interpolation-filters="sRGB">
<feFlood flood-opacity="0" result="BackgroundImageFix"/>
<feColorMatrix in="SourceAlpha" type="matrix" values="0 0 0 0 0 0 0 0 0 0 0 0 0 0 0 0 0 0 127 0"/>
<feOffset dx="-2" dy="2"/>
<feGaussianBlur stdDeviation="2"/>
<feColorMatrix type="matrix" values="0 0 0 0 0 0 0 0 0 0 0 0 0 0 0 0 0 0 0.247159 0"/>
<feBlend mode="normal" in2="BackgroundImageFix" result="effect1_dropShadow"/>
<feBlend mode="normal" in="SourceGraphic" in2="effect1_dropShadow" result="shape"/>
</filter>
</defs>
</svg>
