<svg width="133" height="177" viewBox="0 0 133 177" fill="none" xmlns="http://www.w3.org/2000/svg">
<g filter="url(#filter0_d)">
<rect x="6" y="2" width="125" height="169" rx="8" fill="#E4D8F1"/>
</g>
<path fill-rule="evenodd" clip-rule="evenodd" d="M21.898 42.8938C10.1094 42.5703 21.8831 33 21.8831 33C21.8831 33 33.8711 42.2635 22.3648 42.8775C22.3636 43.4519 23.1583 43.91 23.1583 43.91C22.6455 44.858 22.0269 45.1108 20.7505 44.959C21.3955 44.521 22.0007 43.5701 21.898 42.8938Z" fill="#393A36" stroke="#393A36"/>
<path fill-rule="evenodd" clip-rule="evenodd" d="M67.5715 112.539C-9.52288 110.396 67.4743 47 67.4743 47C67.4743 47 145.873 108.364 70.6241 112.431C70.6166 116.236 75.8138 119.271 75.8138 119.271C72.4598 125.551 68.4144 127.225 60.0669 126.22C64.2851 123.318 68.2432 117.019 67.5715 112.539Z" fill="#393A36" stroke="#393A36"/>
<path d="M21.3152 27.8423C21.4739 27.94 21.6468 27.8749 21.834 27.647C21.9072 27.5412 21.9479 27.4273 21.956 27.3052C21.9642 27.2645 21.9683 27.2279 21.9683 27.1953C22.2205 26.0479 22.5664 24.9187 23.0058 23.8079C23.4453 22.697 23.9132 21.6045 24.4097 20.5303L24.7759 19.7002C24.8572 19.5293 24.9468 19.3381 25.0444 19.1265C25.2804 18.6626 25.5063 18.152 25.7219 17.5945C25.9376 17.0371 26.0495 16.4999 26.0576 15.9832C26.0657 15.4664 25.8745 15.0331 25.4839 14.6831C25.1665 14.3983 24.9122 14.2416 24.7209 14.2132C24.5297 14.1847 24.3283 14.378 24.1167 14.793C23.7749 15.4603 23.5023 16.152 23.2988 16.8682C23.2744 16.9658 23.2459 17.0635 23.2134 17.1612C23.0994 17.6901 22.9001 18.1784 22.6152 18.626C22.2653 19.0817 21.8116 19.4032 21.2541 19.5904C20.6967 19.7775 20.1291 19.9118 19.5513 19.9932L22.7739 15.5987C22.9204 15.4196 23.0262 15.2202 23.0913 15.0005C23.132 14.7075 23.0486 14.441 22.8411 14.2009C22.6335 13.9609 22.3996 13.7595 22.1391 13.5967C22.0659 13.5397 21.9906 13.4929 21.9133 13.4563C21.836 13.4197 21.7526 13.4055 21.6631 13.4136C21.5491 13.438 21.4535 13.497 21.3762 13.5906C21.2989 13.6842 21.2358 13.7879 21.187 13.9019C20.3976 15.44 19.3844 16.8112 18.1475 18.0156C18.123 18.0482 18.0946 18.0767 18.062 18.1011C17.7446 18.3778 17.4883 18.6952 17.293 19.0532C17.0976 19.5334 17.1099 20.0176 17.3296 20.5059C17.5493 20.9942 17.8952 21.3644 18.3672 21.6167C19.0833 21.9504 19.832 22.044 20.6133 21.8975C20.7191 21.8812 20.8167 21.8609 20.9062 21.8364C20.9958 21.812 21.0731 21.7978 21.1382 21.7937C21.2033 21.7897 21.2521 21.808 21.2847 21.8487C21.4067 22.044 21.4169 22.2718 21.3152 22.5322C21.2134 22.7927 21.0853 23.049 20.9307 23.3013C20.8167 23.4966 20.7313 23.6634 20.6743 23.8018C20.3325 24.7865 20.3244 25.7752 20.6499 26.7681C20.7069 26.9308 20.7923 27.1262 20.9062 27.354C21.0202 27.5819 21.1565 27.7447 21.3152 27.8423Z" fill="#393A36"/>
<path d="M113.315 156.842C113.474 156.94 113.647 156.875 113.834 156.647C113.907 156.541 113.948 156.427 113.956 156.305C113.964 156.265 113.968 156.228 113.968 156.195C114.221 155.048 114.566 153.919 115.006 152.808C115.445 151.697 115.913 150.605 116.41 149.53L116.776 148.7C116.857 148.529 116.947 148.338 117.044 148.126C117.28 147.663 117.506 147.152 117.722 146.595C117.938 146.037 118.049 145.5 118.058 144.983C118.066 144.466 117.875 144.033 117.484 143.683C117.166 143.398 116.912 143.242 116.721 143.213C116.53 143.185 116.328 143.378 116.117 143.793C115.775 144.46 115.502 145.152 115.299 145.868C115.274 145.966 115.246 146.063 115.213 146.161C115.099 146.69 114.9 147.178 114.615 147.626C114.265 148.082 113.812 148.403 113.254 148.59C112.697 148.778 112.129 148.912 111.551 148.993L114.774 144.599C114.92 144.42 115.026 144.22 115.091 144.001C115.132 143.708 115.049 143.441 114.841 143.201C114.634 142.961 114.4 142.759 114.139 142.597C114.066 142.54 113.991 142.493 113.913 142.456C113.836 142.42 113.753 142.405 113.663 142.414C113.549 142.438 113.454 142.497 113.376 142.591C113.299 142.684 113.236 142.788 113.187 142.902C112.398 144.44 111.384 145.811 110.147 147.016C110.123 147.048 110.095 147.077 110.062 147.101C109.745 147.378 109.488 147.695 109.293 148.053C109.098 148.533 109.11 149.018 109.33 149.506C109.549 149.994 109.895 150.364 110.367 150.617C111.083 150.95 111.832 151.044 112.613 150.897C112.719 150.881 112.817 150.861 112.906 150.836C112.996 150.812 113.073 150.798 113.138 150.794C113.203 150.79 113.252 150.808 113.285 150.849C113.407 151.044 113.417 151.272 113.315 151.532C113.213 151.793 113.085 152.049 112.931 152.301C112.817 152.497 112.731 152.663 112.674 152.802C112.333 153.786 112.324 154.775 112.65 155.768C112.707 155.931 112.792 156.126 112.906 156.354C113.02 156.582 113.156 156.745 113.315 156.842Z" fill="#393A36"/>
<defs>
<filter id="filter0_d" x="0" y="0" width="133" height="177" filterUnits="userSpaceOnUse" color-interpolation-filters="sRGB">
<feFlood flood-opacity="0" result="BackgroundImageFix"/>
<feColorMatrix in="SourceAlpha" type="matrix" values="0 0 0 0 0 0 0 0 0 0 0 0 0 0 0 0 0 0 127 0"/>
<feOffset dx="-2" dy="2"/>
<feGaussianBlur stdDeviation="2"/>
<feColorMatrix type="matrix" values="0 0 0 0 0 0 0 0 0 0 0 0 0 0 0 0 0 0 0.247159 0"/>
<feBlend mode="normal" in2="BackgroundImageFix" result="effect1_dropShadow"/>
<feBlend mode="normal" in="SourceGraphic" in2="effect1_dropShadow" result="shape"/>
</filter>
</defs>
</svg>
