<svg width="133" height="177" viewBox="0 0 133 177" fill="none" xmlns="http://www.w3.org/2000/svg">
<g filter="url(#filter0_d)">
<rect x="6" y="2" width="125" height="169" rx="8" fill="#E4D8F1"/>
</g>
<path fill-rule="evenodd" clip-rule="evenodd" d="M21.898 42.8938C10.1094 42.5703 21.8831 33 21.8831 33C21.8831 33 33.8711 42.2635 22.3648 42.8775C22.3636 43.4519 23.1583 43.91 23.1583 43.91C22.6455 44.858 22.0269 45.1108 20.7505 44.959C21.3955 44.521 22.0007 43.5701 21.898 42.8938Z" fill="#393A36" stroke="#393A36"/>
<path fill-rule="evenodd" clip-rule="evenodd" d="M67.5715 112.539C-9.52288 110.396 67.4743 47 67.4743 47C67.4743 47 145.873 108.364 70.6241 112.431C70.6166 116.236 75.8138 119.271 75.8138 119.271C72.4598 125.551 68.4144 127.225 60.0669 126.22C64.2851 123.318 68.2432 117.019 67.5715 112.539Z" fill="#393A36" stroke="#393A36"/>
<path d="M17.5493 27.122C17.8749 27.2685 18.2207 27.3133 18.5869 27.2563C19.4658 27.1831 20.3712 27.0081 21.303 26.7314C22.2348 26.4547 23.0852 26.0458 23.8543 25.5046C24.6233 24.9634 25.195 24.2575 25.5694 23.3867C25.8867 22.5973 26.0088 21.8018 25.9356 21.0002C25.8623 20.1986 25.5205 19.5496 24.9102 19.0532C24.3812 18.687 23.781 18.5446 23.1096 18.6259C22.4383 18.7073 21.8177 18.8619 21.2481 19.0898C21.2318 19.0654 21.2196 19.041 21.2114 19.0166L21.187 18.9677C21.1789 18.9515 21.1748 18.9352 21.1748 18.9189C21.3294 18.4062 21.5431 18.0095 21.8157 17.7287C22.0883 17.448 22.4932 17.2547 23.0303 17.1489C23.779 17.0187 24.5318 16.9576 25.2886 16.9658C25.8013 16.9658 26.3099 16.9454 26.8145 16.9047C27.0586 16.8966 27.2905 16.8356 27.5103 16.7216C27.787 16.5345 27.8948 16.3208 27.8338 16.0808C27.7727 15.8407 27.6242 15.6352 27.3882 15.4643C27.1848 15.3178 26.9854 15.2161 26.7901 15.1591C26.2123 15.0452 25.5938 15.0289 24.9346 15.1103C24.4219 15.1591 23.9275 15.1632 23.4514 15.1225C22.9754 15.0818 22.5461 14.8987 22.1636 14.5732C22.0904 14.5 22.013 14.4186 21.9317 14.3291C21.834 14.1989 21.7221 14.0849 21.596 13.9873C21.4698 13.8896 21.3213 13.8449 21.1504 13.853C20.9632 13.8774 20.8086 13.9649 20.6865 14.1154C20.5645 14.266 20.4627 14.4308 20.3814 14.6098C19.5676 16.3107 18.9491 18.0766 18.5259 19.9077C18.412 20.3227 18.3835 20.7337 18.4405 21.1406C18.5056 21.458 18.6581 21.7286 18.8982 21.9524C19.1383 22.1762 19.417 22.3165 19.7344 22.3735C20.0925 22.4142 20.4058 22.3511 20.6743 22.1843C20.9429 22.0175 21.1952 21.816 21.4312 21.58C21.6265 21.3847 21.8299 21.2138 22.0415 21.0673C22.2531 20.9209 22.4973 20.7805 22.7739 20.6462C23.0506 20.5119 23.3192 20.4529 23.5796 20.4692C23.954 20.5262 24.1513 20.6767 24.1717 20.9209C24.192 21.165 24.1127 21.4498 23.9336 21.7754C23.7546 22.1009 23.5552 22.404 23.3355 22.6848C23.1157 22.9655 22.9489 23.171 22.835 23.3012C21.7933 24.465 20.5645 25.3764 19.1485 26.0356C18.8148 26.2065 18.4649 26.3164 18.0987 26.3652C17.6999 26.3977 17.3581 26.2838 17.0733 26.0234C17.0244 26.235 17.0427 26.4445 17.1282 26.6521C17.2136 26.8596 17.354 27.0162 17.5493 27.122Z" fill="#393A36"/>
<path d="M107.549 156.122C107.875 156.269 108.221 156.313 108.587 156.256C109.466 156.183 110.371 156.008 111.303 155.731C112.235 155.455 113.085 155.046 113.854 154.505C114.623 153.963 115.195 153.257 115.569 152.387C115.887 151.597 116.009 150.802 115.936 150C115.862 149.199 115.521 148.55 114.91 148.053C114.381 147.687 113.781 147.545 113.11 147.626C112.438 147.707 111.818 147.862 111.248 148.09C111.232 148.065 111.22 148.041 111.211 148.017L111.187 147.968C111.179 147.951 111.175 147.935 111.175 147.919C111.329 147.406 111.543 147.009 111.816 146.729C112.088 146.448 112.493 146.255 113.03 146.149C113.779 146.019 114.532 145.958 115.289 145.966C115.801 145.966 116.31 145.945 116.814 145.905C117.059 145.897 117.291 145.836 117.51 145.722C117.787 145.534 117.895 145.321 117.834 145.081C117.773 144.841 117.624 144.635 117.388 144.464C117.185 144.318 116.985 144.216 116.79 144.159C116.212 144.045 115.594 144.029 114.935 144.11C114.422 144.159 113.928 144.163 113.451 144.123C112.975 144.082 112.546 143.899 112.164 143.573C112.09 143.5 112.013 143.419 111.932 143.329C111.834 143.199 111.722 143.085 111.596 142.987C111.47 142.89 111.321 142.845 111.15 142.853C110.963 142.877 110.809 142.965 110.687 143.115C110.564 143.266 110.463 143.431 110.381 143.61C109.568 145.311 108.949 147.077 108.526 148.908C108.412 149.323 108.383 149.734 108.44 150.141C108.506 150.458 108.658 150.729 108.898 150.952C109.138 151.176 109.417 151.317 109.734 151.373C110.092 151.414 110.406 151.351 110.674 151.184C110.943 151.017 111.195 150.816 111.431 150.58C111.626 150.385 111.83 150.214 112.042 150.067C112.253 149.921 112.497 149.78 112.774 149.646C113.051 149.512 113.319 149.453 113.58 149.469C113.954 149.526 114.151 149.677 114.172 149.921C114.192 150.165 114.113 150.45 113.934 150.775C113.755 151.101 113.555 151.404 113.335 151.685C113.116 151.966 112.949 152.171 112.835 152.301C111.793 153.465 110.564 154.376 109.148 155.036C108.815 155.207 108.465 155.316 108.099 155.365C107.7 155.398 107.358 155.284 107.073 155.023C107.024 155.235 107.043 155.445 107.128 155.652C107.214 155.86 107.354 156.016 107.549 156.122Z" fill="#393A36"/>
<defs>
<filter id="filter0_d" x="0" y="0" width="133" height="177" filterUnits="userSpaceOnUse" color-interpolation-filters="sRGB">
<feFlood flood-opacity="0" result="BackgroundImageFix"/>
<feColorMatrix in="SourceAlpha" type="matrix" values="0 0 0 0 0 0 0 0 0 0 0 0 0 0 0 0 0 0 127 0"/>
<feOffset dx="-2" dy="2"/>
<feGaussianBlur stdDeviation="2"/>
<feColorMatrix type="matrix" values="0 0 0 0 0 0 0 0 0 0 0 0 0 0 0 0 0 0 0.247159 0"/>
<feBlend mode="normal" in2="BackgroundImageFix" result="effect1_dropShadow"/>
<feBlend mode="normal" in="SourceGraphic" in2="effect1_dropShadow" result="shape"/>
</filter>
</defs>
</svg>
