<svg width="133" height="177" viewBox="0 0 133 177" fill="none" xmlns="http://www.w3.org/2000/svg">
<g filter="url(#filter0_d)">
<rect x="6" y="2" width="125" height="169" rx="8" fill="#E4D8F1"/>
</g>
<path fill-rule="evenodd" clip-rule="evenodd" d="M69.6274 36C61.0051 57.7227 47.79 74.5346 30 85.5C47.5348 94.7611 61.0844 109.996 70.1048 135C78.1121 116.137 90.5239 99.6593 109 85.5C89.0014 72.9019 78.9227 54.927 69.6274 36Z" fill="#F2416F"/>
<path fill-rule="evenodd" clip-rule="evenodd" d="M22.521 32C21.1021 35.5107 18.9275 38.2278 16 40C18.8855 41.4968 21.1152 43.959 22.5995 48C23.9172 44.9514 25.9596 42.2884 29 40C25.7091 37.9639 24.0506 35.0589 22.521 32Z" fill="#F2416F"/>
<path d="M21.5757 22.153C21.9175 21.8763 22.361 21.6687 22.9062 21.5304C23.4515 21.392 23.9805 21.3798 24.4932 21.4938C25.014 21.5996 25.4087 21.8844 25.6772 22.3483C26.0353 23.1377 26.0231 23.9515 25.6406 24.7897C25.2581 25.6198 24.6844 26.3074 23.9194 26.8527C23.1545 27.3898 22.3732 27.6176 21.5757 27.5363C20.6886 27.3816 20.0579 26.9788 19.6836 26.3278C19.3174 25.6686 19.1221 24.9199 19.0977 24.0817C19.0326 22.5354 19.293 21.0584 19.8789 19.6505C20.473 18.2345 21.36 17.0301 22.54 16.0372C22.7028 15.8989 22.8818 15.7931 23.0771 15.7198C23.3376 15.6629 23.6021 15.6873 23.8706 15.7931C24.3507 15.9721 24.4525 16.2814 24.1758 16.7208C24.0618 16.8754 23.9276 17.0097 23.7729 17.1237C23.7567 17.1399 23.7363 17.1562 23.7119 17.1725C22.9144 17.8642 22.2593 18.6862 21.7466 19.6383C21.242 20.5905 20.9368 21.5914 20.8311 22.6412C20.8311 22.6656 20.8636 22.6575 20.9287 22.6168C21.002 22.5761 21.0874 22.5232 21.1851 22.4581C21.2827 22.3849 21.3682 22.3198 21.4414 22.2628C21.5228 22.2059 21.5675 22.1692 21.5757 22.153ZM24.4565 23.0685C24.4565 23.0115 24.4565 22.9708 24.4565 22.9464C24.4565 22.9301 24.4565 22.9179 24.4565 22.9098C24.4565 22.9017 24.4565 22.8935 24.4565 22.8854C24.4565 22.568 24.3223 22.4622 24.0537 22.568C23.8747 22.6412 23.6997 22.7267 23.5288 22.8243C22.6418 23.337 21.8646 23.984 21.1973 24.7653C20.9857 25.0175 20.8066 25.2942 20.6602 25.5953C20.5706 25.7906 20.5706 25.9615 20.6602 26.108C20.7578 26.2464 20.9165 26.3156 21.1362 26.3156C21.3885 26.3156 21.6326 26.2749 21.8687 26.1935C22.658 25.9249 23.2887 25.457 23.7607 24.7897C23.9479 24.5211 24.1107 24.2444 24.249 23.9596C24.3874 23.6666 24.4565 23.3696 24.4565 23.0685Z" fill="#F2416F"/>
<path d="M113.576 154.153C113.917 153.876 114.361 153.669 114.906 153.53C115.451 153.392 115.98 153.38 116.493 153.494C117.014 153.6 117.409 153.884 117.677 154.348C118.035 155.138 118.023 155.951 117.641 156.79C117.258 157.62 116.684 158.307 115.919 158.853C115.154 159.39 114.373 159.618 113.576 159.536C112.689 159.382 112.058 158.979 111.684 158.328C111.317 157.669 111.122 156.92 111.098 156.082C111.033 154.535 111.293 153.058 111.879 151.651C112.473 150.234 113.36 149.03 114.54 148.037C114.703 147.899 114.882 147.793 115.077 147.72C115.338 147.663 115.602 147.687 115.871 147.793C116.351 147.972 116.452 148.281 116.176 148.721C116.062 148.875 115.928 149.01 115.773 149.124C115.757 149.14 115.736 149.156 115.712 149.172C114.914 149.864 114.259 150.686 113.747 151.638C113.242 152.59 112.937 153.591 112.831 154.641C112.831 154.666 112.864 154.658 112.929 154.617C113.002 154.576 113.087 154.523 113.185 154.458C113.283 154.385 113.368 154.32 113.441 154.263C113.523 154.206 113.568 154.169 113.576 154.153ZM116.457 155.068C116.457 155.012 116.457 154.971 116.457 154.946C116.457 154.93 116.457 154.918 116.457 154.91C116.457 154.902 116.457 154.894 116.457 154.885C116.457 154.568 116.322 154.462 116.054 154.568C115.875 154.641 115.7 154.727 115.529 154.824C114.642 155.337 113.865 155.984 113.197 156.765C112.986 157.018 112.807 157.294 112.66 157.595C112.571 157.791 112.571 157.962 112.66 158.108C112.758 158.246 112.917 158.316 113.136 158.316C113.389 158.316 113.633 158.275 113.869 158.193C114.658 157.925 115.289 157.457 115.761 156.79C115.948 156.521 116.111 156.244 116.249 155.96C116.387 155.667 116.457 155.37 116.457 155.068Z" fill="#F2416F"/>
<defs>
<filter id="filter0_d" x="0" y="0" width="133" height="177" filterUnits="userSpaceOnUse" color-interpolation-filters="sRGB">
<feFlood flood-opacity="0" result="BackgroundImageFix"/>
<feColorMatrix in="SourceAlpha" type="matrix" values="0 0 0 0 0 0 0 0 0 0 0 0 0 0 0 0 0 0 127 0"/>
<feOffset dx="-2" dy="2"/>
<feGaussianBlur stdDeviation="2"/>
<feColorMatrix type="matrix" values="0 0 0 0 0 0 0 0 0 0 0 0 0 0 0 0 0 0 0.247159 0"/>
<feBlend mode="normal" in2="BackgroundImageFix" result="effect1_dropShadow"/>
<feBlend mode="normal" in="SourceGraphic" in2="effect1_dropShadow" result="shape"/>
</filter>
</defs>
</svg>
