<svg width="133" height="177" viewBox="0 0 133 177" fill="none" xmlns="http://www.w3.org/2000/svg">
<g filter="url(#filter0_d)">
<rect x="6" y="2" width="125" height="169" rx="8" fill="#E4D8F1"/>
</g>
<path fill-rule="evenodd" clip-rule="evenodd" d="M21.898 42.8938C10.1094 42.5703 21.8831 33 21.8831 33C21.8831 33 33.8711 42.2635 22.3648 42.8775C22.3636 43.4519 23.1583 43.91 23.1583 43.91C22.6455 44.858 22.0269 45.1108 20.7505 44.959C21.3955 44.521 22.0007 43.5701 21.898 42.8938Z" fill="#393A36" stroke="#393A36"/>
<path fill-rule="evenodd" clip-rule="evenodd" d="M67.5715 112.539C-9.52288 110.396 67.4743 47 67.4743 47C67.4743 47 145.873 108.364 70.6241 112.431C70.6166 116.236 75.8138 119.271 75.8138 119.271C72.4598 125.551 68.4144 127.225 60.0669 126.22C64.2851 123.318 68.2432 117.019 67.5715 112.539Z" fill="#393A36" stroke="#393A36"/>
<path fill-rule="evenodd" clip-rule="evenodd" d="M22.9194 25.8464C22.1544 26.3876 21.3731 26.6175 20.5756 26.5361C19.6886 26.3815 19.0599 25.9766 18.6896 25.3215C18.3194 24.6664 18.122 23.9198 18.0976 23.0815C18.0325 21.5353 18.2949 20.0562 18.8849 18.6443C19.475 17.2323 20.36 16.0299 21.54 15.0371C21.7027 14.8988 21.8818 14.793 22.0771 14.7197C22.3375 14.6628 22.602 14.6872 22.8705 14.793C23.3507 14.972 23.4524 15.2812 23.1757 15.7207C23.0618 15.8753 22.9275 16.0096 22.7729 16.1235C22.7566 16.1398 22.7363 16.1561 22.7119 16.1724C21.9143 16.8641 21.2613 17.686 20.7526 18.6382C20.244 19.5903 19.9368 20.5913 19.831 21.6411C19.831 21.6655 19.8656 21.6574 19.9348 21.6167C20.0039 21.576 20.0873 21.5211 20.185 21.4519C20.2827 21.3827 20.3701 21.3197 20.4474 21.2627C20.5248 21.2057 20.5675 21.1691 20.5756 21.1528C20.9174 20.8761 21.3609 20.6686 21.9062 20.5303C22.4514 20.3919 22.9824 20.3777 23.4992 20.4875C24.016 20.5974 24.4086 20.8843 24.6772 21.3481C25.0353 22.1375 25.0231 22.9493 24.6406 23.7834C24.2581 24.6176 23.6843 25.3053 22.9194 25.8464ZM19.6662 25.1018C19.7598 25.2442 19.9164 25.3154 20.1362 25.3154C20.3884 25.3154 20.6326 25.2747 20.8686 25.1934C21.658 24.9248 22.2887 24.4569 22.7607 23.7896C22.9479 23.521 23.1106 23.2423 23.249 22.9534C23.3873 22.6645 23.4565 22.3695 23.4565 22.0684V21.8853C23.4565 21.5679 23.3222 21.4621 23.0537 21.5679C22.8746 21.6411 22.6996 21.7266 22.5287 21.8242C21.6417 22.3369 20.8645 22.9839 20.1972 23.7651C19.9856 24.0174 19.8066 24.2941 19.6601 24.5952C19.5706 24.7905 19.5726 24.9594 19.6662 25.1018Z" fill="#393A36"/>
<path fill-rule="evenodd" clip-rule="evenodd" d="M115.919 154.846C115.154 155.388 114.373 155.618 113.576 155.536C112.689 155.382 112.06 154.977 111.69 154.322C111.319 153.666 111.122 152.92 111.098 152.082C111.032 150.535 111.295 149.056 111.885 147.644C112.475 146.232 113.36 145.03 114.54 144.037C114.703 143.899 114.882 143.793 115.077 143.72C115.338 143.663 115.602 143.687 115.871 143.793C116.351 143.972 116.452 144.281 116.176 144.721C116.062 144.875 115.928 145.01 115.773 145.124C115.757 145.14 115.736 145.156 115.712 145.172C114.914 145.864 114.261 146.686 113.753 147.638C113.244 148.59 112.937 149.591 112.831 150.641C112.831 150.666 112.866 150.657 112.935 150.617C113.004 150.576 113.087 150.521 113.185 150.452C113.283 150.383 113.37 150.32 113.447 150.263C113.525 150.206 113.567 150.169 113.576 150.153C113.917 149.876 114.361 149.669 114.906 149.53C115.451 149.392 115.982 149.378 116.499 149.488C117.016 149.597 117.409 149.884 117.677 150.348C118.035 151.138 118.023 151.949 117.641 152.783C117.258 153.618 116.684 154.305 115.919 154.846ZM112.666 154.102C112.76 154.244 112.916 154.315 113.136 154.315C113.388 154.315 113.633 154.275 113.869 154.193C114.658 153.925 115.289 153.457 115.761 152.79C115.948 152.521 116.111 152.242 116.249 151.953C116.387 151.664 116.456 151.369 116.456 151.068V150.885C116.456 150.568 116.322 150.462 116.054 150.568C115.875 150.641 115.7 150.727 115.529 150.824C114.642 151.337 113.865 151.984 113.197 152.765C112.986 153.017 112.807 153.294 112.66 153.595C112.571 153.791 112.573 153.959 112.666 154.102Z" fill="#393A36"/>
<defs>
<filter id="filter0_d" x="0" y="0" width="133" height="177" filterUnits="userSpaceOnUse" color-interpolation-filters="sRGB">
<feFlood flood-opacity="0" result="BackgroundImageFix"/>
<feColorMatrix in="SourceAlpha" type="matrix" values="0 0 0 0 0 0 0 0 0 0 0 0 0 0 0 0 0 0 127 0"/>
<feOffset dx="-2" dy="2"/>
<feGaussianBlur stdDeviation="2"/>
<feColorMatrix type="matrix" values="0 0 0 0 0 0 0 0 0 0 0 0 0 0 0 0 0 0 0.247159 0"/>
<feBlend mode="normal" in2="BackgroundImageFix" result="effect1_dropShadow"/>
<feBlend mode="normal" in="SourceGraphic" in2="effect1_dropShadow" result="shape"/>
</filter>
</defs>
</svg>
