<svg width="133" height="177" viewBox="0 0 133 177" fill="none" xmlns="http://www.w3.org/2000/svg">
<g filter="url(#filter0_d)">
<rect x="6" y="2" width="125" height="169" rx="8" fill="#E4D8F1"/>
</g>
<path fill-rule="evenodd" clip-rule="evenodd" d="M69.6274 36C61.0051 57.7227 47.79 74.5346 30 85.5C47.5348 94.7611 61.0844 109.996 70.1048 135C78.1121 116.137 90.5239 99.6593 109 85.5C89.0014 72.9019 78.9227 54.927 69.6274 36Z" fill="#F2416F"/>
<path fill-rule="evenodd" clip-rule="evenodd" d="M22.521 32C21.1021 35.5107 18.9275 38.2278 16 40C18.8855 41.4968 21.1152 43.959 22.5995 48C23.9172 44.9514 25.9596 42.2884 29 40C25.7091 37.9639 24.0506 35.0589 22.521 32Z" fill="#F2416F"/>
<path d="M24.1035 14.9873C24.8278 15.1663 25.2754 15.5528 25.4463 16.1469C25.6253 16.741 25.5643 17.3351 25.2632 17.9291C24.9865 18.4581 24.7098 18.983 24.4331 19.5039C23.7088 20.8548 23.0008 22.2097 22.3091 23.5688C21.8208 24.5372 21.3529 25.5138 20.9053 26.4985C20.8646 26.5961 20.8158 26.7223 20.7588 26.8769C20.6774 27.1292 20.5757 27.3855 20.4536 27.6459C20.3397 27.9064 20.1932 28.0976 20.0142 28.2197C19.8351 28.3499 19.6195 28.3417 19.3672 28.1953C19.1475 28.0325 19.005 27.8168 18.9399 27.5483C18.8423 27.06 18.8667 26.5717 19.0132 26.0834C19.3143 24.8709 19.77 23.7275 20.3804 22.6533C20.4455 22.5556 20.4943 22.4539 20.5269 22.3481C20.5675 22.2423 20.5716 22.1365 20.5391 22.0307C20.4902 21.9331 20.4211 21.8476 20.3315 21.7744C20.3153 21.7662 20.3031 21.754 20.2949 21.7377C19.9043 21.3553 19.6764 20.8995 19.6113 20.3706C19.8473 20.3136 20.0874 20.281 20.3315 20.2729C20.5838 20.2729 20.828 20.2444 21.064 20.1874C21.6336 20.0003 22.069 19.6422 22.3701 19.1132C22.4027 19.0644 22.4393 18.9789 22.48 18.8569C22.5288 18.7267 22.5858 18.5761 22.6509 18.4052C22.7567 18.0878 22.8665 17.7867 22.9805 17.5019C23.0944 17.2171 23.188 17.0584 23.2612 17.0258C22.6753 17.1153 22.0934 17.2008 21.5156 17.2822C21.0192 17.3554 20.5269 17.4287 20.0386 17.5019C19.6235 17.5996 19.2288 17.5833 18.8545 17.4531C18.5615 17.3066 18.3459 17.0828 18.2075 16.7817C18.0773 16.4806 18.0081 16.1713 18 15.8539C18 15.8214 18.0041 15.7888 18.0122 15.7563C18.0203 15.7156 18.0326 15.6831 18.0488 15.6586C18.0732 15.6261 18.1058 15.6057 18.1465 15.5976C18.1872 15.5813 18.2279 15.5732 18.2686 15.5732C19.7822 15.386 21.2959 15.1988 22.8096 15.0117C23.2409 14.9303 23.6722 14.9221 24.1035 14.9873Z" fill="#F2416F"/>
<path d="M117.104 146.987C117.828 147.166 118.275 147.553 118.446 148.147C118.625 148.741 118.564 149.335 118.263 149.929C117.986 150.458 117.71 150.983 117.433 151.504C116.709 152.855 116.001 154.21 115.309 155.569C114.821 156.537 114.353 157.514 113.905 158.498C113.865 158.596 113.816 158.722 113.759 158.877C113.677 159.129 113.576 159.386 113.454 159.646C113.34 159.906 113.193 160.098 113.014 160.22C112.835 160.35 112.619 160.342 112.367 160.195C112.147 160.032 112.005 159.817 111.94 159.548C111.842 159.06 111.867 158.572 112.013 158.083C112.314 156.871 112.77 155.727 113.38 154.653C113.445 154.556 113.494 154.454 113.527 154.348C113.568 154.242 113.572 154.137 113.539 154.031C113.49 153.933 113.421 153.848 113.332 153.774C113.315 153.766 113.303 153.754 113.295 153.738C112.904 153.355 112.676 152.9 112.611 152.371C112.847 152.314 113.087 152.281 113.332 152.273C113.584 152.273 113.828 152.244 114.064 152.187C114.634 152 115.069 151.642 115.37 151.113C115.403 151.064 115.439 150.979 115.48 150.857C115.529 150.727 115.586 150.576 115.651 150.405C115.757 150.088 115.867 149.787 115.98 149.502C116.094 149.217 116.188 149.058 116.261 149.026C115.675 149.115 115.093 149.201 114.516 149.282C114.019 149.355 113.527 149.429 113.039 149.502C112.624 149.6 112.229 149.583 111.854 149.453C111.562 149.307 111.346 149.083 111.208 148.782C111.077 148.481 111.008 148.171 111 147.854C111 147.821 111.004 147.789 111.012 147.756C111.02 147.716 111.033 147.683 111.049 147.659C111.073 147.626 111.106 147.606 111.146 147.598C111.187 147.581 111.228 147.573 111.269 147.573C112.782 147.386 114.296 147.199 115.81 147.012C116.241 146.93 116.672 146.922 117.104 146.987Z" fill="#F2416F"/>
<defs>
<filter id="filter0_d" x="0" y="0" width="133" height="177" filterUnits="userSpaceOnUse" color-interpolation-filters="sRGB">
<feFlood flood-opacity="0" result="BackgroundImageFix"/>
<feColorMatrix in="SourceAlpha" type="matrix" values="0 0 0 0 0 0 0 0 0 0 0 0 0 0 0 0 0 0 127 0"/>
<feOffset dx="-2" dy="2"/>
<feGaussianBlur stdDeviation="2"/>
<feColorMatrix type="matrix" values="0 0 0 0 0 0 0 0 0 0 0 0 0 0 0 0 0 0 0.247159 0"/>
<feBlend mode="normal" in2="BackgroundImageFix" result="effect1_dropShadow"/>
<feBlend mode="normal" in="SourceGraphic" in2="effect1_dropShadow" result="shape"/>
</filter>
</defs>
</svg>
