<svg width="133" height="177" viewBox="0 0 133 177" fill="none" xmlns="http://www.w3.org/2000/svg">
<g filter="url(#filter0_d)">
<rect x="6" y="2" width="125" height="169" rx="8" fill="#E4D8F1"/>
</g>
<path fill-rule="evenodd" clip-rule="evenodd" d="M21.898 42.8938C10.1094 42.5703 21.8831 33 21.8831 33C21.8831 33 33.8711 42.2635 22.3648 42.8775C22.3636 43.4519 23.1583 43.91 23.1583 43.91C22.6455 44.858 22.0269 45.1108 20.7505 44.959C21.3955 44.521 22.0007 43.5701 21.898 42.8938Z" fill="#393A36" stroke="#393A36"/>
<path fill-rule="evenodd" clip-rule="evenodd" d="M67.5715 112.539C-9.52288 110.396 67.4743 47 67.4743 47C67.4743 47 145.873 108.364 70.6241 112.431C70.6166 116.236 75.8138 119.271 75.8138 119.271C72.4598 125.551 68.4144 127.225 60.0669 126.22C64.2851 123.318 68.2432 117.019 67.5715 112.539Z" fill="#393A36" stroke="#393A36"/>
<path d="M19.3672 27.1953C19.6195 27.3417 19.8351 27.3519 20.0142 27.2258C20.1932 27.0996 20.3417 26.9064 20.4597 26.6459C20.5777 26.3855 20.6774 26.1292 20.7588 25.8769C20.8158 25.7223 20.8646 25.5961 20.9053 25.4985C21.3529 24.5138 21.8208 23.5372 22.3091 22.5688C23.0008 21.2097 23.7088 19.8548 24.4331 18.5039C24.7098 17.983 24.9865 17.4581 25.2632 16.9291C25.5643 16.3351 25.6274 15.741 25.4524 15.1469C25.2774 14.5528 24.8278 14.1663 24.1035 13.9873C23.6722 13.9221 23.2409 13.9303 22.8096 14.0117L18.2686 14.5732C18.2279 14.5732 18.1872 14.5793 18.1465 14.5915C18.1058 14.6037 18.0732 14.6261 18.0488 14.6586C18.0326 14.6831 18.0203 14.7136 18.0122 14.7502C18.0041 14.7868 18 14.8214 18 14.8539C18.0081 15.1713 18.0793 15.4806 18.2136 15.7817C18.3479 16.0828 18.5615 16.3066 18.8545 16.4531C19.2288 16.5833 19.6235 16.5996 20.0386 16.5019C20.5269 16.4287 21.0192 16.3554 21.5156 16.2822C22.0934 16.2008 22.6753 16.1153 23.2612 16.0258C23.188 16.0584 23.0944 16.2171 22.9805 16.5019C22.8665 16.7867 22.7567 17.0878 22.6509 17.4052C22.5858 17.5761 22.5308 17.7246 22.4861 17.8508C22.4413 17.9769 22.4027 18.0644 22.3701 18.1132C22.069 18.6422 21.6336 19.0003 21.064 19.1874C20.828 19.2444 20.5838 19.2729 20.3315 19.2729C20.0874 19.281 19.8473 19.3136 19.6113 19.3706C19.6764 19.8995 19.9043 20.3553 20.2949 20.7377C20.3031 20.754 20.3153 20.7662 20.3315 20.7744C20.4211 20.8476 20.4902 20.9331 20.5391 21.0307C20.5716 21.1365 20.5696 21.2423 20.533 21.3481C20.4963 21.4539 20.4455 21.5556 20.3804 21.6533C19.77 22.7275 19.3143 23.8709 19.0132 25.0834C18.8667 25.5717 18.8423 26.06 18.9399 26.5483C19.005 26.8168 19.1475 27.0325 19.3672 27.1953Z" fill="#393A36"/>
<path d="M111.367 156.195C111.619 156.342 111.835 156.352 112.014 156.226C112.193 156.1 112.342 155.906 112.46 155.646C112.578 155.386 112.677 155.129 112.759 154.877C112.816 154.722 112.865 154.596 112.905 154.498C113.353 153.514 113.821 152.537 114.309 151.569C115.001 150.21 115.709 148.855 116.433 147.504C116.71 146.983 116.986 146.458 117.263 145.929C117.564 145.335 117.627 144.741 117.452 144.147C117.277 143.553 116.828 143.166 116.104 142.987C115.672 142.922 115.241 142.93 114.81 143.012L110.269 143.573C110.228 143.573 110.187 143.579 110.146 143.591C110.106 143.604 110.073 143.626 110.049 143.659C110.033 143.683 110.02 143.714 110.012 143.75C110.004 143.787 110 143.821 110 143.854C110.008 144.171 110.079 144.481 110.214 144.782C110.348 145.083 110.562 145.307 110.854 145.453C111.229 145.583 111.624 145.6 112.039 145.502C112.527 145.429 113.019 145.355 113.516 145.282C114.093 145.201 114.675 145.115 115.261 145.026C115.188 145.058 115.094 145.217 114.98 145.502C114.867 145.787 114.757 146.088 114.651 146.405C114.586 146.576 114.531 146.725 114.486 146.851C114.441 146.977 114.403 147.064 114.37 147.113C114.069 147.642 113.634 148 113.064 148.187C112.828 148.244 112.584 148.273 112.332 148.273C112.087 148.281 111.847 148.314 111.611 148.371C111.676 148.9 111.904 149.355 112.295 149.738C112.303 149.754 112.315 149.766 112.332 149.774C112.421 149.848 112.49 149.933 112.539 150.031C112.572 150.137 112.57 150.242 112.533 150.348C112.496 150.454 112.445 150.556 112.38 150.653C111.77 151.727 111.314 152.871 111.013 154.083C110.867 154.572 110.842 155.06 110.94 155.548C111.005 155.817 111.147 156.032 111.367 156.195Z" fill="#393A36"/>
<defs>
<filter id="filter0_d" x="0" y="0" width="133" height="177" filterUnits="userSpaceOnUse" color-interpolation-filters="sRGB">
<feFlood flood-opacity="0" result="BackgroundImageFix"/>
<feColorMatrix in="SourceAlpha" type="matrix" values="0 0 0 0 0 0 0 0 0 0 0 0 0 0 0 0 0 0 127 0"/>
<feOffset dx="-2" dy="2"/>
<feGaussianBlur stdDeviation="2"/>
<feColorMatrix type="matrix" values="0 0 0 0 0 0 0 0 0 0 0 0 0 0 0 0 0 0 0.247159 0"/>
<feBlend mode="normal" in2="BackgroundImageFix" result="effect1_dropShadow"/>
<feBlend mode="normal" in="SourceGraphic" in2="effect1_dropShadow" result="shape"/>
</filter>
</defs>
</svg>
