<svg width="133" height="177" viewBox="0 0 133 177" fill="none" xmlns="http://www.w3.org/2000/svg">
<g filter="url(#filter0_d)">
<rect x="6" y="2" width="125" height="169" rx="8" fill="#E4D8F1"/>
</g>
<path fill-rule="evenodd" clip-rule="evenodd" d="M66.5 89C78.9264 89 89 79.1503 89 67C89 54.8497 78.9264 45 66.5 45C54.0736 45 44 54.8497 44 67C44 79.1503 54.0736 89 66.5 89Z" fill="#393A36"/>
<path fill-rule="evenodd" clip-rule="evenodd" d="M89.5 118C101.926 118 112 108.15 112 96C112 83.8497 101.926 74 89.5 74C77.0736 74 67 83.8497 67 96C67 108.15 77.0736 118 89.5 118Z" fill="#393A36"/>
<path fill-rule="evenodd" clip-rule="evenodd" d="M47.5 120C59.9264 120 70 110.15 70 98C70 85.8497 59.9264 76 47.5 76C35.0736 76 25 85.8497 25 98C25 110.15 35.0736 120 47.5 120Z" fill="#393A36"/>
<path fill-rule="evenodd" clip-rule="evenodd" d="M62.5072 107.281C67.7919 110.072 69.9646 116.399 59 130C65.1676 128.982 72.4726 127.23 76 120.426C69.1582 117.344 71.1763 107.92 71.0945 100L62.5072 107.281Z" fill="#393A36" stroke="#393A36"/>
<path fill-rule="evenodd" clip-rule="evenodd" d="M21 39C22.6569 39 24 37.6569 24 36C24 34.3431 22.6569 33 21 33C19.3431 33 18 34.3431 18 36C18 37.6569 19.3431 39 21 39Z" fill="#393A36"/>
<path fill-rule="evenodd" clip-rule="evenodd" d="M24 42C25.6569 42 27 40.6569 27 39C27 37.3431 25.6569 36 24 36C22.3431 36 21 37.3431 21 39C21 40.6569 22.3431 42 24 42Z" fill="#393A36"/>
<path fill-rule="evenodd" clip-rule="evenodd" d="M19 42C20.6569 42 22 40.6569 22 39C22 37.3431 20.6569 36 19 36C17.3431 36 16 37.3431 16 39C16 40.6569 17.3431 42 19 42Z" fill="#393A36"/>
<path fill-rule="evenodd" clip-rule="evenodd" d="M20.6189 41.2135C21.5515 41.6787 21.9349 42.7332 20 45C21.0884 44.8303 22.3775 44.5384 23 43.4043C21.7926 42.8906 22.1488 41.3201 22.1343 40L20.6189 41.2135Z" fill="#393A36" stroke="#393A36"/>
<path d="M25.8979 17.8447C25.6619 18.3167 25.3649 18.744 25.0068 19.1265C24.6569 19.509 24.2826 19.8752 23.8838 20.2251C23.4688 20.5913 23.0781 20.9738 22.7119 21.3726C22.6387 21.4621 22.5858 21.5312 22.5532 21.5801C22.5288 21.6208 22.5207 21.6655 22.5288 21.7144C22.5451 21.7632 22.5736 21.8324 22.6143 21.9219C22.6224 21.9219 22.6265 21.9259 22.6265 21.9341C22.7648 22.2433 22.9561 22.5119 23.2002 22.7397C23.7048 23.2443 23.9408 23.8465 23.9082 24.5464C23.8919 25.4823 23.599 26.2798 23.0293 26.939C22.4678 27.59 21.7028 27.9399 20.7344 27.9888C20.181 28.005 19.652 27.8341 19.1475 27.4761C18.5941 27.0366 18.2645 26.4995 18.1587 25.8647C18.0529 25.23 18.1506 24.6034 18.4517 23.9849C18.8586 23.228 19.3468 22.5241 19.9165 21.873C20.0467 21.7021 20.181 21.5353 20.3193 21.3726C20.4333 21.2424 20.5065 21.0999 20.5391 20.9453C20.5635 20.807 20.5391 20.6768 20.4658 20.5547C20.4007 20.4326 20.3234 20.3146 20.2339 20.2007C20.2257 20.1844 20.2176 20.1722 20.2095 20.1641C19.5747 19.277 19.2817 18.2842 19.3306 17.1855C19.3875 16.0869 19.7741 15.1266 20.4902 14.3047C20.7913 13.9792 21.1372 13.735 21.5278 13.5723C21.9185 13.4014 22.3376 13.3485 22.7852 13.4136C23.2409 13.5112 23.6722 13.6862 24.0791 13.9385C24.8197 14.3535 25.3934 14.9028 25.8003 15.5864C26.2153 16.2619 26.2479 17.0146 25.8979 17.8447ZM22.3213 24.9248C22.5003 24.5016 22.5654 24.0622 22.5166 23.6064C22.4678 23.1426 22.2684 22.752 21.9185 22.4346C21.8778 22.4102 21.8005 22.459 21.6865 22.5811C21.5807 22.7031 21.4587 22.8537 21.3203 23.0327C21.1901 23.2036 21.0721 23.3664 20.9663 23.521C20.8605 23.6675 20.7913 23.7611 20.7588 23.8018C20.2868 24.4935 19.9491 25.2463 19.7456 26.0601C19.6968 26.2961 19.709 26.4588 19.7822 26.5483C19.9938 26.7925 20.2827 26.8088 20.6489 26.5972C21.0233 26.3856 21.3732 26.1007 21.6987 25.7427C22.0243 25.3846 22.2318 25.112 22.3213 24.9248ZM22.187 18.9434C22.6427 18.4469 23.07 17.9302 23.4688 17.3931C23.7454 17.0269 24.0059 16.6525 24.25 16.27C24.3232 16.1642 24.3761 16.0544 24.4087 15.9404C24.4412 15.8184 24.4209 15.7126 24.3477 15.623C24.2988 15.5661 24.2378 15.5335 24.1646 15.5254C24.0913 15.5091 24.0181 15.501 23.9448 15.501C23.8879 15.501 23.8309 15.4969 23.7739 15.4888C23.6274 15.4644 23.5094 15.4074 23.4199 15.3179C23.3385 15.2284 23.2694 15.1348 23.2124 15.0371C23.1473 14.8988 23.0659 14.8092 22.9683 14.7686C22.8706 14.7279 22.716 14.793 22.5044 14.9639C22.0894 15.3219 21.7476 15.741 21.479 16.2212C20.9826 17.1408 20.7913 18.1214 20.9053 19.1631C20.946 19.4642 21.0477 19.6107 21.2104 19.6025C21.3732 19.5944 21.5482 19.5171 21.7354 19.3706C21.9225 19.2241 22.0731 19.0817 22.187 18.9434Z" fill="#393A36"/>
<path d="M116.898 146.845C116.662 147.317 116.365 147.744 116.007 148.126C115.657 148.509 115.283 148.875 114.884 149.225C114.469 149.591 114.078 149.974 113.712 150.373C113.639 150.462 113.586 150.531 113.553 150.58C113.529 150.621 113.521 150.666 113.529 150.714C113.545 150.763 113.574 150.832 113.614 150.922C113.622 150.922 113.626 150.926 113.626 150.934C113.765 151.243 113.956 151.512 114.2 151.74C114.705 152.244 114.941 152.847 114.908 153.546C114.892 154.482 114.599 155.28 114.029 155.939C113.468 156.59 112.703 156.94 111.734 156.989C111.181 157.005 110.652 156.834 110.147 156.476C109.594 156.037 109.264 155.5 109.159 154.865C109.053 154.23 109.151 153.603 109.452 152.985C109.859 152.228 110.347 151.524 110.917 150.873C111.047 150.702 111.181 150.535 111.319 150.373C111.433 150.242 111.507 150.1 111.539 149.945C111.563 149.807 111.539 149.677 111.466 149.555C111.401 149.433 111.323 149.315 111.234 149.201C111.226 149.184 111.218 149.172 111.209 149.164C110.575 148.277 110.282 147.284 110.331 146.186C110.388 145.087 110.774 144.127 111.49 143.305C111.791 142.979 112.137 142.735 112.528 142.572C112.918 142.401 113.338 142.348 113.785 142.414C114.241 142.511 114.672 142.686 115.079 142.938C115.82 143.354 116.393 143.903 116.8 144.586C117.215 145.262 117.248 146.015 116.898 146.845ZM113.321 153.925C113.5 153.502 113.565 153.062 113.517 152.606C113.468 152.143 113.268 151.752 112.918 151.435C112.878 151.41 112.8 151.459 112.687 151.581C112.581 151.703 112.459 151.854 112.32 152.033C112.19 152.204 112.072 152.366 111.966 152.521C111.861 152.667 111.791 152.761 111.759 152.802C111.287 153.493 110.949 154.246 110.746 155.06C110.697 155.296 110.709 155.459 110.782 155.548C110.994 155.792 111.283 155.809 111.649 155.597C112.023 155.386 112.373 155.101 112.699 154.743C113.024 154.385 113.232 154.112 113.321 153.925ZM113.187 147.943C113.643 147.447 114.07 146.93 114.469 146.393C114.745 146.027 115.006 145.653 115.25 145.27C115.323 145.164 115.376 145.054 115.409 144.94C115.441 144.818 115.421 144.713 115.348 144.623C115.299 144.566 115.238 144.534 115.165 144.525C115.091 144.509 115.018 144.501 114.945 144.501C114.888 144.501 114.831 144.497 114.774 144.489C114.627 144.464 114.509 144.407 114.42 144.318C114.339 144.228 114.269 144.135 114.212 144.037C114.147 143.899 114.066 143.809 113.968 143.769C113.871 143.728 113.716 143.793 113.504 143.964C113.089 144.322 112.748 144.741 112.479 145.221C111.983 146.141 111.791 147.121 111.905 148.163C111.946 148.464 112.048 148.611 112.21 148.603C112.373 148.594 112.548 148.517 112.735 148.371C112.923 148.224 113.073 148.082 113.187 147.943Z" fill="#393A36"/>
<defs>
<filter id="filter0_d" x="0" y="0" width="133" height="177" filterUnits="userSpaceOnUse" color-interpolation-filters="sRGB">
<feFlood flood-opacity="0" result="BackgroundImageFix"/>
<feColorMatrix in="SourceAlpha" type="matrix" values="0 0 0 0 0 0 0 0 0 0 0 0 0 0 0 0 0 0 127 0"/>
<feOffset dx="-2" dy="2"/>
<feGaussianBlur stdDeviation="2"/>
<feColorMatrix type="matrix" values="0 0 0 0 0 0 0 0 0 0 0 0 0 0 0 0 0 0 0.247159 0"/>
<feBlend mode="normal" in2="BackgroundImageFix" result="effect1_dropShadow"/>
<feBlend mode="normal" in="SourceGraphic" in2="effect1_dropShadow" result="shape"/>
</filter>
</defs>
</svg>
