<svg width="133" height="177" viewBox="0 0 133 177" fill="none" xmlns="http://www.w3.org/2000/svg">
<g filter="url(#filter0_d)">
<rect x="6" y="2" width="125" height="169" rx="8" fill="#E4D8F1"/>
</g>
<path fill-rule="evenodd" clip-rule="evenodd" d="M21.898 42.8938C10.1094 42.5703 21.8831 33 21.8831 33C21.8831 33 33.8711 42.2635 22.3648 42.8775C22.3636 43.4519 23.1583 43.91 23.1583 43.91C22.6455 44.858 22.0269 45.1108 20.7505 44.959C21.3955 44.521 22.0007 43.5701 21.898 42.8938Z" fill="#393A36" stroke="#393A36"/>
<path fill-rule="evenodd" clip-rule="evenodd" d="M67.5715 112.539C-9.52288 110.396 67.4743 47 67.4743 47C67.4743 47 145.873 108.364 70.6241 112.431C70.6166 116.236 75.8138 119.271 75.8138 119.271C72.4598 125.551 68.4144 127.225 60.0669 126.22C64.2851 123.318 68.2432 117.019 67.5715 112.539Z" fill="#393A36" stroke="#393A36"/>
<path fill-rule="evenodd" clip-rule="evenodd" d="M20.7344 27.9887C21.7028 27.9399 22.4698 27.5879 23.0354 26.9328C23.601 26.2777 23.8919 25.4822 23.9082 24.5463C23.9408 23.8465 23.7048 23.2443 23.2002 22.7397C22.9561 22.5118 22.7648 22.2433 22.6265 21.934C22.6265 21.9259 22.6224 21.9218 22.6143 21.9218C22.5736 21.8323 22.5471 21.7631 22.5349 21.7143C22.5227 21.6655 22.5308 21.6187 22.5593 21.5739C22.5878 21.5292 22.6387 21.462 22.7119 21.3725C23.0781 20.9737 23.4688 20.5913 23.8838 20.225C24.2826 19.8751 24.6589 19.5089 25.0129 19.1264C25.3669 18.7439 25.6619 18.3167 25.8979 17.8447C26.2479 17.0146 26.2174 16.2598 25.8064 15.5803C25.3954 14.9007 24.8197 14.3535 24.0791 13.9384C23.6722 13.6861 23.2409 13.5112 22.7852 13.4135C22.3376 13.3484 21.9185 13.3993 21.5278 13.5661C21.1372 13.7329 20.7913 13.9791 20.4902 14.3046C19.7741 15.1266 19.3896 16.0869 19.3367 17.1855C19.2838 18.2841 19.5747 19.277 20.2095 20.164C20.2176 20.1721 20.2257 20.1844 20.2339 20.2006C20.3234 20.3146 20.4028 20.4326 20.4719 20.5546C20.5411 20.6767 20.5635 20.8069 20.5391 20.9453C20.5065 21.0999 20.4333 21.2423 20.3193 21.3725C20.181 21.5353 20.0467 21.7021 19.9165 21.873C19.3468 22.524 18.8586 23.228 18.4517 23.9848C18.1506 24.6033 18.0529 25.2299 18.1587 25.8647C18.2645 26.4995 18.5941 27.0366 19.1475 27.476C19.652 27.8341 20.181 28.005 20.7344 27.9887ZM21.2104 19.6025C21.0477 19.6106 20.946 19.4641 20.9053 19.163C20.7913 18.1214 20.9826 17.1407 21.479 16.2211C21.7476 15.741 22.0894 15.3219 22.5044 14.9638C22.716 14.7929 22.8706 14.7278 22.9683 14.7685C23.0659 14.8092 23.1473 14.8987 23.2124 15.0371C23.2694 15.1347 23.3406 15.2283 23.426 15.3178C23.5115 15.4073 23.6274 15.4643 23.7739 15.4887C23.8309 15.4969 23.8879 15.5009 23.9448 15.5009C24.0181 15.5009 24.0913 15.507 24.1646 15.5192C24.2378 15.5314 24.2988 15.566 24.3477 15.623C24.4209 15.7125 24.4412 15.8163 24.4087 15.9343C24.3761 16.0523 24.3232 16.1642 24.25 16.27C24.0059 16.6525 23.7454 17.0268 23.4688 17.393C23.07 17.9301 22.6427 18.4469 22.187 18.9433C22.0731 19.0817 21.9225 19.2241 21.7354 19.3706C21.5482 19.517 21.3732 19.5943 21.2104 19.6025ZM19.7822 26.5483C19.9938 26.7924 20.2847 26.8087 20.655 26.5971C21.0253 26.3855 21.3732 26.1007 21.6987 25.7426C22.0243 25.3845 22.2318 25.1119 22.3213 24.9248C22.5003 24.5016 22.5654 24.0601 22.5166 23.6003C22.4678 23.1405 22.2684 22.7519 21.9185 22.4345C21.8778 22.4101 21.8025 22.4589 21.6926 22.581C21.5828 22.7031 21.4607 22.8516 21.3264 23.0266C21.1921 23.2015 21.0721 23.3643 20.9663 23.5148C20.8605 23.6654 20.7913 23.761 20.7588 23.8017C20.2868 24.4934 19.9491 25.2462 19.7456 26.06C19.6968 26.296 19.709 26.4588 19.7822 26.5483Z" fill="#393A36"/>
<path fill-rule="evenodd" clip-rule="evenodd" d="M111.734 156.989C112.703 156.94 113.47 156.588 114.035 155.933C114.601 155.278 114.892 154.482 114.908 153.546C114.941 152.847 114.705 152.244 114.2 151.74C113.956 151.512 113.765 151.243 113.626 150.934C113.626 150.926 113.622 150.922 113.614 150.922C113.574 150.832 113.547 150.763 113.535 150.714C113.523 150.666 113.531 150.619 113.559 150.574C113.588 150.529 113.639 150.462 113.712 150.373C114.078 149.974 114.469 149.591 114.884 149.225C115.283 148.875 115.659 148.509 116.013 148.127C116.367 147.744 116.662 147.317 116.898 146.845C117.248 146.015 117.217 145.26 116.806 144.58C116.395 143.901 115.82 143.354 115.079 142.939C114.672 142.686 114.241 142.511 113.785 142.414C113.338 142.349 112.918 142.399 112.528 142.566C112.137 142.733 111.791 142.979 111.49 143.305C110.774 144.127 110.39 145.087 110.337 146.186C110.284 147.284 110.575 148.277 111.209 149.164C111.218 149.172 111.226 149.184 111.234 149.201C111.323 149.315 111.403 149.433 111.472 149.555C111.541 149.677 111.563 149.807 111.539 149.945C111.507 150.1 111.433 150.242 111.319 150.373C111.181 150.535 111.047 150.702 110.917 150.873C110.347 151.524 109.859 152.228 109.452 152.985C109.151 153.603 109.053 154.23 109.159 154.865C109.264 155.5 109.594 156.037 110.147 156.476C110.652 156.834 111.181 157.005 111.734 156.989ZM112.21 148.603C112.048 148.611 111.946 148.464 111.905 148.163C111.791 147.121 111.983 146.141 112.479 145.221C112.748 144.741 113.089 144.322 113.504 143.964C113.716 143.793 113.871 143.728 113.968 143.769C114.066 143.809 114.147 143.899 114.212 144.037C114.269 144.135 114.341 144.228 114.426 144.318C114.511 144.407 114.627 144.464 114.774 144.489C114.831 144.497 114.888 144.501 114.945 144.501C115.018 144.501 115.091 144.507 115.165 144.519C115.238 144.532 115.299 144.566 115.348 144.623C115.421 144.713 115.441 144.816 115.409 144.934C115.376 145.052 115.323 145.164 115.25 145.27C115.006 145.653 114.745 146.027 114.469 146.393C114.07 146.93 113.643 147.447 113.187 147.943C113.073 148.082 112.923 148.224 112.735 148.371C112.548 148.517 112.373 148.594 112.21 148.603ZM110.782 155.548C110.994 155.793 111.285 155.809 111.655 155.597C112.025 155.386 112.373 155.101 112.699 154.743C113.024 154.385 113.232 154.112 113.321 153.925C113.5 153.502 113.565 153.06 113.517 152.6C113.468 152.141 113.268 151.752 112.918 151.435C112.878 151.41 112.802 151.459 112.693 151.581C112.583 151.703 112.461 151.852 112.326 152.027C112.192 152.202 112.072 152.364 111.966 152.515C111.861 152.666 111.791 152.761 111.759 152.802C111.287 153.494 110.949 154.246 110.746 155.06C110.697 155.296 110.709 155.459 110.782 155.548Z" fill="#393A36"/>
<defs>
<filter id="filter0_d" x="0" y="0" width="133" height="177" filterUnits="userSpaceOnUse" color-interpolation-filters="sRGB">
<feFlood flood-opacity="0" result="BackgroundImageFix"/>
<feColorMatrix in="SourceAlpha" type="matrix" values="0 0 0 0 0 0 0 0 0 0 0 0 0 0 0 0 0 0 127 0"/>
<feOffset dx="-2" dy="2"/>
<feGaussianBlur stdDeviation="2"/>
<feColorMatrix type="matrix" values="0 0 0 0 0 0 0 0 0 0 0 0 0 0 0 0 0 0 0.247159 0"/>
<feBlend mode="normal" in2="BackgroundImageFix" result="effect1_dropShadow"/>
<feBlend mode="normal" in="SourceGraphic" in2="effect1_dropShadow" result="shape"/>
</filter>
</defs>
</svg>
