<svg width="133" height="177" viewBox="0 0 133 177" fill="none" xmlns="http://www.w3.org/2000/svg">
<g filter="url(#filter0_d)">
<rect x="6" y="2" width="125" height="169" rx="8" fill="#E4D8F1"/>
</g>
<path fill-rule="evenodd" clip-rule="evenodd" d="M66.5 89C78.9264 89 89 79.1503 89 67C89 54.8497 78.9264 45 66.5 45C54.0736 45 44 54.8497 44 67C44 79.1503 54.0736 89 66.5 89Z" fill="#393A36"/>
<path fill-rule="evenodd" clip-rule="evenodd" d="M89.5 118C101.926 118 112 108.15 112 96C112 83.8497 101.926 74 89.5 74C77.0736 74 67 83.8497 67 96C67 108.15 77.0736 118 89.5 118Z" fill="#393A36"/>
<path fill-rule="evenodd" clip-rule="evenodd" d="M47.5 120C59.9264 120 70 110.15 70 98C70 85.8497 59.9264 76 47.5 76C35.0736 76 25 85.8497 25 98C25 110.15 35.0736 120 47.5 120Z" fill="#393A36"/>
<path fill-rule="evenodd" clip-rule="evenodd" d="M62.5072 107.281C67.7919 110.072 69.9646 116.399 59 130C65.1676 128.982 72.4726 127.23 76 120.426C69.1582 117.344 71.1763 107.92 71.0945 100L62.5072 107.281Z" fill="#393A36" stroke="#393A36"/>
<path fill-rule="evenodd" clip-rule="evenodd" d="M21 39C22.6569 39 24 37.6569 24 36C24 34.3431 22.6569 33 21 33C19.3431 33 18 34.3431 18 36C18 37.6569 19.3431 39 21 39Z" fill="#393A36"/>
<path fill-rule="evenodd" clip-rule="evenodd" d="M24 42C25.6569 42 27 40.6569 27 39C27 37.3431 25.6569 36 24 36C22.3431 36 21 37.3431 21 39C21 40.6569 22.3431 42 24 42Z" fill="#393A36"/>
<path fill-rule="evenodd" clip-rule="evenodd" d="M19 42C20.6569 42 22 40.6569 22 39C22 37.3431 20.6569 36 19 36C17.3431 36 16 37.3431 16 39C16 40.6569 17.3431 42 19 42Z" fill="#393A36"/>
<path fill-rule="evenodd" clip-rule="evenodd" d="M20.6189 41.2135C21.5515 41.6787 21.9349 42.7332 20 45C21.0884 44.8303 22.3775 44.5384 23 43.4043C21.7926 42.8906 22.1488 41.3201 22.1343 40L20.6189 41.2135Z" fill="#393A36" stroke="#393A36"/>
<path d="M26.313 14.6587C26.7606 14.7563 27.0861 14.9598 27.2896 15.269C27.5011 15.5783 27.5947 15.9364 27.5703 16.3433C27.4808 17.5314 27.2733 18.7358 26.9478 19.9565C26.6304 21.1772 26.256 22.341 25.8247 23.4478C25.5317 24.2453 25.1086 24.9899 24.5552 25.6816C24.0018 26.3734 23.3345 26.8942 22.5532 27.2441C21.6662 27.5941 20.8117 27.5859 19.9897 27.2197C19.1759 26.8535 18.5371 26.2635 18.0732 25.4497C18.0488 25.4172 18.0285 25.3805 18.0122 25.3398C18.0041 25.291 18.0081 25.2463 18.0244 25.2056C18.0651 25.1079 18.1424 25.0713 18.2563 25.0957C18.3703 25.1201 18.472 25.1649 18.5615 25.23C18.9847 25.5067 19.4486 25.645 19.9531 25.645C20.4658 25.645 20.95 25.5352 21.4058 25.3154C21.8534 25.0957 22.2521 24.8068 22.6021 24.4487C22.952 24.0907 23.2572 23.7 23.5176 23.2769C23.9245 22.6502 24.2988 21.8283 24.6406 20.811C24.9906 19.7856 25.2062 18.6707 25.2876 17.4663C24.7586 18.6219 24.193 19.5252 23.5908 20.1763C22.9967 20.8192 22.4474 21.2424 21.9429 21.4458C21.4383 21.6493 21.068 21.6533 20.832 21.458C20.5553 21.222 20.3763 20.9209 20.2949 20.5547C20.2135 20.1885 20.1891 19.8182 20.2217 19.4438C20.3519 17.8325 20.9175 16.3921 21.9185 15.1226C21.9429 15.0981 21.9673 15.0697 21.9917 15.0371C22.1951 14.7604 22.4312 14.4959 22.6997 14.2437C22.9683 13.9832 23.2694 13.8368 23.603 13.8042C24.0099 13.7961 24.3761 13.9141 24.7017 14.1582C25.0272 14.3942 25.3201 14.6546 25.5806 14.9395C25.5155 14.8662 25.5114 14.8092 25.5684 14.7686C25.6253 14.7279 25.7108 14.6994 25.8247 14.6831C25.9386 14.6668 26.0444 14.6587 26.1421 14.6587C26.2397 14.6587 26.2967 14.6587 26.313 14.6587ZM24.2378 17.3198C24.3436 17.2059 24.425 17.0472 24.4819 16.8438C24.547 16.6403 24.5023 16.4491 24.3477 16.27C24.2663 16.1805 24.2419 16.0788 24.2744 15.9648C24.2744 15.9567 24.2785 15.9486 24.2866 15.9404C24.2948 15.8997 24.2988 15.8631 24.2988 15.8306C24.2988 15.798 24.2744 15.7777 24.2256 15.7695C24.193 15.7614 24.1523 15.7614 24.1035 15.7695C24.0628 15.7777 24.0303 15.7939 24.0059 15.8184C23.5176 16.2415 23.07 16.8275 22.6631 17.5762C22.2643 18.3249 22.012 19.0369 21.9062 19.7124C21.9469 19.7368 21.9836 19.7409 22.0161 19.7246C22.0487 19.7083 22.0812 19.688 22.1138 19.6636C22.6672 19.2974 23.1351 18.8416 23.5176 18.2964C23.7373 17.9627 23.9774 17.6372 24.2378 17.3198Z" fill="#393A36"/>
<path d="M116.313 143.659C116.761 143.756 117.086 143.96 117.29 144.269C117.501 144.578 117.595 144.936 117.57 145.343C117.481 146.531 117.273 147.736 116.948 148.957C116.63 150.177 116.256 151.341 115.825 152.448C115.532 153.245 115.109 153.99 114.555 154.682C114.002 155.373 113.334 155.894 112.553 156.244C111.666 156.594 110.812 156.586 109.99 156.22C109.176 155.854 108.537 155.264 108.073 154.45C108.049 154.417 108.028 154.381 108.012 154.34C108.004 154.291 108.008 154.246 108.024 154.206C108.065 154.108 108.142 154.071 108.256 154.096C108.37 154.12 108.472 154.165 108.562 154.23C108.985 154.507 109.449 154.645 109.953 154.645C110.466 154.645 110.95 154.535 111.406 154.315C111.853 154.096 112.252 153.807 112.602 153.449C112.952 153.091 113.257 152.7 113.518 152.277C113.924 151.65 114.299 150.828 114.641 149.811C114.991 148.786 115.206 147.671 115.288 146.466C114.759 147.622 114.193 148.525 113.591 149.176C112.997 149.819 112.447 150.242 111.943 150.446C111.438 150.649 111.068 150.653 110.832 150.458C110.555 150.222 110.376 149.921 110.295 149.555C110.214 149.188 110.189 148.818 110.222 148.444C110.352 146.833 110.917 145.392 111.918 144.123C111.943 144.098 111.967 144.07 111.992 144.037C112.195 143.76 112.431 143.496 112.7 143.244C112.968 142.983 113.269 142.837 113.603 142.804C114.01 142.796 114.376 142.914 114.702 143.158C115.027 143.394 115.32 143.655 115.581 143.939C115.515 143.866 115.511 143.809 115.568 143.769C115.625 143.728 115.711 143.699 115.825 143.683C115.939 143.667 116.044 143.659 116.142 143.659C116.24 143.659 116.297 143.659 116.313 143.659ZM114.238 146.32C114.344 146.206 114.425 146.047 114.482 145.844C114.547 145.64 114.502 145.449 114.348 145.27C114.266 145.181 114.242 145.079 114.274 144.965C114.274 144.957 114.278 144.949 114.287 144.94C114.295 144.9 114.299 144.863 114.299 144.831C114.299 144.798 114.274 144.778 114.226 144.77C114.193 144.761 114.152 144.761 114.104 144.77C114.063 144.778 114.03 144.794 114.006 144.818C113.518 145.242 113.07 145.827 112.663 146.576C112.264 147.325 112.012 148.037 111.906 148.712C111.947 148.737 111.984 148.741 112.016 148.725C112.049 148.708 112.081 148.688 112.114 148.664C112.667 148.297 113.135 147.842 113.518 147.296C113.737 146.963 113.977 146.637 114.238 146.32Z" fill="#393A36"/>
<defs>
<filter id="filter0_d" x="0" y="0" width="133" height="177" filterUnits="userSpaceOnUse" color-interpolation-filters="sRGB">
<feFlood flood-opacity="0" result="BackgroundImageFix"/>
<feColorMatrix in="SourceAlpha" type="matrix" values="0 0 0 0 0 0 0 0 0 0 0 0 0 0 0 0 0 0 127 0"/>
<feOffset dx="-2" dy="2"/>
<feGaussianBlur stdDeviation="2"/>
<feColorMatrix type="matrix" values="0 0 0 0 0 0 0 0 0 0 0 0 0 0 0 0 0 0 0.247159 0"/>
<feBlend mode="normal" in2="BackgroundImageFix" result="effect1_dropShadow"/>
<feBlend mode="normal" in="SourceGraphic" in2="effect1_dropShadow" result="shape"/>
</filter>
</defs>
</svg>
