<svg width="133" height="177" viewBox="0 0 133 177" fill="none" xmlns="http://www.w3.org/2000/svg">
<g filter="url(#filter0_d)">
<rect x="6" y="2" width="125" height="169" rx="8" fill="#E4D8F1"/>
</g>
<path fill-rule="evenodd" clip-rule="evenodd" d="M69.6274 36C61.0051 57.7227 47.79 74.5346 30 85.5C47.5348 94.7611 61.0844 109.996 70.1048 135C78.1121 116.137 90.5239 99.6593 109 85.5C89.0014 72.9019 78.9227 54.927 69.6274 36Z" fill="#F2416F"/>
<path fill-rule="evenodd" clip-rule="evenodd" d="M22.521 32C21.1021 35.5107 18.9275 38.2278 16 40C18.8855 41.4968 21.1152 43.959 22.5995 48C23.9172 44.9514 25.9596 42.2884 29 40C25.7091 37.9639 24.0506 35.0589 22.521 32Z" fill="#F2416F"/>
<path d="M25.313 15.6586C25.7606 15.7563 26.0861 15.9597 26.2896 16.2689C26.5012 16.5782 26.5948 16.9363 26.5704 17.3432C26.4808 18.5313 26.2733 19.7357 25.9478 20.9564C25.6304 22.1772 25.2561 23.3409 24.8247 24.4477C24.5318 25.2452 24.1086 25.9898 23.5552 26.6815C23.0018 27.3733 22.3345 27.8941 21.5533 28.244C20.6662 28.594 19.8117 28.5858 18.9898 28.2196C18.176 27.8534 17.5372 27.2634 17.0733 26.4496C17.0489 26.4171 17.0285 26.3804 17.0122 26.3397C17.0041 26.2909 17.0082 26.2462 17.0245 26.2055C17.0651 26.1078 17.1425 26.0712 17.2564 26.0956C17.3703 26.12 17.472 26.1648 17.5616 26.2299C17.9847 26.5066 18.4486 26.6449 18.9532 26.6449C19.4659 26.6449 19.9501 26.5351 20.4058 26.3153C20.8534 26.0956 21.2522 25.8067 21.6021 25.4486C21.952 25.0906 22.2572 24.6999 22.5176 24.2768C22.9245 23.6501 23.2989 22.8282 23.6407 21.8109C23.9906 20.7856 24.2063 19.6706 24.2876 18.4662C23.7587 19.6218 23.1931 20.5251 22.5909 21.1762C21.9968 21.8191 21.4475 22.2423 20.9429 22.4457C20.4384 22.6492 20.0681 22.6532 19.8321 22.4579C19.5554 22.2219 19.3763 21.9208 19.295 21.5546C19.2136 21.1884 19.1892 20.8181 19.2217 20.4438C19.3519 18.8324 19.9175 17.392 20.9185 16.1225C20.9429 16.098 20.9673 16.0696 20.9917 16.037C21.1952 15.7603 21.4312 15.4958 21.6997 15.2436C21.9683 14.9831 22.2694 14.8367 22.6031 14.8041C23.01 14.796 23.3762 14.914 23.7017 15.1581C24.0272 15.3941 24.3202 15.6545 24.5806 15.9394C24.5155 15.8661 24.5114 15.8092 24.5684 15.7685C24.6254 15.7278 24.7108 15.6993 24.8247 15.683C24.9387 15.6667 25.0445 15.6586 25.1421 15.6586C25.2398 15.6586 25.2968 15.6586 25.313 15.6586ZM23.2378 18.3197C23.3436 18.2058 23.425 18.0471 23.482 17.8437C23.5471 17.6402 23.5023 17.449 23.3477 17.2699C23.2663 17.1804 23.2419 17.0787 23.2745 16.9647C23.2745 16.9566 23.2785 16.9485 23.2867 16.9403C23.2948 16.8996 23.2989 16.863 23.2989 16.8305C23.2989 16.7979 23.2745 16.7776 23.2256 16.7694C23.1931 16.7613 23.1524 16.7613 23.1036 16.7694C23.0629 16.7776 23.0303 16.7939 23.0059 16.8183C22.5176 17.2414 22.07 17.8274 21.6631 18.5761C21.2644 19.3248 21.0121 20.0369 20.9063 20.7123C20.947 20.7367 20.9836 20.7408 21.0162 20.7245C21.0487 20.7082 21.0813 20.6879 21.1138 20.6635C21.6672 20.2973 22.1351 19.8415 22.5176 19.2963C22.7373 18.9626 22.9774 18.6371 23.2378 18.3197Z" fill="#F2416F"/>
<path d="M119.313 147.659C119.761 147.756 120.086 147.96 120.29 148.269C120.501 148.578 120.595 148.936 120.57 149.343C120.481 150.531 120.273 151.736 119.948 152.956C119.63 154.177 119.256 155.341 118.825 156.448C118.532 157.245 118.109 157.99 117.555 158.682C117.002 159.373 116.335 159.894 115.553 160.244C114.666 160.594 113.812 160.586 112.99 160.22C112.176 159.853 111.537 159.263 111.073 158.45C111.049 158.417 111.029 158.38 111.012 158.34C111.004 158.291 111.008 158.246 111.024 158.205C111.065 158.108 111.142 158.071 111.256 158.096C111.37 158.12 111.472 158.165 111.562 158.23C111.985 158.507 112.449 158.645 112.953 158.645C113.466 158.645 113.95 158.535 114.406 158.315C114.853 158.096 115.252 157.807 115.602 157.449C115.952 157.091 116.257 156.7 116.518 156.277C116.925 155.65 117.299 154.828 117.641 153.811C117.991 152.786 118.206 151.671 118.288 150.466C117.759 151.622 117.193 152.525 116.591 153.176C115.997 153.819 115.447 154.242 114.943 154.446C114.438 154.649 114.068 154.653 113.832 154.458C113.555 154.222 113.376 153.921 113.295 153.555C113.214 153.188 113.189 152.818 113.222 152.444C113.352 150.832 113.918 149.392 114.918 148.122C114.943 148.098 114.967 148.07 114.992 148.037C115.195 147.76 115.431 147.496 115.7 147.244C115.968 146.983 116.269 146.837 116.603 146.804C117.01 146.796 117.376 146.914 117.702 147.158C118.027 147.394 118.32 147.655 118.581 147.939C118.516 147.866 118.511 147.809 118.568 147.768C118.625 147.728 118.711 147.699 118.825 147.683C118.939 147.667 119.044 147.659 119.142 147.659C119.24 147.659 119.297 147.659 119.313 147.659ZM117.238 150.32C117.344 150.206 117.425 150.047 117.482 149.844C117.547 149.64 117.502 149.449 117.348 149.27C117.266 149.18 117.242 149.079 117.274 148.965C117.274 148.957 117.279 148.948 117.287 148.94C117.295 148.9 117.299 148.863 117.299 148.83C117.299 148.798 117.274 148.778 117.226 148.769C117.193 148.761 117.152 148.761 117.104 148.769C117.063 148.778 117.03 148.794 117.006 148.818C116.518 149.241 116.07 149.827 115.663 150.576C115.264 151.325 115.012 152.037 114.906 152.712C114.947 152.737 114.984 152.741 115.016 152.725C115.049 152.708 115.081 152.688 115.114 152.663C115.667 152.297 116.135 151.842 116.518 151.296C116.737 150.963 116.977 150.637 117.238 150.32Z" fill="#F2416F"/>
<defs>
<filter id="filter0_d" x="0" y="0" width="133" height="177" filterUnits="userSpaceOnUse" color-interpolation-filters="sRGB">
<feFlood flood-opacity="0" result="BackgroundImageFix"/>
<feColorMatrix in="SourceAlpha" type="matrix" values="0 0 0 0 0 0 0 0 0 0 0 0 0 0 0 0 0 0 127 0"/>
<feOffset dx="-2" dy="2"/>
<feGaussianBlur stdDeviation="2"/>
<feColorMatrix type="matrix" values="0 0 0 0 0 0 0 0 0 0 0 0 0 0 0 0 0 0 0.247159 0"/>
<feBlend mode="normal" in2="BackgroundImageFix" result="effect1_dropShadow"/>
<feBlend mode="normal" in="SourceGraphic" in2="effect1_dropShadow" result="shape"/>
</filter>
</defs>
</svg>
