<svg width="133" height="177" viewBox="0 0 133 177" fill="none" xmlns="http://www.w3.org/2000/svg">
<g filter="url(#filter0_d)">
<rect x="6" y="2" width="125" height="169" rx="8" fill="#E4D8F1"/>
</g>
<path fill-rule="evenodd" clip-rule="evenodd" d="M21.898 42.8938C10.1094 42.5703 21.8831 33 21.8831 33C21.8831 33 33.8711 42.2635 22.3648 42.8775C22.3636 43.4519 23.1583 43.91 23.1583 43.91C22.6455 44.858 22.0269 45.1108 20.7505 44.959C21.3955 44.521 22.0007 43.5701 21.898 42.8938Z" fill="#393A36" stroke="#393A36"/>
<path fill-rule="evenodd" clip-rule="evenodd" d="M67.5715 112.539C-9.52288 110.396 67.4743 47 67.4743 47C67.4743 47 145.873 108.364 70.6241 112.431C70.6166 116.236 75.8138 119.271 75.8138 119.271C72.4598 125.551 68.4144 127.225 60.0669 126.22C64.2851 123.318 68.2432 117.019 67.5715 112.539Z" fill="#393A36" stroke="#393A36"/>
<path fill-rule="evenodd" clip-rule="evenodd" d="M21.5533 27.2442C20.6662 27.5941 19.8138 27.586 18.9959 27.2198C18.178 26.8535 17.5371 26.2635 17.0733 25.4497C17.0489 25.4172 17.0306 25.3785 17.0183 25.3338C17.0061 25.289 17.0082 25.2463 17.0244 25.2056C17.0651 25.1079 17.1425 25.0713 17.2564 25.0957C17.3703 25.1202 17.472 25.1649 17.5616 25.23C17.9847 25.5067 18.4506 25.6451 18.9593 25.6451C19.4679 25.6451 19.9501 25.5352 20.4058 25.3155C20.8534 25.0957 21.2522 24.8068 21.6021 24.4488C21.952 24.0907 22.2572 23.7001 22.5176 23.2769C22.9245 22.6503 23.3009 21.8263 23.6468 20.805C23.9926 19.7836 24.2063 18.6708 24.2876 17.4663C23.7587 18.6219 23.1951 19.5232 22.597 20.1702C21.9988 20.8172 21.4475 21.2424 20.9429 21.4458C20.4383 21.6493 20.0681 21.6534 19.8321 21.458C19.5554 21.222 19.3763 20.9209 19.295 20.5547C19.2136 20.1885 19.1892 19.8182 19.2217 19.4439C19.3519 17.8326 19.9175 16.3921 20.9185 15.1226C20.9429 15.0982 20.9673 15.0697 20.9917 15.0371C21.1952 14.7605 21.4312 14.4939 21.6997 14.2376C21.9683 13.9812 22.2694 13.8368 22.6031 13.8042C23.01 13.7961 23.3762 13.9121 23.7017 14.1521C24.0272 14.3922 24.3202 14.6547 24.5806 14.9395C24.5155 14.8662 24.5114 14.8093 24.5684 14.7686C24.6254 14.7279 24.7108 14.6994 24.8247 14.6831C24.9387 14.6669 25.0445 14.6587 25.1421 14.6587H25.313C25.7606 14.7564 26.0882 14.9598 26.2957 15.2691C26.5032 15.5783 26.5948 15.9364 26.5703 16.3433C26.4808 17.5314 26.2753 18.7359 25.9539 19.9566C25.6324 21.1773 25.2561 22.341 24.8247 23.4478C24.5318 24.2453 24.1086 24.9899 23.5552 25.6817C23.0018 26.3734 22.3345 26.8942 21.5533 27.2442ZM20.9063 19.7124C20.947 19.7369 20.9836 19.7409 21.0161 19.7246C21.0487 19.7084 21.0813 19.688 21.1138 19.6636C21.6672 19.2974 22.1351 18.8417 22.5176 18.2964C22.7373 17.9628 22.9774 17.6372 23.2378 17.3199C23.3436 17.2059 23.427 17.0472 23.4881 16.8438C23.5491 16.6403 23.5023 16.4491 23.3477 16.2701C23.2663 16.1805 23.2419 16.0788 23.2744 15.9649C23.2744 15.9567 23.2785 15.9486 23.2867 15.9405C23.2948 15.8998 23.2989 15.8632 23.2989 15.8306C23.2989 15.798 23.2744 15.7777 23.2256 15.7696C23.1931 15.7614 23.1544 15.7614 23.1097 15.7696C23.0649 15.7777 23.0303 15.794 23.0059 15.8184C22.5176 16.2416 22.0721 16.8275 21.6692 17.5762C21.2664 18.3249 21.0121 19.037 20.9063 19.7124Z" fill="#393A36"/>
<path fill-rule="evenodd" clip-rule="evenodd" d="M112.553 156.244C111.666 156.594 110.814 156.586 109.996 156.22C109.178 155.854 108.537 155.264 108.073 154.45C108.049 154.417 108.031 154.379 108.018 154.334C108.006 154.289 108.008 154.246 108.024 154.206C108.065 154.108 108.142 154.071 108.256 154.096C108.37 154.12 108.472 154.165 108.562 154.23C108.985 154.507 109.451 154.645 109.959 154.645C110.468 154.645 110.95 154.535 111.406 154.315C111.853 154.096 112.252 153.807 112.602 153.449C112.952 153.091 113.257 152.7 113.518 152.277C113.925 151.65 114.301 150.826 114.647 149.805C114.993 148.784 115.206 147.671 115.288 146.466C114.759 147.622 114.195 148.523 113.597 149.17C112.999 149.817 112.447 150.242 111.943 150.446C111.438 150.649 111.068 150.653 110.832 150.458C110.555 150.222 110.376 149.921 110.295 149.555C110.214 149.189 110.189 148.818 110.222 148.444C110.352 146.833 110.918 145.392 111.918 144.123C111.943 144.098 111.967 144.07 111.992 144.037C112.195 143.76 112.431 143.494 112.7 143.238C112.968 142.981 113.269 142.837 113.603 142.804C114.01 142.796 114.376 142.912 114.702 143.152C115.027 143.392 115.32 143.655 115.581 143.939C115.515 143.866 115.511 143.809 115.568 143.769C115.625 143.728 115.711 143.699 115.825 143.683C115.939 143.667 116.044 143.659 116.142 143.659H116.313C116.761 143.756 117.088 143.96 117.296 144.269C117.503 144.578 117.595 144.936 117.57 145.343C117.481 146.531 117.275 147.736 116.954 148.957C116.632 150.177 116.256 151.341 115.825 152.448C115.532 153.245 115.109 153.99 114.555 154.682C114.002 155.373 113.335 155.894 112.553 156.244ZM111.906 148.712C111.947 148.737 111.984 148.741 112.016 148.725C112.049 148.708 112.081 148.688 112.114 148.664C112.667 148.297 113.135 147.842 113.518 147.296C113.737 146.963 113.977 146.637 114.238 146.32C114.344 146.206 114.427 146.047 114.488 145.844C114.549 145.64 114.502 145.449 114.348 145.27C114.266 145.181 114.242 145.079 114.274 144.965C114.274 144.957 114.279 144.949 114.287 144.94C114.295 144.9 114.299 144.863 114.299 144.831C114.299 144.798 114.274 144.778 114.226 144.77C114.193 144.761 114.154 144.761 114.11 144.77C114.065 144.778 114.03 144.794 114.006 144.818C113.518 145.242 113.072 145.828 112.669 146.576C112.266 147.325 112.012 148.037 111.906 148.712Z" fill="#393A36"/>
<defs>
<filter id="filter0_d" x="0" y="0" width="133" height="177" filterUnits="userSpaceOnUse" color-interpolation-filters="sRGB">
<feFlood flood-opacity="0" result="BackgroundImageFix"/>
<feColorMatrix in="SourceAlpha" type="matrix" values="0 0 0 0 0 0 0 0 0 0 0 0 0 0 0 0 0 0 127 0"/>
<feOffset dx="-2" dy="2"/>
<feGaussianBlur stdDeviation="2"/>
<feColorMatrix type="matrix" values="0 0 0 0 0 0 0 0 0 0 0 0 0 0 0 0 0 0 0.247159 0"/>
<feBlend mode="normal" in2="BackgroundImageFix" result="effect1_dropShadow"/>
<feBlend mode="normal" in="SourceGraphic" in2="effect1_dropShadow" result="shape"/>
</filter>
</defs>
</svg>
