<svg width="133" height="177" viewBox="0 0 133 177" fill="none" xmlns="http://www.w3.org/2000/svg">
<g filter="url(#filter0_d)">
<rect x="6" y="2" width="125" height="169" rx="8" fill="#E4D8F1"/>
</g>
<path fill-rule="evenodd" clip-rule="evenodd" d="M117.5 159.244C117.415 159.322 117.316 159.356 117.202 159.347C117.088 159.337 116.986 159.296 116.895 159.225C116.732 159.068 116.621 158.88 116.562 158.658C116.296 157.818 116.144 156.957 116.108 156.075C116.073 155.193 116.077 154.309 116.123 153.424V153.404C115.023 153.73 113.962 154.15 112.939 154.664C112.809 154.716 112.705 154.794 112.627 154.898C112.562 155.009 112.526 155.133 112.52 155.27C112.513 155.309 112.51 155.348 112.51 155.387L112.432 156.07C112.419 156.292 112.373 156.507 112.295 156.715C112.217 156.923 112.08 157.066 111.885 157.145C111.839 157.164 111.797 157.167 111.758 157.154C111.706 157.141 111.673 157.106 111.66 157.047C111.647 156.988 111.644 156.93 111.65 156.871C111.689 156.331 111.732 155.79 111.777 155.25C111.602 155.328 111.421 155.393 111.235 155.445C111.05 155.497 110.863 155.507 110.674 155.475C110.478 155.436 110.317 155.336 110.19 155.177C110.063 155.017 110.029 154.843 110.088 154.654C110.14 154.531 110.221 154.431 110.332 154.356C110.443 154.282 110.56 154.218 110.684 154.166L111.055 154.01C111.302 153.906 111.546 153.795 111.787 153.678C111.898 153.613 111.979 153.526 112.031 153.419C112.083 153.312 112.119 153.206 112.139 153.102C112.458 151.767 112.897 150.436 113.457 149.107C114.017 147.779 114.632 146.516 115.303 145.318V145.309C115.355 145.211 115.454 145.058 115.601 144.85C115.747 144.641 115.937 144.457 116.172 144.298C116.406 144.138 116.68 144.081 116.992 144.127C117.298 144.192 117.523 144.363 117.666 144.64C117.809 144.916 117.905 145.245 117.954 145.626C118.003 146.007 118.031 146.386 118.037 146.764C118.044 146.822 118.047 146.881 118.047 146.94C118.073 147.857 118.031 148.779 117.92 149.703C117.9 149.866 117.884 150.029 117.871 150.191C117.819 150.686 117.79 151.184 117.783 151.686C117.9 151.679 118.037 151.663 118.193 151.637C118.356 151.617 118.498 151.603 118.618 151.593C118.739 151.583 118.805 151.594 118.818 151.627C118.831 151.751 118.792 151.861 118.701 151.959C118.61 152.057 118.503 152.132 118.379 152.184C118.34 152.203 118.298 152.223 118.252 152.242C118.148 152.281 118.05 152.325 117.959 152.374C117.868 152.423 117.793 152.49 117.734 152.574C117.663 152.704 117.627 152.848 117.627 153.004C117.451 154.892 117.448 156.78 117.617 158.668C117.624 158.772 117.622 158.875 117.612 158.976C117.603 159.077 117.565 159.166 117.5 159.244ZM113.135 153.019C113.141 153.054 113.161 153.085 113.193 153.111C113.356 153.059 113.594 152.981 113.906 152.877L114.966 152.53C115.314 152.416 115.557 152.333 115.693 152.281L115.83 152.242C115.921 152.216 116.006 152.184 116.084 152.145C116.162 152.106 116.221 152.047 116.26 151.969C116.357 151.715 116.406 151.425 116.406 151.1C116.413 150.976 116.423 150.862 116.436 150.758C116.514 150.139 116.584 149.441 116.645 148.663C116.707 147.885 116.733 147.197 116.724 146.598C116.714 145.999 116.647 145.66 116.523 145.582C116.478 145.569 116.411 145.602 116.323 145.68C116.235 145.758 116.151 145.847 116.069 145.948C115.988 146.049 115.931 146.129 115.898 146.188C115.54 146.813 115.221 147.457 114.941 148.121L114.883 148.258C114.329 149.547 113.909 150.606 113.623 151.437C113.337 152.267 113.177 152.76 113.145 152.916C113.131 152.949 113.128 152.983 113.135 153.019Z" fill="#393A36"/>
<path fill-rule="evenodd" clip-rule="evenodd" d="M23.5 28.2442C23.4154 28.3223 23.3161 28.3565 23.2022 28.3467C23.0882 28.337 22.9857 28.2963 22.8945 28.2247C22.7318 28.0684 22.6211 27.8796 22.5625 27.6583C22.2956 26.8184 22.1442 25.9574 22.1084 25.0752C22.0726 24.1931 22.0775 23.3093 22.1231 22.4239V22.4044C21.0228 22.7299 19.9616 23.1498 18.9395 23.6641C18.8093 23.7162 18.7051 23.7943 18.627 23.8985C18.5619 24.0092 18.5261 24.1329 18.5195 24.2696C18.513 24.3086 18.5098 24.3477 18.5098 24.3868L18.4317 25.0704C18.4186 25.2917 18.3731 25.5066 18.2949 25.7149C18.2168 25.9232 18.0801 26.0665 17.8848 26.1446C17.8392 26.1641 17.7969 26.1674 17.7578 26.1544C17.7057 26.1413 17.6732 26.1055 17.6602 26.0469C17.6471 25.9883 17.6439 25.9297 17.6504 25.8711C17.6895 25.3308 17.7318 24.7904 17.7774 24.2501C17.6016 24.3282 17.4209 24.3933 17.2354 24.4454C17.0498 24.4974 16.8626 24.5072 16.6738 24.4747C16.4785 24.4356 16.3174 24.3363 16.1904 24.1768C16.0635 24.0173 16.0293 23.8432 16.0879 23.6544C16.14 23.5307 16.2214 23.4314 16.332 23.3565C16.4427 23.2816 16.5599 23.2182 16.6836 23.1661L17.0547 23.0098C17.3021 22.9057 17.5462 22.795 17.7871 22.6778C17.8978 22.6127 17.9792 22.5264 18.0313 22.419C18.0833 22.3116 18.1192 22.2058 18.1387 22.1016C18.4577 20.767 18.8972 19.4356 19.457 18.1075C20.0169 16.7794 20.6322 15.5163 21.3027 14.3184V14.3086C21.3548 14.211 21.4541 14.058 21.6006 13.8497C21.7471 13.6413 21.9375 13.4574 22.1719 13.2979C22.4063 13.1384 22.6797 13.0814 22.9922 13.127C23.2982 13.1921 23.5228 13.363 23.666 13.6397C23.8093 13.9164 23.9053 14.2452 23.9541 14.626C24.0029 15.0069 24.0306 15.3861 24.0371 15.7637C24.0436 15.8223 24.0469 15.8809 24.0469 15.9395C24.0729 16.8575 24.0306 17.7787 23.9199 18.7032C23.9004 18.8659 23.8841 19.0287 23.8711 19.1915C23.819 19.6863 23.7897 20.1843 23.7832 20.6856C23.9004 20.6791 24.0371 20.6628 24.1934 20.6368C24.3561 20.6172 24.4977 20.6026 24.6182 20.5928C24.7386 20.5831 24.8054 20.5945 24.8184 20.627C24.8314 20.7507 24.7923 20.8614 24.7012 20.959C24.61 21.0567 24.5026 21.1316 24.3789 21.1836C24.3399 21.2032 24.2975 21.2227 24.252 21.2422C24.1478 21.2813 24.0501 21.3252 23.959 21.3741C23.8679 21.4229 23.793 21.4896 23.7344 21.5743C23.6628 21.7045 23.627 21.8477 23.627 22.004C23.4512 23.892 23.4479 25.78 23.6172 27.668C23.6237 27.7722 23.6221 27.8747 23.6123 27.9756C23.6026 28.0766 23.5651 28.1661 23.5 28.2442ZM19.1348 22.0186C19.1413 22.0544 19.1608 22.0853 19.1934 22.1114C19.3561 22.0593 19.5938 21.9812 19.9063 21.877L20.9658 21.5303C21.3141 21.4164 21.5567 21.3334 21.6934 21.2813L21.8301 21.2422C21.9212 21.2162 22.0059 21.1836 22.084 21.1446C22.1621 21.1055 22.2207 21.0469 22.2598 20.9688C22.3574 20.7149 22.4063 20.4252 22.4063 20.0997C22.4128 19.976 22.4225 19.862 22.4356 19.7579C22.5137 19.1394 22.5837 18.4411 22.6455 17.6631C22.7074 16.8851 22.7334 16.1967 22.7236 15.5977C22.7139 14.9988 22.6471 14.6602 22.5235 14.5821C22.4779 14.5691 22.4111 14.6016 22.3233 14.6797C22.2354 14.7579 22.1507 14.8474 22.0694 14.9483C21.988 15.0492 21.931 15.129 21.8985 15.1876C21.5404 15.8126 21.2214 16.4571 20.9414 17.1211L20.8828 17.2579C20.3294 18.5469 19.9095 19.6065 19.6231 20.4366C19.3366 21.2667 19.1771 21.7598 19.1445 21.9161C19.1315 21.9486 19.1283 21.9828 19.1348 22.0186Z" fill="#393A36"/>
<path fill-rule="evenodd" clip-rule="evenodd" d="M67.5715 112.539C-9.52288 110.396 67.4743 47 67.4743 47C67.4743 47 145.873 108.364 70.6241 112.431C70.6166 116.236 75.8138 119.271 75.8138 119.271C72.4598 125.551 68.4144 127.225 60.0669 126.22C64.2851 123.318 68.2432 117.019 67.5715 112.539Z" fill="#393A36" stroke="#393A36"/>
<path fill-rule="evenodd" clip-rule="evenodd" d="M21.898 42.8938C10.1094 42.5703 21.8831 33 21.8831 33C21.8831 33 33.8711 42.2635 22.3648 42.8775C22.3636 43.4519 23.1583 43.91 23.1583 43.91C22.6455 44.858 22.0269 45.1108 20.7505 44.959C21.3955 44.521 22.0007 43.5701 21.898 42.8938Z" fill="#393A36" stroke="#393A36"/>
<defs>
<filter id="filter0_d" x="0" y="0" width="133" height="177" filterUnits="userSpaceOnUse" color-interpolation-filters="sRGB">
<feFlood flood-opacity="0" result="BackgroundImageFix"/>
<feColorMatrix in="SourceAlpha" type="matrix" values="0 0 0 0 0 0 0 0 0 0 0 0 0 0 0 0 0 0 127 0"/>
<feOffset dx="-2" dy="2"/>
<feGaussianBlur stdDeviation="2"/>
<feColorMatrix type="matrix" values="0 0 0 0 0 0 0 0 0 0 0 0 0 0 0 0 0 0 0.247159 0"/>
<feBlend mode="normal" in2="BackgroundImageFix" result="effect1_dropShadow"/>
<feBlend mode="normal" in="SourceGraphic" in2="effect1_dropShadow" result="shape"/>
</filter>
</defs>
</svg>
