<svg width="133" height="177" viewBox="0 0 133 177" fill="none" xmlns="http://www.w3.org/2000/svg">
<g filter="url(#filter0_d)">
<rect x="6" y="2" width="125" height="169" rx="8" fill="#E4D8F1"/>
</g>
<path fill-rule="evenodd" clip-rule="evenodd" d="M53.6145 57.8332C62.1865 57.8332 69.1355 51.309 69.1355 43.2609C69.1355 35.2129 62.1865 28.6887 53.6145 28.6887C52.1545 28.6887 50.7417 28.878 49.4022 29.2318C42.877 30.9553 38.0934 36.5836 38.0934 43.2609C38.0934 46.5455 39.4459 49.4487 41.2037 52.0133C42.4741 53.8667 45.0013 48.6246 45.4068 47.8259C45.8122 47.0273 44.1526 53.4181 43.5514 53.8711C41.2037 55.6401 49.8365 57.8332 53.6145 57.8332Z" fill="#D78B8B" fill-opacity="0.312172"/>
<path fill-rule="evenodd" clip-rule="evenodd" d="M81.6084 19.0137C89.4615 14.8986 53.2752 26.9951 53.2752 26.9951C62.845 27.9491 70.3269 30.8453 70.5668 40.4781C70.5668 40.4781 73.7553 23.1287 81.6084 19.0137Z" fill="#2A2828" fill-opacity="0.073891"/>
<path fill-rule="evenodd" clip-rule="evenodd" d="M94.2699 48.181C94.6312 48.2994 94.886 48.2928 95.0341 48.1613C95.1823 48.0298 95.26 47.7831 95.2672 47.4214C95.4045 44.9024 95.7676 42.6333 96.3566 40.6142C96.9456 38.5951 97.7352 36.3589 98.7252 33.9057C98.8553 33.5571 98.8409 33.2578 98.6819 33.0079C98.5229 32.758 98.2519 32.6067 97.8689 32.5541C97.6737 32.5409 97.5039 32.5903 97.3594 32.7021C97.2148 32.8139 97.11 32.9158 97.045 33.0079C96.7704 33.4222 96.1055 34.5864 95.0504 36.5003C94.6529 37.204 94.2265 37.967 93.7712 38.7891C93.6556 39.0127 93.5454 39.159 93.4406 39.2281C93.3358 39.2971 93.1605 39.3021 92.9148 39.2429C92.6257 39.1771 92.3367 39.1245 92.0476 39.085C91.7007 39.0258 91.3972 39.1245 91.137 39.381C90.754 39.7888 90.4143 40.2229 90.118 40.6833C89.802 41.1506 89.544 41.6374 89.3439 42.1438C88.9486 42.9077 88.4965 43.5685 87.9879 44.1263C87.4061 44.7643 86.8515 45.0767 86.3239 45.0635C86.0926 45.0109 86.0113 44.7413 86.08 44.2546C86.1486 43.7679 86.2896 43.2203 86.5028 42.612C86.716 42.0036 86.9201 41.4988 87.1152 41.0976C87.1297 41.0581 87.1441 41.022 87.1586 40.9891C87.2164 40.8839 87.2598 40.7951 87.2887 40.7227C87.3176 40.6504 87.3393 40.5714 87.3537 40.4859C87.3682 40.4004 87.3826 40.2821 87.3971 40.1308C87.4115 39.8348 87.3194 39.5865 87.1207 39.3859C86.9219 39.1853 86.6925 39.1179 86.4323 39.1837C86.3889 39.2034 86.3365 39.2412 86.2751 39.2971C86.2137 39.3531 86.1595 39.409 86.1125 39.4649C86.0655 39.5208 86.0384 39.5553 86.0312 39.5685C85.8505 39.8052 85.5615 40.1554 85.164 40.6191C84.7665 41.0828 84.3473 41.5563 83.9065 42.0398C83.468 42.5206 83.0975 42.9087 82.7948 43.204L82.8847 42.9468C83.153 42.2333 83.5461 41.6125 84.0641 41.0842L84.2642 40.8904C84.3437 40.8115 84.425 40.7507 84.5081 40.7079C84.5912 40.6652 84.6906 40.6504 84.8062 40.6635C84.9219 40.6767 84.9978 40.6421 85.0339 40.5599C85.07 40.4777 85.0592 40.3774 85.0014 40.259C84.9291 40.1341 84.8008 40.0206 84.6165 39.9187C84.4323 39.8167 84.2263 39.7592 83.9986 39.746C83.771 39.7329 83.5596 39.8019 83.3645 39.9532C82.7647 40.4465 82.3238 41.0105 82.042 41.6451L82.0319 41.668C82.0069 41.7001 81.9922 41.7303 81.9878 41.7586L81.9803 41.7899C81.8906 42.0099 81.8141 42.2403 81.751 42.4811C81.4866 43.095 81.0795 43.6269 80.5297 44.077C79.7745 44.6952 78.9633 45.0241 78.0961 45.0635C77.7564 45.0701 77.4728 44.9402 77.2451 44.6738C77.0175 44.4075 76.9578 44.0277 77.0662 43.5344C77.2686 43.5344 77.4348 43.5262 77.5649 43.5097C77.695 43.4933 77.8612 43.4653 78.0636 43.4259C78.4972 43.3404 78.873 43.1431 79.191 42.8339C79.4294 42.5709 79.592 42.2601 79.6788 41.9016C79.7655 41.5432 79.7872 41.1798 79.7438 40.8115C79.7221 40.5747 79.6643 40.3478 79.5704 40.1308C79.4764 39.9137 79.3319 39.746 79.1368 39.6276C78.9055 39.5224 78.6634 39.4928 78.4104 39.5389C77.9624 39.6178 77.5504 39.7921 77.1746 40.0617C76.5965 40.4695 76.1394 41.0022 75.8033 41.6599C75.4673 42.3176 75.2993 43.0082 75.2993 43.7317C75.2993 44.0803 75.3824 44.4404 75.5486 44.812C75.7148 45.1836 75.9696 45.496 76.3128 45.7492C76.6561 46.0024 77.0988 46.1356 77.6408 46.1487C78.5658 46.1487 79.3626 45.9416 80.0311 45.5272C80.6484 45.1446 81.1563 44.6625 81.5548 44.0808C81.5827 44.2774 81.6547 44.4619 81.771 44.6344C81.9372 44.881 82.1612 45.0175 82.4431 45.0438C82.5876 45.0504 82.7213 45.0109 82.8441 44.9254C82.967 44.8399 83.0682 44.7347 83.1477 44.6097C83.7186 43.7744 84.1251 43.1874 84.3672 42.8487C84.6093 42.51 84.7268 42.3472 84.7195 42.3604C84.6039 43.0049 84.537 43.5426 84.519 43.9734C84.5009 44.4042 84.5569 44.7972 84.687 45.1523C84.9255 45.7377 85.3844 46.0369 86.0637 46.0501C86.6636 46.0369 87.3122 45.7064 88.0096 45.0586C88.3045 44.7846 88.5966 44.435 88.8857 44.0098C88.8642 44.4373 88.9642 44.8444 89.1857 45.2312C89.4098 45.639 89.7675 45.8824 90.2589 45.9613C90.4685 45.9942 90.6492 45.9481 90.801 45.8232C91.0684 45.6193 91.296 45.3858 91.4839 45.1227C92.3294 43.9126 93.0684 42.6991 93.7008 41.4824C94.3331 40.2656 94.9131 39.0785 95.4406 37.9209C95.9176 36.8949 96.3946 35.9182 96.8715 34.9909L96.3079 36.5496C95.5273 38.6542 94.8498 40.6109 94.2753 42.4196C93.7008 44.2283 93.4026 45.6522 93.381 46.6913C93.3737 47.0333 93.4352 47.3359 93.5652 47.599C93.6953 47.862 93.9302 48.0561 94.2699 48.181ZM81.5548 44.0808C81.5428 43.9962 81.539 43.9095 81.5433 43.8205C81.5729 43.343 81.6422 42.8966 81.751 42.4811C81.8458 42.2612 81.9222 42.0308 81.9803 41.7899C81.997 41.7489 82.0142 41.7083 82.0319 41.668C82.0475 41.648 82.0671 41.6272 82.0907 41.6057C82.1522 41.5498 82.2335 41.5218 82.3347 41.5218C82.3997 41.5284 82.4449 41.5547 82.4702 41.6007C82.4954 41.6468 82.5081 41.6978 82.5081 41.7537C82.5081 41.8096 82.5045 41.854 82.4973 41.8868C82.3455 42.6037 82.0636 43.2861 81.6517 43.9339C81.6202 43.9836 81.5878 44.0325 81.5548 44.0808ZM88.8857 44.0098C88.8902 43.9213 88.8999 43.8318 88.9147 43.7416C88.9984 43.189 89.1414 42.6564 89.3439 42.1438C89.4008 42.0339 89.4565 41.922 89.511 41.8079C89.5977 41.6369 89.7007 41.5152 89.8199 41.4429C89.9392 41.3705 90.0295 41.364 90.0909 41.4232C90.1523 41.4824 90.1397 41.6238 90.053 41.8474C89.6693 42.7089 89.2802 43.4297 88.8857 44.0098ZM69.5214 47.7963C69.4563 47.816 69.3985 47.8259 69.3479 47.8259C69.0733 47.8127 68.8023 47.7075 68.5349 47.5102C68.2675 47.3129 68.1266 47.1156 68.1121 46.9183C68.1699 45.4845 68.2892 44.0507 68.4699 42.6169C68.4988 42.367 68.5277 42.1138 68.5566 41.8572C68.6072 41.4297 68.7517 40.583 68.9902 39.3169C69.2287 38.0508 69.487 36.793 69.7653 35.5433C70.0435 34.2937 70.2657 33.4814 70.432 33.1065C70.432 33.0934 70.45 33.0622 70.4862 33.0128C70.5223 32.9635 70.5729 32.9076 70.6379 32.8451C70.703 32.7826 70.7825 32.7284 70.8764 32.6823C70.9704 32.6363 71.0824 32.6166 71.2125 32.6231C71.3642 32.6297 71.4997 32.6725 71.619 32.7514C71.7382 32.8303 71.8448 32.9224 71.9388 33.0276C72.1267 33.192 72.1881 33.3959 72.123 33.6393C72.0436 33.9024 71.8954 34.5765 71.6786 35.6617C71.4618 36.7469 71.2269 37.9587 70.974 39.2971C70.721 40.6356 70.506 41.8096 70.329 42.8191C70.1519 43.8287 70.0634 44.3927 70.0634 44.5111C70.1067 44.4387 70.2007 44.2414 70.3452 43.9191C70.4898 43.5969 70.6524 43.2253 70.833 42.8043C71.0209 42.39 71.1944 42.0052 71.3534 41.6501C71.5124 41.2949 71.628 41.0483 71.7003 40.9102C71.9604 40.384 72.2315 39.9417 72.5133 39.5832C72.7951 39.2248 73.0878 38.9831 73.3914 38.8581C73.7888 38.72 74.1267 38.7052 74.4049 38.8137C74.6832 38.9223 74.8295 39.1607 74.844 39.529C74.8512 39.6803 74.8367 39.9943 74.8006 40.4711C74.7645 40.948 74.7247 41.4659 74.6814 42.025C74.6236 42.7419 74.5802 43.3075 74.5513 43.7218V43.8106C74.5513 43.9619 74.5224 44.1066 74.4646 44.2447C74.4284 44.3105 74.3742 44.3549 74.302 44.3779C74.2297 44.4009 74.161 44.396 74.096 44.3631C74.0743 44.3499 74.0526 44.3401 74.0309 44.3335C73.9876 44.3138 73.9406 44.2809 73.89 44.2348C73.8394 44.1888 73.7979 44.1066 73.7654 43.9882C73.7328 43.8698 73.7202 43.6889 73.7274 43.4456C73.7419 42.9852 73.7636 42.5215 73.7925 42.0546C73.8214 41.6665 73.8412 41.3196 73.8521 41.0137C73.8629 40.7079 73.8503 40.4876 73.8141 40.3528C73.778 40.2179 73.7021 40.2097 73.5865 40.3281C73.3119 40.6504 72.9379 41.2735 72.4645 42.1976C71.9912 43.1217 71.5431 44.0425 71.1203 44.9599C70.6975 45.8774 70.4247 46.4907 70.3019 46.7999C70.2513 46.9314 70.1646 47.0958 70.0417 47.2931C69.9188 47.4904 69.7996 47.6319 69.684 47.7174C69.6406 47.7502 69.5864 47.7765 69.5214 47.7963ZM77.3535 42.8438C77.3138 42.8306 77.2903 42.7912 77.2831 42.7254C77.2831 42.6794 77.2939 42.6333 77.3156 42.5873C77.4529 42.0282 77.6119 41.5761 77.7925 41.2308C77.9732 40.8855 78.1792 40.7128 78.4104 40.7128C78.4538 40.7194 78.4791 40.7786 78.4863 40.8904C78.4936 41.0022 78.4845 41.1321 78.4592 41.2801C78.4339 41.4281 78.396 41.5646 78.3454 41.6895C78.2298 41.9592 78.0997 42.191 77.9552 42.3851C77.8106 42.5791 77.6878 42.7123 77.5866 42.7846C77.5577 42.8043 77.5215 42.8224 77.4782 42.8389C77.4493 42.8498 77.4212 42.8542 77.3939 42.852C77.3802 42.8509 77.3668 42.8482 77.3535 42.8438ZM90.015 44.5555C90.0259 44.5851 90.0566 44.5999 90.1072 44.5999C90.1289 44.5999 90.1505 44.5966 90.1722 44.59C90.1939 44.5834 90.212 44.5735 90.2264 44.5604C90.2626 44.5275 90.2915 44.4946 90.3131 44.4617C90.3276 44.4354 90.3421 44.4124 90.3565 44.3927C90.5516 44.1493 90.7287 43.8961 90.8877 43.633C91.025 43.4094 91.1695 43.1957 91.3213 42.9918C91.8344 42.288 92.2861 41.5547 92.6763 40.7918L92.7414 40.6734C92.8281 40.5353 92.8787 40.384 92.8931 40.2196C92.8859 40.1933 92.8823 40.1637 92.8823 40.1308C92.8823 40.0913 92.8751 40.0551 92.8606 40.0223C92.8462 39.9894 92.8136 39.9664 92.7631 39.9532C92.7125 39.9466 92.6619 39.9466 92.6113 39.9532C92.5607 39.9598 92.5173 39.9729 92.4812 39.9927C92.3222 40.0979 92.1777 40.2163 92.0476 40.3478C91.3899 41.0187 90.8768 41.7685 90.5083 42.5972C90.2409 43.1957 90.0747 43.8172 90.0096 44.4617C90.0024 44.4946 90.0042 44.5259 90.015 44.5555Z" fill="#F76A8F"/>
<path d="M49.4499 61.5609C49.828 61.5609 50.0549 61.3549 50.1305 60.9428C50.7355 58.9512 51.4539 57.0283 52.2857 55.174C52.5126 54.6933 52.7017 54.2297 52.8529 53.7833C53.0042 53.3369 53.1932 53.0794 53.4201 53.0107C55.6131 54.2469 57.3146 54.865 58.5246 54.865C61.247 54.865 63.6669 52.9764 65.7843 49.1992C69.3385 43.2243 71.3425 38.1423 71.7963 33.953C71.7963 33.1289 71.5694 32.7169 71.1157 32.7169C70.5863 32.7169 70.1326 33.438 69.7545 34.8802C67.7127 40.855 65.3684 45.4563 62.7216 48.6841C61.5116 50.195 60.4529 50.9504 59.5455 50.9504C58.7136 50.9504 57.8062 50.401 56.8231 49.3022C56.1425 48.6841 55.8022 48.169 55.8022 47.757C55.8022 47.4823 55.8778 47.2076 56.029 46.9329L59.3186 40.1339C62.1922 33.953 64.1962 29.8324 65.3306 27.7722C65.633 27.3601 65.8221 26.9137 65.8977 26.433C65.8977 25.7462 65.5952 25.4028 64.9903 25.4028C63.6291 25.4028 60.642 30.2102 56.029 39.8249L53.6469 44.4605C53.4957 44.4605 53.3823 44.4262 53.3066 44.3575C53.231 44.2888 53.1932 44.2201 53.1932 44.1515C52.437 42.7093 51.4728 40.3571 50.3007 37.095C49.1285 33.8328 48.429 31.206 48.2022 29.2144C48.1265 28.3216 47.9753 27.4459 47.7484 26.5875C47.5216 25.729 46.9166 25.2998 45.9335 25.2998C44.3454 25.2998 43.5514 26.8794 43.5514 30.0385C43.5514 32.9916 44.1186 36.185 45.2529 39.6188C46.5385 43.5334 48.1643 46.8642 50.1305 49.6112C50.5086 49.9546 50.6977 50.3667 50.6977 50.8474L50.4708 51.5685C48.8828 55.4144 48.0887 58.0928 48.0887 59.6036C48.0887 60.9085 48.5425 61.5609 49.4499 61.5609Z" fill="#E43562"/>
<path d="M43.0514 40.211C43.0514 40.5823 42.8147 40.7277 42.6986 40.7277C42.5824 40.7277 42.3458 40.5823 42.3458 40.211C42.3458 39.8397 42.5824 39.6943 42.6986 39.6943C42.8147 39.6943 43.0514 39.8397 43.0514 40.211Z" stroke="#DA8C8C"/>
<defs>
<filter id="filter0_d" x="0" y="0" width="133" height="177" filterUnits="userSpaceOnUse" color-interpolation-filters="sRGB">
<feFlood flood-opacity="0" result="BackgroundImageFix"/>
<feColorMatrix in="SourceAlpha" type="matrix" values="0 0 0 0 0 0 0 0 0 0 0 0 0 0 0 0 0 0 127 0"/>
<feOffset dx="-2" dy="2"/>
<feGaussianBlur stdDeviation="2"/>
<feColorMatrix type="matrix" values="0 0 0 0 0 0 0 0 0 0 0 0 0 0 0 0 0 0 0.247159 0"/>
<feBlend mode="normal" in2="BackgroundImageFix" result="effect1_dropShadow"/>
<feBlend mode="normal" in="SourceGraphic" in2="effect1_dropShadow" result="shape"/>
</filter>
</defs>
</svg>
