<svg width="133" height="177" viewBox="0 0 133 177" fill="none" xmlns="http://www.w3.org/2000/svg">
<g filter="url(#filter0_d)">
<rect x="6" y="2" width="125" height="169" rx="8" fill="#E4D8F1"/>
</g>
<path fill-rule="evenodd" clip-rule="evenodd" d="M66.5 89C78.9264 89 89 79.1503 89 67C89 54.8497 78.9264 45 66.5 45C54.0736 45 44 54.8497 44 67C44 79.1503 54.0736 89 66.5 89Z" fill="#393A36"/>
<path fill-rule="evenodd" clip-rule="evenodd" d="M89.5 118C101.926 118 112 108.15 112 96C112 83.8497 101.926 74 89.5 74C77.0736 74 67 83.8497 67 96C67 108.15 77.0736 118 89.5 118Z" fill="#393A36"/>
<path fill-rule="evenodd" clip-rule="evenodd" d="M47.5 120C59.9264 120 70 110.15 70 98C70 85.8497 59.9264 76 47.5 76C35.0736 76 25 85.8497 25 98C25 110.15 35.0736 120 47.5 120Z" fill="#393A36"/>
<path fill-rule="evenodd" clip-rule="evenodd" d="M62.5072 107.281C67.7919 110.072 69.9646 116.399 59 130C65.1676 128.982 72.4726 127.23 76 120.426C69.1582 117.344 71.1763 107.92 71.0945 100L62.5072 107.281Z" fill="#393A36" stroke="#393A36"/>
<path fill-rule="evenodd" clip-rule="evenodd" d="M21 39C22.6569 39 24 37.6569 24 36C24 34.3431 22.6569 33 21 33C19.3431 33 18 34.3431 18 36C18 37.6569 19.3431 39 21 39Z" fill="#393A36"/>
<path fill-rule="evenodd" clip-rule="evenodd" d="M24 42C25.6569 42 27 40.6569 27 39C27 37.3431 25.6569 36 24 36C22.3431 36 21 37.3431 21 39C21 40.6569 22.3431 42 24 42Z" fill="#393A36"/>
<path fill-rule="evenodd" clip-rule="evenodd" d="M19 42C20.6569 42 22 40.6569 22 39C22 37.3431 20.6569 36 19 36C17.3431 36 16 37.3431 16 39C16 40.6569 17.3431 42 19 42Z" fill="#393A36"/>
<path fill-rule="evenodd" clip-rule="evenodd" d="M20.6189 41.2135C21.5515 41.6787 21.9349 42.7332 20 45C21.0884 44.8303 22.3775 44.5384 23 43.4043C21.7926 42.8906 22.1488 41.3201 22.1343 40L20.6189 41.2135Z" fill="#393A36" stroke="#393A36"/>
<path d="M28.1963 13.6812C27.3952 13.5239 26.5866 13.4678 25.7705 13.5127C25.763 13.5127 25.7555 13.5127 25.7481 13.5127C25.8529 13.5352 25.9352 13.7635 25.9951 14.1978C26.055 14.6245 26.0962 15.1336 26.1187 15.7251C26.1486 16.3091 26.1636 16.8444 26.1636 17.3311C26.1711 17.8102 26.1711 18.106 26.1636 18.2183C26.0812 19.6483 25.7967 21.0783 25.3101 22.5083C24.8309 23.9383 24.1421 25.2223 23.2437 26.3604C22.6222 27.139 21.8623 27.7192 20.9639 28.1011C20.0729 28.4904 19.1895 28.4941 18.3135 28.1123C17.4375 27.6855 16.8311 27.0229 16.4942 26.1245C16.1647 25.2261 16.2097 24.1929 16.6289 23.0249C16.9808 22.0815 17.4824 21.3516 18.1338 20.835C18.7852 20.3184 19.5414 20.0938 20.4024 20.1611C20.612 20.1836 20.7468 20.2135 20.8067 20.251C20.8666 20.2884 20.8815 20.3296 20.8516 20.3745C20.8216 20.4119 20.773 20.4494 20.7056 20.4868C20.6457 20.5168 20.5933 20.543 20.5484 20.5654C20.0991 20.7601 19.7098 21.0371 19.3804 21.3965C19.051 21.7484 18.7665 22.1414 18.5269 22.5757C18.2798 23.0099 18.0926 23.4666 17.9653 23.9458C17.8381 24.425 17.8119 24.9079 17.8867 25.3945C17.9691 25.9561 18.2349 26.3903 18.6841 26.6973C19.1932 26.9518 19.7136 26.9294 20.2451 26.6299C20.7842 26.3304 21.2671 25.9186 21.6939 25.3945C22.1281 24.8704 22.4388 24.4062 22.626 24.002C23.3597 22.3997 23.8202 20.8013 24.0073 19.2065C24.1945 17.6043 24.2806 15.9272 24.2656 14.1753C24.2806 13.9058 24.1646 13.7822 23.9175 13.8047C23.2886 13.9095 22.6934 14.063 22.1319 14.2651C21.5703 14.4673 21.0837 14.6582 20.6719 14.8379C20.3125 14.9951 20.0355 15.1037 19.8408 15.1636C19.6387 15.2235 19.4328 15.2422 19.2232 15.2197C18.9985 15.1748 18.8263 15.0662 18.7066 14.894C18.5943 14.7218 18.5156 14.5309 18.4707 14.3213C18.4483 14.224 18.4483 14.0892 18.4707 13.917C18.4932 13.7448 18.568 13.5726 18.6953 13.4004C18.8301 13.2282 19.0435 13.0897 19.3355 12.9849C20.0842 12.7453 20.8516 12.5618 21.6377 12.4346C22.4164 12.2998 23.2062 12.2362 24.0073 12.2437C23.9999 12.2287 23.9961 12.2174 23.9961 12.21C23.9961 12.195 23.9924 12.1763 23.9849 12.1538C23.9549 11.9517 23.9774 11.7682 24.0523 11.6035C24.1271 11.4313 24.2619 11.3452 24.4566 11.3452C24.786 11.3752 25.0293 11.4912 25.1865 11.6934C25.3438 11.8955 25.4448 12.1126 25.4898 12.3447C26.3882 12.4645 26.9759 12.5656 27.2529 12.6479C27.3503 12.6779 27.4476 12.7004 27.5449 12.7153C27.6947 12.7453 27.8444 12.7902 27.9942 12.8501C28.2562 12.9474 28.4284 13.1196 28.5108 13.3667C28.5257 13.4341 28.522 13.5015 28.4995 13.5688C28.4771 13.6362 28.4321 13.6812 28.3648 13.7036C28.3198 13.7111 28.2749 13.7074 28.23 13.6924C28.215 13.6849 28.2038 13.6812 28.1963 13.6812Z" fill="black"/>
<path d="M120.196 142.681C119.395 142.524 118.587 142.468 117.771 142.513C117.763 142.513 117.756 142.513 117.748 142.513C117.853 142.535 117.935 142.764 117.995 143.198C118.055 143.625 118.096 144.134 118.119 144.725C118.149 145.309 118.164 145.844 118.164 146.331C118.171 146.81 118.171 147.106 118.164 147.218C118.081 148.648 117.797 150.078 117.31 151.508C116.831 152.938 116.142 154.222 115.244 155.36C114.622 156.139 113.862 156.719 112.964 157.101C112.073 157.49 111.189 157.494 110.313 157.112C109.438 156.686 108.831 156.023 108.494 155.125C108.165 154.226 108.21 153.193 108.629 152.025C108.981 151.082 109.482 150.352 110.134 149.835C110.785 149.318 111.541 149.094 112.402 149.161C112.612 149.184 112.747 149.214 112.807 149.251C112.867 149.288 112.882 149.33 112.852 149.375C112.822 149.412 112.773 149.449 112.706 149.487C112.646 149.517 112.593 149.543 112.548 149.565C112.099 149.76 111.71 150.037 111.38 150.396C111.051 150.748 110.766 151.141 110.527 151.576C110.28 152.01 110.093 152.467 109.965 152.946C109.838 153.425 109.812 153.908 109.887 154.395C109.969 154.956 110.235 155.39 110.684 155.697C111.193 155.952 111.714 155.929 112.245 155.63C112.784 155.33 113.267 154.919 113.694 154.395C114.128 153.87 114.439 153.406 114.626 153.002C115.36 151.4 115.82 149.801 116.007 148.207C116.195 146.604 116.281 144.927 116.266 143.175C116.281 142.906 116.165 142.782 115.917 142.805C115.289 142.91 114.693 143.063 114.132 143.265C113.57 143.467 113.084 143.658 112.672 143.838C112.313 143.995 112.035 144.104 111.841 144.164C111.639 144.223 111.433 144.242 111.223 144.22C110.999 144.175 110.826 144.066 110.707 143.894C110.594 143.722 110.516 143.531 110.471 143.321C110.448 143.224 110.448 143.089 110.471 142.917C110.493 142.745 110.568 142.573 110.695 142.4C110.83 142.228 111.043 142.09 111.335 141.985C112.084 141.745 112.852 141.562 113.638 141.435C114.416 141.3 115.206 141.236 116.007 141.244C116 141.229 115.996 141.217 115.996 141.21C115.996 141.195 115.992 141.176 115.985 141.154C115.955 140.952 115.977 140.768 116.052 140.604C116.127 140.431 116.262 140.345 116.457 140.345C116.786 140.375 117.029 140.491 117.187 140.693C117.344 140.896 117.445 141.113 117.49 141.345C118.388 141.465 118.976 141.566 119.253 141.648C119.35 141.678 119.448 141.7 119.545 141.715C119.695 141.745 119.844 141.79 119.994 141.85C120.256 141.947 120.428 142.12 120.511 142.367C120.526 142.434 120.522 142.501 120.5 142.569C120.477 142.636 120.432 142.681 120.365 142.704C120.32 142.711 120.275 142.707 120.23 142.692C120.215 142.685 120.204 142.681 120.196 142.681Z" fill="black"/>
<defs>
<filter id="filter0_d" x="0" y="0" width="133" height="177" filterUnits="userSpaceOnUse" color-interpolation-filters="sRGB">
<feFlood flood-opacity="0" result="BackgroundImageFix"/>
<feColorMatrix in="SourceAlpha" type="matrix" values="0 0 0 0 0 0 0 0 0 0 0 0 0 0 0 0 0 0 127 0"/>
<feOffset dx="-2" dy="2"/>
<feGaussianBlur stdDeviation="2"/>
<feColorMatrix type="matrix" values="0 0 0 0 0 0 0 0 0 0 0 0 0 0 0 0 0 0 0.247159 0"/>
<feBlend mode="normal" in2="BackgroundImageFix" result="effect1_dropShadow"/>
<feBlend mode="normal" in="SourceGraphic" in2="effect1_dropShadow" result="shape"/>
</filter>
</defs>
</svg>
