<svg width="133" height="177" viewBox="0 0 133 177" fill="none" xmlns="http://www.w3.org/2000/svg">
<g filter="url(#filter0_d)">
<rect x="6" y="2" width="125" height="169" rx="8" fill="#E4D8F1"/>
</g>
<path fill-rule="evenodd" clip-rule="evenodd" d="M73.6412 50.002C122.854 51.8913 123.896 77.9654 75.7415 128.284C74.4914 129.59 71.6978 131 71.6978 131C71.6978 131 68.3157 129.446 66.9498 127.904C60.761 120.919 54.9876 113.443 50.3884 107.396C39.4666 93.0352 33.4914 82.2786 32.233 73.2005C30.2902 59.1852 40.4504 51.4588 64.5248 50.002C66.2784 49.8959 71.6978 55.5431 71.6978 55.5431L73.6412 58.5526C73.6412 58.5526 75.0333 63.2401 75.0333 56.8261C75.0333 52.0542 73.6081 51.4695 73.6412 50.002Z" fill="#F2416F"/>
<path fill-rule="evenodd" clip-rule="evenodd" d="M22.3082 33.0003C29.7634 33.3035 29.9213 37.4882 22.6264 45.564C22.437 45.7737 22.0138 46 22.0138 46C22.0138 46 21.5014 45.7505 21.2945 45.5031C20.357 44.382 19.4824 43.1821 18.7856 42.2116C17.1311 39.9068 16.2259 38.1805 16.0353 36.7235C15.741 34.4741 17.2801 33.2341 20.9272 33.0003C21.1928 32.9833 22.0138 33.8896 22.0138 33.8896L22.3082 34.3726C22.3082 34.3726 22.5191 35.1249 22.5191 34.0955C22.5191 33.3297 22.3032 33.2358 22.3082 33.0003Z" fill="#F2416F"/>
<path d="M26.6054 16.5488C25.9088 16.4121 25.2057 16.3633 24.4961 16.4023C24.4896 16.4023 24.483 16.4023 24.4765 16.4023C24.5677 16.4219 24.6393 16.6204 24.6914 16.998C24.7435 17.3691 24.7793 17.8118 24.7988 18.3262C24.8248 18.834 24.8379 19.2995 24.8379 19.7227C24.8444 20.1393 24.8444 20.3965 24.8379 20.4941C24.7663 21.7376 24.5189 22.9811 24.0957 24.2246C23.679 25.4681 23.0801 26.5846 22.2988 27.5742C21.7584 28.2513 21.0976 28.7559 20.3164 29.0879C19.5416 29.4264 18.7734 29.4297 18.0117 29.0977C17.25 28.7266 16.7226 28.1504 16.4297 27.3691C16.1432 26.5879 16.1823 25.6895 16.5469 24.6738C16.8528 23.8535 17.289 23.2188 17.8554 22.7695C18.4219 22.3203 19.0794 22.125 19.8281 22.1836C20.0104 22.2031 20.1276 22.2292 20.1797 22.2617C20.2317 22.2943 20.2448 22.3301 20.2187 22.3691C20.1927 22.4017 20.1504 22.4342 20.0918 22.4668C20.0397 22.4928 19.9941 22.5156 19.9551 22.5352C19.5644 22.7044 19.2259 22.9453 18.9394 23.2578C18.653 23.5638 18.4056 23.9056 18.1972 24.2832C17.9824 24.6608 17.8196 25.0579 17.709 25.4746C17.5983 25.8913 17.5755 26.3112 17.6406 26.7344C17.7122 27.2227 17.9433 27.6003 18.334 27.8672C18.7767 28.0885 19.2291 28.069 19.6914 27.8086C20.1601 27.5482 20.5801 27.1901 20.9511 26.7344C21.3288 26.2786 21.5989 25.875 21.7617 25.5234C22.3997 24.1302 22.8001 22.7402 22.9629 21.3535C23.1256 19.9603 23.2005 18.502 23.1875 16.9785C23.2005 16.7441 23.0996 16.6367 22.8847 16.6562C22.3379 16.7474 21.8203 16.8809 21.332 17.0566C20.8437 17.2324 20.4205 17.3984 20.0625 17.5547C19.75 17.6914 19.5091 17.7858 19.3398 17.8379C19.164 17.89 18.985 17.9062 18.8027 17.8867C18.6074 17.8477 18.4577 17.7533 18.3535 17.6035C18.2558 17.4538 18.1875 17.2878 18.1484 17.1055C18.1289 17.0208 18.1289 16.9036 18.1484 16.7539C18.1679 16.6042 18.233 16.4544 18.3437 16.3047C18.4609 16.1549 18.6465 16.0345 18.9004 15.9434C19.5514 15.735 20.2187 15.5755 20.9023 15.4648C21.5794 15.3477 22.2663 15.2923 22.9629 15.2988C22.9564 15.2858 22.9531 15.276 22.9531 15.2695C22.9531 15.2565 22.9498 15.2402 22.9433 15.2207C22.9173 15.0449 22.9368 14.8854 23.0019 14.7422C23.067 14.5924 23.1842 14.5176 23.3535 14.5176C23.6399 14.5436 23.8515 14.6445 23.9883 14.8203C24.125 14.9961 24.2129 15.1849 24.2519 15.3867C25.0332 15.4909 25.5442 15.5788 25.7851 15.6504C25.8698 15.6764 25.9544 15.696 26.039 15.709C26.1692 15.735 26.2995 15.7741 26.4297 15.8262C26.6575 15.9108 26.8073 16.0605 26.8789 16.2754C26.8919 16.334 26.8886 16.3926 26.8691 16.4512C26.8496 16.5098 26.8105 16.5488 26.7519 16.5684C26.7129 16.5749 26.6738 16.5716 26.6347 16.5586C26.6217 16.5521 26.612 16.5488 26.6054 16.5488Z" fill="#F2416F"/>
<path d="M120.605 143.549C119.909 143.412 119.206 143.363 118.496 143.402C118.49 143.402 118.483 143.402 118.477 143.402C118.568 143.422 118.639 143.62 118.691 143.998C118.743 144.369 118.779 144.812 118.799 145.326C118.825 145.834 118.838 146.299 118.838 146.723C118.844 147.139 118.844 147.396 118.838 147.494C118.766 148.738 118.519 149.981 118.096 151.225C117.679 152.468 117.08 153.585 116.299 154.574C115.758 155.251 115.098 155.756 114.316 156.088C113.542 156.426 112.773 156.43 112.012 156.098C111.25 155.727 110.723 155.15 110.43 154.369C110.143 153.588 110.182 152.689 110.547 151.674C110.853 150.854 111.289 150.219 111.855 149.77C112.422 149.32 113.079 149.125 113.828 149.184C114.01 149.203 114.128 149.229 114.18 149.262C114.232 149.294 114.245 149.33 114.219 149.369C114.193 149.402 114.15 149.434 114.092 149.467C114.04 149.493 113.994 149.516 113.955 149.535C113.564 149.704 113.226 149.945 112.939 150.258C112.653 150.564 112.406 150.906 112.197 151.283C111.982 151.661 111.82 152.058 111.709 152.475C111.598 152.891 111.575 153.311 111.641 153.734C111.712 154.223 111.943 154.6 112.334 154.867C112.777 155.089 113.229 155.069 113.691 154.809C114.16 154.548 114.58 154.19 114.951 153.734C115.329 153.279 115.599 152.875 115.762 152.523C116.4 151.13 116.8 149.74 116.963 148.354C117.126 146.96 117.2 145.502 117.187 143.979C117.2 143.744 117.1 143.637 116.885 143.656C116.338 143.747 115.82 143.881 115.332 144.057C114.844 144.232 114.421 144.398 114.062 144.555C113.75 144.691 113.509 144.786 113.34 144.838C113.164 144.89 112.985 144.906 112.803 144.887C112.607 144.848 112.458 144.753 112.353 144.604C112.256 144.454 112.187 144.288 112.148 144.105C112.129 144.021 112.129 143.904 112.148 143.754C112.168 143.604 112.233 143.454 112.344 143.305C112.461 143.155 112.646 143.035 112.9 142.943C113.551 142.735 114.219 142.576 114.902 142.465C115.579 142.348 116.266 142.292 116.963 142.299C116.956 142.286 116.953 142.276 116.953 142.27C116.953 142.257 116.95 142.24 116.943 142.221C116.917 142.045 116.937 141.885 117.002 141.742C117.067 141.592 117.184 141.518 117.353 141.518C117.64 141.544 117.852 141.645 117.988 141.82C118.125 141.996 118.213 142.185 118.252 142.387C119.033 142.491 119.544 142.579 119.785 142.65C119.87 142.676 119.954 142.696 120.039 142.709C120.169 142.735 120.299 142.774 120.43 142.826C120.658 142.911 120.807 143.061 120.879 143.275C120.892 143.334 120.889 143.393 120.869 143.451C120.85 143.51 120.811 143.549 120.752 143.568C120.713 143.575 120.674 143.572 120.635 143.559C120.622 143.552 120.612 143.549 120.605 143.549Z" fill="#F2416F"/>
<defs>
<filter id="filter0_d" x="0" y="0" width="133" height="177" filterUnits="userSpaceOnUse" color-interpolation-filters="sRGB">
<feFlood flood-opacity="0" result="BackgroundImageFix"/>
<feColorMatrix in="SourceAlpha" type="matrix" values="0 0 0 0 0 0 0 0 0 0 0 0 0 0 0 0 0 0 127 0"/>
<feOffset dx="-2" dy="2"/>
<feGaussianBlur stdDeviation="2"/>
<feColorMatrix type="matrix" values="0 0 0 0 0 0 0 0 0 0 0 0 0 0 0 0 0 0 0.247159 0"/>
<feBlend mode="normal" in2="BackgroundImageFix" result="effect1_dropShadow"/>
<feBlend mode="normal" in="SourceGraphic" in2="effect1_dropShadow" result="shape"/>
</filter>
</defs>
</svg>
