<svg width="133" height="177" viewBox="0 0 133 177" fill="none" xmlns="http://www.w3.org/2000/svg">
<g filter="url(#filter0_d)">
<rect x="6" y="2" width="125" height="169" rx="8" fill="#E4D8F1"/>
</g>
<path fill-rule="evenodd" clip-rule="evenodd" d="M66.5 89C78.9264 89 89 79.1503 89 67C89 54.8497 78.9264 45 66.5 45C54.0736 45 44 54.8497 44 67C44 79.1503 54.0736 89 66.5 89Z" fill="#393A36"/>
<path fill-rule="evenodd" clip-rule="evenodd" d="M89.5 118C101.926 118 112 108.15 112 96C112 83.8497 101.926 74 89.5 74C77.0736 74 67 83.8497 67 96C67 108.15 77.0736 118 89.5 118Z" fill="#393A36"/>
<path fill-rule="evenodd" clip-rule="evenodd" d="M47.5 120C59.9264 120 70 110.15 70 98C70 85.8497 59.9264 76 47.5 76C35.0736 76 25 85.8497 25 98C25 110.15 35.0736 120 47.5 120Z" fill="#393A36"/>
<path fill-rule="evenodd" clip-rule="evenodd" d="M62.5072 107.281C67.7919 110.072 69.9646 116.399 59 130C65.1676 128.982 72.4726 127.23 76 120.426C69.1582 117.344 71.1763 107.92 71.0945 100L62.5072 107.281Z" fill="#393A36" stroke="#393A36"/>
<path fill-rule="evenodd" clip-rule="evenodd" d="M21 39C22.6569 39 24 37.6569 24 36C24 34.3431 22.6569 33 21 33C19.3431 33 18 34.3431 18 36C18 37.6569 19.3431 39 21 39Z" fill="#393A36"/>
<path fill-rule="evenodd" clip-rule="evenodd" d="M24 42C25.6569 42 27 40.6569 27 39C27 37.3431 25.6569 36 24 36C22.3431 36 21 37.3431 21 39C21 40.6569 22.3431 42 24 42Z" fill="#393A36"/>
<path fill-rule="evenodd" clip-rule="evenodd" d="M19 42C20.6569 42 22 40.6569 22 39C22 37.3431 20.6569 36 19 36C17.3431 36 16 37.3431 16 39C16 40.6569 17.3431 42 19 42Z" fill="#393A36"/>
<path fill-rule="evenodd" clip-rule="evenodd" d="M20.6189 41.2135C21.5515 41.6787 21.9349 42.7332 20 45C21.0884 44.8303 22.3775 44.5384 23 43.4043C21.7926 42.8906 22.1488 41.3201 22.1343 40L20.6189 41.2135Z" fill="#393A36" stroke="#393A36"/>
<path d="M25.7599 22.9912C25.6176 23.2083 25.3818 23.373 25.0524 23.4853C24.7304 23.5901 24.4309 23.6351 24.1539 23.6201C23.2106 23.5377 22.4357 23.3431 21.8292 23.0361C21.2303 22.7216 20.6837 22.3698 20.1896 21.9804C20.1297 21.9355 20.0698 21.8943 20.0099 21.8569C19.8227 23.1746 19.7291 24.1816 19.7291 24.8779C19.7291 25.5667 19.774 26.3603 19.8639 27.2588C19.8863 27.4459 19.9051 27.6443 19.92 27.854C19.92 27.8989 19.9125 27.9588 19.8976 28.0337C19.8901 28.1085 19.8751 28.1796 19.8526 28.247C19.8302 28.3144 19.804 28.3556 19.774 28.3706C19.6617 28.438 19.5494 28.4679 19.4371 28.4604C19.3248 28.4529 19.1975 28.3818 19.0553 28.247C18.5387 27.708 18.228 27.0716 18.1232 26.3379C18.0258 25.8138 17.9697 25.1886 17.9547 24.4624C17.9397 23.7361 17.9846 22.8339 18.0895 21.7558C17.9772 21.6884 17.8012 21.6585 17.5616 21.666C17.5242 21.666 17.4905 21.6622 17.4606 21.6547C17.2659 21.6398 17.1386 21.5537 17.0787 21.3964C17.0263 21.2392 17.0076 21.0857 17.0226 20.936C17.0301 20.8536 17.0563 20.7526 17.1012 20.6328C17.1461 20.5055 17.2097 20.3969 17.2921 20.3071C17.3819 20.2098 17.4942 20.1574 17.629 20.1499C17.644 20.1499 17.6627 20.1536 17.6852 20.1611C17.76 20.1611 17.8574 20.1574 17.9772 20.1499C18.097 20.1349 18.2093 20.0825 18.3141 19.9926C18.4189 19.2739 18.5499 18.4765 18.7071 17.6005C18.8045 17.054 18.9542 16.3802 19.1564 15.5791C19.3585 14.7705 19.6879 13.6137 20.1446 12.1088C20.1521 12.0789 20.1596 12.049 20.1671 12.019C20.1821 11.9292 20.212 11.8318 20.2569 11.727C20.3094 11.6147 20.388 11.5211 20.4928 11.4463C20.5976 11.3714 20.7436 11.3452 20.9308 11.3676C21.3875 11.3826 21.7693 11.5773 22.0763 11.9516C22.211 12.1613 22.2298 12.3821 22.1324 12.6142C21.7955 13.5201 21.496 14.4822 21.234 15.5005C20.9794 16.5187 20.7773 17.4171 20.6275 18.1958C20.4778 18.9744 20.3955 19.4536 20.3805 19.6333C21.3762 18.8471 22.3645 17.9038 23.3453 16.8032C24.3336 15.6951 25.3369 14.5122 26.3551 13.2544C26.8268 12.6779 27.3059 12.0976 27.7926 11.5136C27.8525 11.4388 27.9124 11.4013 27.9723 11.4013C28.0397 11.3938 28.107 11.4051 28.1744 11.435C28.1894 11.4425 28.2006 11.4463 28.2081 11.4463C28.283 11.4762 28.3466 11.5136 28.399 11.5586C28.7135 11.9179 28.8033 12.3522 28.6686 12.8613C28.5413 13.3629 28.3579 13.7784 28.1183 14.1079C27.8487 14.5047 27.392 15.0699 26.7482 15.8037C26.1043 16.5299 25.2695 17.3422 24.2438 18.2407C23.218 19.1316 21.9977 20.0188 20.5826 20.9023C21.541 21.6585 22.956 22.1377 24.8277 22.3398C25.6289 22.4297 25.9396 22.6468 25.7599 22.9912Z" fill="black"/>
<path d="M117.76 151.991C117.618 152.208 117.382 152.373 117.052 152.485C116.73 152.59 116.431 152.635 116.154 152.62C115.211 152.538 114.436 152.343 113.829 152.036C113.23 151.722 112.684 151.37 112.19 150.98C112.13 150.936 112.07 150.894 112.01 150.857C111.823 152.175 111.729 153.182 111.729 153.878C111.729 154.567 111.774 155.36 111.864 156.259C111.886 156.446 111.905 156.644 111.92 156.854C111.92 156.899 111.913 156.959 111.898 157.034C111.89 157.109 111.875 157.18 111.853 157.247C111.83 157.314 111.804 157.356 111.774 157.371C111.662 157.438 111.549 157.468 111.437 157.46C111.325 157.453 111.198 157.382 111.055 157.247C110.539 156.708 110.228 156.072 110.123 155.338C110.026 154.814 109.97 154.189 109.955 153.462C109.94 152.736 109.985 151.834 110.089 150.756C109.977 150.688 109.801 150.658 109.562 150.666C109.524 150.666 109.491 150.662 109.461 150.655C109.266 150.64 109.139 150.554 109.079 150.396C109.026 150.239 109.008 150.086 109.023 149.936C109.03 149.854 109.056 149.753 109.101 149.633C109.146 149.505 109.21 149.397 109.292 149.307C109.382 149.21 109.494 149.157 109.629 149.15C109.644 149.15 109.663 149.154 109.685 149.161C109.76 149.161 109.857 149.157 109.977 149.15C110.097 149.135 110.209 149.082 110.314 148.993C110.419 148.274 110.55 147.477 110.707 146.601C110.804 146.054 110.954 145.38 111.156 144.579C111.359 143.77 111.688 142.614 112.145 141.109C112.152 141.079 112.16 141.049 112.167 141.019C112.182 140.929 112.212 140.832 112.257 140.727C112.309 140.615 112.388 140.521 112.493 140.446C112.598 140.371 112.744 140.345 112.931 140.368C113.387 140.383 113.769 140.577 114.076 140.952C114.211 141.161 114.23 141.382 114.132 141.614C113.796 142.52 113.496 143.482 113.234 144.5C112.979 145.519 112.777 146.417 112.628 147.196C112.478 147.974 112.395 148.454 112.38 148.633C113.376 147.847 114.365 146.904 115.345 145.803C116.334 144.695 117.337 143.512 118.355 142.254C118.827 141.678 119.306 141.098 119.793 140.514C119.852 140.439 119.912 140.401 119.972 140.401C120.04 140.394 120.107 140.405 120.174 140.435C120.189 140.443 120.201 140.446 120.208 140.446C120.283 140.476 120.347 140.514 120.399 140.559C120.713 140.918 120.803 141.352 120.669 141.861C120.541 142.363 120.358 142.778 120.118 143.108C119.849 143.505 119.392 144.07 118.748 144.804C118.104 145.53 117.269 146.342 116.244 147.241C115.218 148.132 113.998 149.019 112.583 149.902C113.541 150.658 114.956 151.138 116.828 151.34C117.629 151.43 117.94 151.647 117.76 151.991Z" fill="black"/>
<defs>
<filter id="filter0_d" x="0" y="0" width="133" height="177" filterUnits="userSpaceOnUse" color-interpolation-filters="sRGB">
<feFlood flood-opacity="0" result="BackgroundImageFix"/>
<feColorMatrix in="SourceAlpha" type="matrix" values="0 0 0 0 0 0 0 0 0 0 0 0 0 0 0 0 0 0 127 0"/>
<feOffset dx="-2" dy="2"/>
<feGaussianBlur stdDeviation="2"/>
<feColorMatrix type="matrix" values="0 0 0 0 0 0 0 0 0 0 0 0 0 0 0 0 0 0 0.247159 0"/>
<feBlend mode="normal" in2="BackgroundImageFix" result="effect1_dropShadow"/>
<feBlend mode="normal" in="SourceGraphic" in2="effect1_dropShadow" result="shape"/>
</filter>
</defs>
</svg>
