<svg width="133" height="177" viewBox="0 0 133 177" fill="none" xmlns="http://www.w3.org/2000/svg">
<g filter="url(#filter0_d)">
<rect x="6" y="2" width="125" height="169" rx="8" fill="#E4D8F1"/>
</g>
<path fill-rule="evenodd" clip-rule="evenodd" d="M73.6411 50.002C122.854 51.8913 123.896 77.9654 75.7414 128.284C74.4913 129.59 71.6977 131 71.6977 131C71.6977 131 68.3156 129.446 66.9496 127.904C60.7609 120.919 54.9875 113.443 50.3883 107.396C39.4665 93.0352 33.4913 82.2786 32.2329 73.2005C30.2901 59.1852 40.4503 51.4588 64.5247 50.002C66.2783 49.8959 71.6977 55.5431 71.6977 55.5431L73.6411 58.5526C73.6411 58.5526 75.0332 63.2401 75.0332 56.8261C75.0332 52.0542 73.608 51.4695 73.6411 50.002Z" fill="#F2416F"/>
<path fill-rule="evenodd" clip-rule="evenodd" d="M22.3082 33.0003C29.7634 33.3035 29.9213 37.4882 22.6264 45.564C22.437 45.7737 22.0138 46 22.0138 46C22.0138 46 21.5014 45.7505 21.2945 45.5031C20.357 44.382 19.4824 43.1821 18.7856 42.2116C17.1311 39.9068 16.2259 38.1805 16.0353 36.7235C15.741 34.4741 17.2801 33.2341 20.9272 33.0003C21.1928 32.9833 22.0138 33.8896 22.0138 33.8896L22.3082 34.3726C22.3082 34.3726 22.5191 35.1249 22.5191 34.0955C22.5191 33.3297 22.3032 33.2358 22.3082 33.0003Z" fill="#F2416F"/>
<path d="M25.6171 24.6445C25.4934 24.8333 25.2884 24.9765 25.0019 25.0741C24.722 25.1653 24.4615 25.2044 24.2206 25.1913C23.4003 25.1197 22.7265 24.9504 22.1992 24.6835C21.6783 24.4101 21.2031 24.1041 20.7734 23.7655C20.7213 23.7265 20.6692 23.6907 20.6171 23.6581C20.4544 24.804 20.373 25.6796 20.373 26.2851C20.373 26.884 20.4121 27.5741 20.4902 28.3554C20.5097 28.5182 20.526 28.6907 20.539 28.873C20.539 28.912 20.5325 28.9641 20.5195 29.0292C20.513 29.0943 20.4999 29.1562 20.4804 29.2148C20.4609 29.2734 20.4381 29.3092 20.4121 29.3222C20.3144 29.3808 20.2167 29.4068 20.1191 29.4003C20.0214 29.3938 19.9108 29.332 19.7871 29.2148C19.3378 28.746 19.0677 28.1926 18.9765 27.5546C18.8919 27.0989 18.843 26.5553 18.83 25.9238C18.817 25.2922 18.8561 24.5077 18.9472 23.5702C18.8496 23.5116 18.6966 23.4856 18.4882 23.4921C18.4557 23.4921 18.4264 23.4889 18.4003 23.4823C18.2311 23.4693 18.1204 23.3945 18.0683 23.2577C18.0227 23.121 18.0065 22.9876 18.0195 22.8573C18.026 22.7857 18.0488 22.6978 18.0878 22.5937C18.1269 22.483 18.1822 22.3886 18.2539 22.3105C18.332 22.2258 18.4296 22.1803 18.5468 22.1738C18.5598 22.1738 18.5761 22.177 18.5956 22.1835C18.6608 22.1835 18.7454 22.1803 18.8496 22.1738C18.9537 22.1607 19.0514 22.1152 19.1425 22.037C19.2337 21.412 19.3476 20.7187 19.4843 19.957C19.569 19.4817 19.6992 18.8958 19.8749 18.1991C20.0507 17.496 20.3372 16.4902 20.7343 15.1816C20.7408 15.1555 20.7473 15.1295 20.7539 15.1034C20.7669 15.0253 20.7929 14.9407 20.832 14.8495C20.8775 14.7519 20.9459 14.6705 21.0371 14.6054C21.1282 14.5403 21.2552 14.5175 21.4179 14.537C21.815 14.5501 22.1471 14.7193 22.414 15.0448C22.5312 15.2271 22.5475 15.4192 22.4628 15.621C22.1699 16.4088 21.9095 17.2454 21.6816 18.1308C21.4602 19.0162 21.2845 19.7975 21.1542 20.4745C21.024 21.1516 20.9524 21.5683 20.9394 21.7245C21.8053 21.0409 22.6647 20.2206 23.5175 19.2636C24.3769 18.3001 25.2493 17.2714 26.1347 16.1777C26.5449 15.6764 26.9615 15.1718 27.3847 14.664C27.4368 14.5989 27.4889 14.5663 27.541 14.5663C27.5996 14.5598 27.6581 14.5696 27.7167 14.5956C27.7298 14.6021 27.7395 14.6054 27.746 14.6054C27.8111 14.6314 27.8665 14.664 27.9121 14.703C28.1855 15.0155 28.2636 15.3932 28.1464 15.8359C28.0358 16.2721 27.8762 16.6334 27.6679 16.9198C27.4335 17.2649 27.0364 17.7564 26.4765 18.3945C25.9166 19.026 25.1907 19.7323 24.2988 20.5136C23.4068 21.2883 22.3456 22.0598 21.1152 22.828C21.9485 23.4856 23.179 23.9023 24.8066 24.078C25.5032 24.1562 25.7734 24.345 25.6171 24.6445Z" fill="#F2416F"/>
<path d="M121.617 151.644C121.493 151.833 121.288 151.976 121.002 152.074C120.722 152.165 120.462 152.204 120.221 152.191C119.4 152.12 118.727 151.95 118.199 151.684C117.678 151.41 117.203 151.104 116.773 150.766C116.721 150.726 116.669 150.691 116.617 150.658C116.454 151.804 116.373 152.68 116.373 153.285C116.373 153.884 116.412 154.574 116.49 155.355C116.51 155.518 116.526 155.691 116.539 155.873C116.539 155.912 116.532 155.964 116.519 156.029C116.513 156.094 116.5 156.156 116.48 156.215C116.461 156.273 116.438 156.309 116.412 156.322C116.314 156.381 116.217 156.407 116.119 156.4C116.021 156.394 115.911 156.332 115.787 156.215C115.338 155.746 115.068 155.193 114.977 154.555C114.892 154.099 114.843 153.555 114.83 152.924C114.817 152.292 114.856 151.508 114.947 150.57C114.85 150.512 114.697 150.486 114.488 150.492C114.456 150.492 114.426 150.489 114.4 150.482C114.231 150.469 114.12 150.394 114.068 150.258C114.023 150.121 114.006 149.988 114.019 149.857C114.026 149.786 114.049 149.698 114.088 149.594C114.127 149.483 114.182 149.389 114.254 149.31C114.332 149.226 114.43 149.18 114.547 149.174C114.56 149.174 114.576 149.177 114.596 149.184C114.661 149.184 114.745 149.18 114.85 149.174C114.954 149.161 115.051 149.115 115.143 149.037C115.234 148.412 115.348 147.719 115.484 146.957C115.569 146.482 115.699 145.896 115.875 145.199C116.051 144.496 116.337 143.49 116.734 142.182C116.741 142.156 116.747 142.129 116.754 142.103C116.767 142.025 116.793 141.941 116.832 141.85C116.878 141.752 116.946 141.67 117.037 141.605C117.128 141.54 117.255 141.518 117.418 141.537C117.815 141.55 118.147 141.719 118.414 142.045C118.531 142.227 118.547 142.419 118.463 142.621C118.17 143.409 117.909 144.245 117.682 145.131C117.46 146.016 117.284 146.797 117.154 147.475C117.024 148.152 116.952 148.568 116.939 148.725C117.805 148.041 118.665 147.221 119.518 146.264C120.377 145.3 121.249 144.271 122.135 143.178C122.545 142.676 122.962 142.172 123.385 141.664C123.437 141.599 123.489 141.566 123.541 141.566C123.6 141.56 123.658 141.57 123.717 141.596C123.73 141.602 123.74 141.605 123.746 141.605C123.811 141.631 123.866 141.664 123.912 141.703C124.185 142.016 124.264 142.393 124.146 142.836C124.036 143.272 123.876 143.633 123.668 143.92C123.434 144.265 123.036 144.756 122.477 145.394C121.917 146.026 121.191 146.732 120.299 147.514C119.407 148.288 118.346 149.06 117.115 149.828C117.949 150.486 119.179 150.902 120.807 151.078C121.503 151.156 121.773 151.345 121.617 151.644Z" fill="#F2416F"/>
<defs>
<filter id="filter0_d" x="0" y="0" width="133" height="177" filterUnits="userSpaceOnUse" color-interpolation-filters="sRGB">
<feFlood flood-opacity="0" result="BackgroundImageFix"/>
<feColorMatrix in="SourceAlpha" type="matrix" values="0 0 0 0 0 0 0 0 0 0 0 0 0 0 0 0 0 0 127 0"/>
<feOffset dx="-2" dy="2"/>
<feGaussianBlur stdDeviation="2"/>
<feColorMatrix type="matrix" values="0 0 0 0 0 0 0 0 0 0 0 0 0 0 0 0 0 0 0.247159 0"/>
<feBlend mode="normal" in2="BackgroundImageFix" result="effect1_dropShadow"/>
<feBlend mode="normal" in="SourceGraphic" in2="effect1_dropShadow" result="shape"/>
</filter>
</defs>
</svg>
