<svg width="133" height="177" viewBox="0 0 133 177" fill="none" xmlns="http://www.w3.org/2000/svg">
<g filter="url(#filter0_d)">
<rect x="6" y="2" width="125" height="169" rx="8" fill="#E4D8F1"/>
</g>
<path fill-rule="evenodd" clip-rule="evenodd" d="M66.5 89C78.9264 89 89 79.1503 89 67C89 54.8497 78.9264 45 66.5 45C54.0736 45 44 54.8497 44 67C44 79.1503 54.0736 89 66.5 89Z" fill="#393A36"/>
<path fill-rule="evenodd" clip-rule="evenodd" d="M89.5 118C101.926 118 112 108.15 112 96C112 83.8497 101.926 74 89.5 74C77.0736 74 67 83.8497 67 96C67 108.15 77.0736 118 89.5 118Z" fill="#393A36"/>
<path fill-rule="evenodd" clip-rule="evenodd" d="M47.5 120C59.9264 120 70 110.15 70 98C70 85.8497 59.9264 76 47.5 76C35.0736 76 25 85.8497 25 98C25 110.15 35.0736 120 47.5 120Z" fill="#393A36"/>
<path fill-rule="evenodd" clip-rule="evenodd" d="M62.5072 107.281C67.7919 110.072 69.9646 116.399 59 130C65.1676 128.982 72.4726 127.23 76 120.426C69.1582 117.344 71.1763 107.92 71.0945 100L62.5072 107.281Z" fill="#393A36" stroke="#393A36"/>
<path fill-rule="evenodd" clip-rule="evenodd" d="M21 39C22.6569 39 24 37.6569 24 36C24 34.3431 22.6569 33 21 33C19.3431 33 18 34.3431 18 36C18 37.6569 19.3431 39 21 39Z" fill="#393A36"/>
<path fill-rule="evenodd" clip-rule="evenodd" d="M24 42C25.6569 42 27 40.6569 27 39C27 37.3431 25.6569 36 24 36C22.3431 36 21 37.3431 21 39C21 40.6569 22.3431 42 24 42Z" fill="#393A36"/>
<path fill-rule="evenodd" clip-rule="evenodd" d="M19 42C20.6569 42 22 40.6569 22 39C22 37.3431 20.6569 36 19 36C17.3431 36 16 37.3431 16 39C16 40.6569 17.3431 42 19 42Z" fill="#393A36"/>
<path fill-rule="evenodd" clip-rule="evenodd" d="M20.6189 41.2135C21.5515 41.6787 21.9349 42.7332 20 45C21.0884 44.8303 22.3775 44.5384 23 43.4043C21.7926 42.8906 22.1488 41.3201 22.1343 40L20.6189 41.2135Z" fill="#393A36" stroke="#393A36"/>
<path d="M27.1625 15.2759C27.4395 16.938 27.3422 18.5851 26.8705 20.2173C26.4063 21.8494 25.6876 23.3543 24.7143 24.7319C24.879 25.0164 25.01 25.2223 25.1073 25.3496C25.4368 25.7913 25.7774 26.2218 26.1293 26.6411C26.3689 26.9331 26.6047 27.2251 26.8368 27.5171C26.9042 27.6069 26.9379 27.6818 26.9379 27.7417C26.9304 27.8315 26.878 27.8952 26.7807 27.9326C26.6833 27.9626 26.571 27.9663 26.4438 27.9438C26.1518 27.884 25.8822 27.7754 25.6352 27.6182C25.2309 27.3786 24.8565 27.0941 24.5121 26.7646C24.2426 26.5176 23.988 26.263 23.7484 26.001C23.3441 26.4727 22.8874 26.8882 22.3783 27.2476C21.8692 27.5994 21.3152 27.854 20.7162 28.0112C19.9376 28.2134 19.1552 28.2134 18.369 28.0112C17.5904 27.8166 17.0139 27.3224 16.6396 26.5288C16.3326 25.7726 16.1529 25.1175 16.1005 24.5635C16.0556 24.002 16.0481 23.5228 16.078 23.126C16.1304 22.6094 16.0818 22.2088 15.932 21.9243C15.3106 20.8687 15.0561 19.7531 15.1684 18.5776C15.2807 17.3947 15.6513 16.2791 16.2802 15.231C16.9091 14.1828 17.6877 13.3255 18.6161 12.6592C19.3873 12.1276 20.2445 11.7645 21.1879 11.5698C22.1313 11.3677 23.0596 11.3677 23.9731 11.5698C24.864 11.7944 25.5753 12.2474 26.1068 12.9287C26.6459 13.61 26.9978 14.3924 27.1625 15.2759ZM23.8046 23.0698C24.5233 21.7072 24.9875 20.3932 25.1972 19.1279C25.4143 17.8551 25.4068 16.7546 25.1747 15.8262C24.9501 14.8978 24.5346 14.2614 23.9281 13.917C23.0522 13.4678 22.2174 13.3218 21.4237 13.479C20.6376 13.6362 19.9226 13.9919 19.2787 14.5459C18.6423 15.0999 18.107 15.7513 17.6728 16.5C17.2535 17.2712 16.9952 18.0124 16.8979 18.7236C16.8005 19.4349 16.7706 20.0114 16.808 20.4531C17.5717 18.0573 18.6011 16.223 19.8964 14.9502C20.0536 14.7855 20.2258 14.647 20.413 14.5347C20.6077 14.4224 20.8248 14.4149 21.0644 14.5122C21.4312 14.6844 21.5997 14.9277 21.5697 15.2422C21.5398 15.5566 21.4125 15.8898 21.1879 16.2417C20.9633 16.5861 20.7424 16.8931 20.5253 17.1626C20.428 17.2899 20.3456 17.3947 20.2782 17.4771C19.5819 18.4878 19.0541 19.4049 18.6947 20.2285C18.3428 21.0521 18.1257 21.6548 18.0434 22.0366C18.0284 22.119 18.0621 22.1789 18.1444 22.2163C18.2343 22.2463 18.3391 22.2612 18.4589 22.2612C18.5787 22.2612 18.6872 22.2537 18.7846 22.2388C18.8819 22.2238 18.9755 22.2313 19.0653 22.2612C19.1627 22.2912 19.2151 22.3511 19.2226 22.4409C19.2151 22.5158 19.1776 22.6169 19.1103 22.7441C19.0429 22.8639 18.9493 22.9725 18.8295 23.0698C18.6124 23.242 18.3054 23.3431 17.9086 23.373C17.7589 23.388 17.6578 23.4404 17.6054 23.5303C17.553 23.6126 17.5193 23.7025 17.5043 23.7998C17.4968 23.8223 17.4893 23.8447 17.4818 23.8672C17.4294 24.0768 17.4182 24.395 17.4481 24.8218C17.4781 25.2485 17.5829 25.6566 17.7626 26.0459C17.9498 26.4352 18.2455 26.6823 18.6498 26.7871C19.2263 26.8919 19.8814 26.7609 20.6151 26.394C21.3564 26.0272 22.0564 25.4657 22.7152 24.7095C22.5355 24.4474 22.3184 24.0881 22.0639 23.6313C21.8093 23.1672 21.6596 22.7516 21.6147 22.3848C21.6221 22.0628 21.7382 21.8195 21.9628 21.6548C22.1874 21.4901 22.4345 21.4339 22.704 21.4863C22.9735 21.5312 23.1757 21.7072 23.3105 22.0142C23.4003 22.2463 23.565 22.5981 23.8046 23.0698Z" fill="black"/>
<path d="M117.163 144.276C117.44 145.938 117.342 147.585 116.871 149.217C116.406 150.849 115.688 152.354 114.714 153.732C114.879 154.016 115.01 154.222 115.107 154.35C115.437 154.791 115.777 155.222 116.129 155.641C116.369 155.933 116.605 156.225 116.837 156.517C116.904 156.607 116.938 156.682 116.938 156.742C116.93 156.832 116.878 156.895 116.781 156.933C116.683 156.963 116.571 156.966 116.444 156.944C116.152 156.884 115.882 156.775 115.635 156.618C115.231 156.379 114.857 156.094 114.512 155.765C114.243 155.518 113.988 155.263 113.748 155.001C113.344 155.473 112.887 155.888 112.378 156.248C111.869 156.599 111.315 156.854 110.716 157.011C109.938 157.213 109.155 157.213 108.369 157.011C107.59 156.817 107.014 156.322 106.64 155.529C106.333 154.773 106.153 154.118 106.1 153.563C106.056 153.002 106.048 152.523 106.078 152.126C106.13 151.609 106.082 151.209 105.932 150.924C105.311 149.869 105.056 148.753 105.168 147.578C105.281 146.395 105.651 145.279 106.28 144.231C106.909 143.183 107.688 142.326 108.616 141.659C109.387 141.128 110.245 140.764 111.188 140.57C112.131 140.368 113.06 140.368 113.973 140.57C114.864 140.794 115.575 141.247 116.107 141.929C116.646 142.61 116.998 143.392 117.163 144.276ZM113.805 152.07C114.523 150.707 114.988 149.393 115.197 148.128C115.414 146.855 115.407 145.755 115.175 144.826C114.95 143.898 114.535 143.261 113.928 142.917C113.052 142.468 112.217 142.322 111.424 142.479C110.638 142.636 109.923 142.992 109.279 143.546C108.642 144.1 108.107 144.751 107.673 145.5C107.253 146.271 106.995 147.012 106.898 147.724C106.801 148.435 106.771 149.011 106.808 149.453C107.572 147.057 108.601 145.223 109.896 143.95C110.054 143.785 110.226 143.647 110.413 143.535C110.608 143.422 110.825 143.415 111.064 143.512C111.431 143.684 111.6 143.928 111.57 144.242C111.54 144.557 111.413 144.89 111.188 145.242C110.963 145.586 110.742 145.893 110.525 146.163C110.428 146.29 110.346 146.395 110.278 146.477C109.582 147.488 109.054 148.405 108.695 149.229C108.343 150.052 108.126 150.655 108.043 151.037C108.028 151.119 108.062 151.179 108.144 151.216C108.234 151.246 108.339 151.261 108.459 151.261C108.579 151.261 108.687 151.254 108.785 151.239C108.882 151.224 108.975 151.231 109.065 151.261C109.163 151.291 109.215 151.351 109.223 151.441C109.215 151.516 109.178 151.617 109.11 151.744C109.043 151.864 108.949 151.972 108.829 152.07C108.612 152.242 108.305 152.343 107.909 152.373C107.759 152.388 107.658 152.44 107.605 152.53C107.553 152.613 107.519 152.702 107.504 152.8C107.497 152.822 107.489 152.845 107.482 152.867C107.429 153.077 107.418 153.395 107.448 153.822C107.478 154.249 107.583 154.657 107.763 155.046C107.95 155.435 108.246 155.682 108.65 155.787C109.226 155.892 109.881 155.761 110.615 155.394C111.356 155.027 112.056 154.466 112.715 153.709C112.536 153.447 112.318 153.088 112.064 152.631C111.809 152.167 111.66 151.752 111.615 151.385C111.622 151.063 111.738 150.819 111.963 150.655C112.187 150.49 112.434 150.434 112.704 150.486C112.974 150.531 113.176 150.707 113.31 151.014C113.4 151.246 113.565 151.598 113.805 152.07Z" fill="black"/>
<defs>
<filter id="filter0_d" x="0" y="0" width="133" height="177" filterUnits="userSpaceOnUse" color-interpolation-filters="sRGB">
<feFlood flood-opacity="0" result="BackgroundImageFix"/>
<feColorMatrix in="SourceAlpha" type="matrix" values="0 0 0 0 0 0 0 0 0 0 0 0 0 0 0 0 0 0 127 0"/>
<feOffset dx="-2" dy="2"/>
<feGaussianBlur stdDeviation="2"/>
<feColorMatrix type="matrix" values="0 0 0 0 0 0 0 0 0 0 0 0 0 0 0 0 0 0 0.247159 0"/>
<feBlend mode="normal" in2="BackgroundImageFix" result="effect1_dropShadow"/>
<feBlend mode="normal" in="SourceGraphic" in2="effect1_dropShadow" result="shape"/>
</filter>
</defs>
</svg>
