<svg width="133" height="177" viewBox="0 0 133 177" fill="none" xmlns="http://www.w3.org/2000/svg">
<g filter="url(#filter0_d)">
<rect x="6" y="2" width="125" height="169" rx="8" fill="#E4D8F1"/>
</g>
<path fill-rule="evenodd" clip-rule="evenodd" d="M69.6274 36C61.0051 57.7227 47.79 74.5346 30 85.5C47.5348 94.7611 61.0844 109.996 70.1048 135C78.1121 116.137 90.5239 99.6593 109 85.5C89.0014 72.9019 78.9227 54.927 69.6274 36Z" fill="#F2416F"/>
<path fill-rule="evenodd" clip-rule="evenodd" d="M22.521 32C21.1021 35.5107 18.9275 38.2278 16 40C18.8855 41.4968 21.1152 43.959 22.5995 48C23.9172 44.9514 25.9596 42.2884 29 40C25.7091 37.9639 24.0506 35.0589 22.521 32Z" fill="#F2416F"/>
<path d="M26.5761 15.9355C26.817 17.3809 26.7324 18.8132 26.3222 20.2324C25.9186 21.6517 25.2936 22.9603 24.4472 24.1582C24.5905 24.4056 24.7044 24.5846 24.789 24.6953C25.0755 25.0794 25.3717 25.4538 25.6777 25.8184C25.886 26.0723 26.0911 26.3262 26.2929 26.5801C26.3515 26.6582 26.3808 26.7233 26.3808 26.7754C26.3743 26.8535 26.3287 26.9089 26.2441 26.9414C26.1595 26.9674 26.0618 26.9707 25.9511 26.9512C25.6972 26.8991 25.4629 26.8047 25.248 26.668C24.8964 26.4596 24.5709 26.2122 24.2714 25.9258C24.0371 25.7109 23.8157 25.4896 23.6074 25.2617C23.2558 25.6719 22.8587 26.0332 22.416 26.3457C21.9733 26.6517 21.4915 26.873 20.9707 27.0098C20.2936 27.1855 19.6132 27.1855 18.9296 27.0098C18.2526 26.8405 17.7513 26.4108 17.4257 25.7207C17.1588 25.0632 17.0026 24.4935 16.957 24.0117C16.9179 23.5234 16.9114 23.1068 16.9375 22.7617C16.983 22.3125 16.9407 21.9642 16.8105 21.7168C16.2701 20.7988 16.0488 19.8288 16.1464 18.8066C16.2441 17.778 16.5664 16.8079 17.1132 15.8965C17.6601 14.985 18.3372 14.2396 19.1445 13.6602C19.8151 13.1979 20.5605 12.8822 21.3808 12.7129C22.2011 12.5371 23.0084 12.5371 23.8027 12.7129C24.5774 12.9082 25.1959 13.3021 25.6582 13.8945C26.1269 14.487 26.4329 15.1673 26.5761 15.9355ZM23.6562 22.7129C24.2812 21.528 24.6849 20.3854 24.8671 19.2852C25.0559 18.1784 25.0494 17.2214 24.8476 16.4141C24.6523 15.6068 24.291 15.0534 23.7636 14.7539C23.0019 14.3633 22.276 14.2363 21.5859 14.373C20.9023 14.5098 20.2806 14.819 19.7207 15.3008C19.1673 15.7826 18.7018 16.349 18.3242 17C17.9596 17.6706 17.735 18.3151 17.6504 18.9336C17.5657 19.5521 17.5397 20.0534 17.5722 20.4375C18.2363 18.3542 19.1315 16.7591 20.2578 15.6523C20.3945 15.5091 20.5442 15.3887 20.707 15.291C20.8763 15.1934 21.0651 15.1868 21.2734 15.2715C21.5924 15.4212 21.7389 15.6328 21.7129 15.9062C21.6868 16.1797 21.5761 16.4694 21.3808 16.7754C21.1855 17.0749 20.9934 17.3418 20.8046 17.5762C20.72 17.6868 20.6484 17.778 20.5898 17.8496C19.9843 18.7285 19.5254 19.526 19.2129 20.2422C18.9069 20.9583 18.7181 21.4824 18.6464 21.8145C18.6334 21.8861 18.6627 21.9382 18.7343 21.9707C18.8125 21.9967 18.9036 22.0098 19.0078 22.0098C19.1119 22.0098 19.2063 22.0033 19.291 21.9902C19.3756 21.9772 19.457 21.9837 19.5351 22.0098C19.6198 22.0358 19.6653 22.0879 19.6718 22.166C19.6653 22.2311 19.6328 22.319 19.5742 22.4297C19.5156 22.5339 19.4342 22.6283 19.33 22.7129C19.1412 22.8626 18.8743 22.9505 18.5293 22.9766C18.399 22.9896 18.3112 23.0352 18.2656 23.1133C18.22 23.1849 18.1907 23.263 18.1777 23.3477C18.1712 23.3672 18.1647 23.3867 18.1582 23.4062C18.1126 23.5885 18.1028 23.8652 18.1289 24.2363C18.1549 24.6074 18.2461 24.9622 18.4023 25.3008C18.5651 25.6393 18.8222 25.8542 19.1738 25.9453C19.6751 26.0365 20.2448 25.9225 20.8828 25.6035C21.5273 25.2845 22.136 24.7962 22.7089 24.1387C22.5527 23.9108 22.3639 23.5983 22.1425 23.2012C21.9212 22.7975 21.791 22.4362 21.7519 22.1172C21.7584 21.8372 21.8593 21.6257 22.0546 21.4824C22.25 21.3392 22.4648 21.2904 22.6992 21.3359C22.9336 21.375 23.1093 21.528 23.2265 21.7949C23.3046 21.9967 23.4479 22.3027 23.6562 22.7129Z" fill="#F2416F"/>
<path d="M119.576 146.936C119.817 148.381 119.732 149.813 119.322 151.232C118.919 152.652 118.294 153.96 117.447 155.158C117.59 155.406 117.704 155.585 117.789 155.695C118.075 156.079 118.372 156.454 118.678 156.818C118.886 157.072 119.091 157.326 119.293 157.58C119.352 157.658 119.381 157.723 119.381 157.775C119.374 157.854 119.329 157.909 119.244 157.941C119.159 157.967 119.062 157.971 118.951 157.951C118.697 157.899 118.463 157.805 118.248 157.668C117.896 157.46 117.571 157.212 117.271 156.926C117.037 156.711 116.816 156.49 116.607 156.262C116.256 156.672 115.859 157.033 115.416 157.346C114.973 157.652 114.491 157.873 113.971 158.01C113.294 158.186 112.613 158.186 111.93 158.01C111.253 157.84 110.751 157.411 110.426 156.721C110.159 156.063 110.003 155.493 109.957 155.012C109.918 154.523 109.911 154.107 109.937 153.762C109.983 153.312 109.941 152.964 109.811 152.717C109.27 151.799 109.049 150.829 109.146 149.807C109.244 148.778 109.566 147.808 110.113 146.896C110.66 145.985 111.337 145.24 112.144 144.66C112.815 144.198 113.561 143.882 114.381 143.713C115.201 143.537 116.008 143.537 116.803 143.713C117.577 143.908 118.196 144.302 118.658 144.895C119.127 145.487 119.433 146.167 119.576 146.936ZM116.656 153.713C117.281 152.528 117.685 151.385 117.867 150.285C118.056 149.178 118.049 148.221 117.848 147.414C117.652 146.607 117.291 146.053 116.764 145.754C116.002 145.363 115.276 145.236 114.586 145.373C113.902 145.51 113.281 145.819 112.721 146.301C112.167 146.783 111.702 147.349 111.324 148C110.96 148.671 110.735 149.315 110.65 149.934C110.566 150.552 110.54 151.053 110.572 151.438C111.236 149.354 112.131 147.759 113.258 146.652C113.394 146.509 113.544 146.389 113.707 146.291C113.876 146.193 114.065 146.187 114.273 146.271C114.592 146.421 114.739 146.633 114.713 146.906C114.687 147.18 114.576 147.469 114.381 147.775C114.186 148.075 113.993 148.342 113.805 148.576C113.72 148.687 113.648 148.778 113.59 148.85C112.984 149.729 112.525 150.526 112.213 151.242C111.907 151.958 111.718 152.482 111.646 152.814C111.633 152.886 111.663 152.938 111.734 152.971C111.812 152.997 111.904 153.01 112.008 153.01C112.112 153.01 112.206 153.003 112.291 152.99C112.376 152.977 112.457 152.984 112.535 153.01C112.62 153.036 112.665 153.088 112.672 153.166C112.665 153.231 112.633 153.319 112.574 153.43C112.516 153.534 112.434 153.628 112.33 153.713C112.141 153.863 111.874 153.951 111.529 153.977C111.399 153.99 111.311 154.035 111.266 154.113C111.22 154.185 111.191 154.263 111.178 154.348C111.171 154.367 111.165 154.387 111.158 154.406C111.113 154.589 111.103 154.865 111.129 155.236C111.155 155.607 111.246 155.962 111.402 156.301C111.565 156.639 111.822 156.854 112.174 156.945C112.675 157.036 113.245 156.923 113.883 156.604C114.527 156.285 115.136 155.796 115.709 155.139C115.553 154.911 115.364 154.598 115.143 154.201C114.921 153.798 114.791 153.436 114.752 153.117C114.758 152.837 114.859 152.626 115.055 152.482C115.25 152.339 115.465 152.29 115.699 152.336C115.934 152.375 116.109 152.528 116.227 152.795C116.305 152.997 116.448 153.303 116.656 153.713Z" fill="#F2416F"/>
<defs>
<filter id="filter0_d" x="0" y="0" width="133" height="177" filterUnits="userSpaceOnUse" color-interpolation-filters="sRGB">
<feFlood flood-opacity="0" result="BackgroundImageFix"/>
<feColorMatrix in="SourceAlpha" type="matrix" values="0 0 0 0 0 0 0 0 0 0 0 0 0 0 0 0 0 0 127 0"/>
<feOffset dx="-2" dy="2"/>
<feGaussianBlur stdDeviation="2"/>
<feColorMatrix type="matrix" values="0 0 0 0 0 0 0 0 0 0 0 0 0 0 0 0 0 0 0.247159 0"/>
<feBlend mode="normal" in2="BackgroundImageFix" result="effect1_dropShadow"/>
<feBlend mode="normal" in="SourceGraphic" in2="effect1_dropShadow" result="shape"/>
</filter>
</defs>
</svg>
