<svg width="133" height="177" viewBox="0 0 133 177" fill="none" xmlns="http://www.w3.org/2000/svg">
<g filter="url(#filter0_d)">
<rect x="6" y="2" width="125" height="169" rx="8" fill="#E4D8F1"/>
</g>
<path fill-rule="evenodd" clip-rule="evenodd" d="M73.6411 50.002C122.854 51.8913 123.896 77.9654 75.7414 128.284C74.4913 129.59 71.6977 131 71.6977 131C71.6977 131 68.3156 129.446 66.9496 127.904C60.7609 120.919 54.9875 113.443 50.3883 107.396C39.4665 93.0352 33.4913 82.2786 32.2329 73.2005C30.2901 59.1852 40.4503 51.4588 64.5247 50.002C66.2783 49.8959 71.6977 55.5431 71.6977 55.5431L73.6411 58.5526C73.6411 58.5526 75.0332 63.2401 75.0332 56.8261C75.0332 52.0542 73.608 51.4695 73.6411 50.002Z" fill="#F2416F"/>
<path fill-rule="evenodd" clip-rule="evenodd" d="M22.3082 33.0003C29.7634 33.3035 29.9213 37.4882 22.6264 45.564C22.437 45.7737 22.0138 46 22.0138 46C22.0138 46 21.5014 45.7505 21.2945 45.5031C20.357 44.382 19.4824 43.1821 18.7856 42.2116C17.1311 39.9068 16.2259 38.1805 16.0353 36.7235C15.741 34.4741 17.2801 33.2341 20.9272 33.0003C21.1928 32.9833 22.0138 33.8896 22.0138 33.8896L22.3082 34.3726C22.3082 34.3726 22.5191 35.1249 22.5191 34.0955C22.5191 33.3297 22.3032 33.2358 22.3082 33.0003Z" fill="#F2416F"/>
<path d="M26.5761 17.9355C26.817 19.3809 26.7324 20.8132 26.3222 22.2324C25.9186 23.6517 25.2936 24.9603 24.4472 26.1582C24.5905 26.4056 24.7044 26.5846 24.789 26.6953C25.0755 27.0794 25.3717 27.4538 25.6777 27.8184C25.886 28.0723 26.0911 28.3262 26.2929 28.5801C26.3515 28.6582 26.3808 28.7233 26.3808 28.7754C26.3743 28.8535 26.3287 28.9089 26.2441 28.9414C26.1595 28.9674 26.0618 28.9707 25.9511 28.9512C25.6972 28.8991 25.4629 28.8047 25.248 28.668C24.8964 28.4596 24.5709 28.2122 24.2714 27.9258C24.0371 27.7109 23.8157 27.4896 23.6074 27.2617C23.2558 27.6719 22.8587 28.0332 22.416 28.3457C21.9733 28.6517 21.4915 28.873 20.9707 29.0098C20.2936 29.1855 19.6132 29.1855 18.9296 29.0098C18.2526 28.8405 17.7513 28.4108 17.4257 27.7207C17.1588 27.0632 17.0026 26.4935 16.957 26.0117C16.9179 25.5234 16.9114 25.1068 16.9375 24.7617C16.983 24.3125 16.9407 23.9642 16.8105 23.7168C16.2701 22.7988 16.0488 21.8288 16.1464 20.8066C16.2441 19.778 16.5664 18.8079 17.1132 17.8965C17.6601 16.985 18.3372 16.2396 19.1445 15.6602C19.8151 15.1979 20.5605 14.8822 21.3808 14.7129C22.2011 14.5371 23.0084 14.5371 23.8027 14.7129C24.5774 14.9082 25.1959 15.3021 25.6582 15.8945C26.1269 16.487 26.4329 17.1673 26.5761 17.9355ZM23.6562 24.7129C24.2812 23.528 24.6849 22.3854 24.8671 21.2852C25.0559 20.1784 25.0494 19.2214 24.8476 18.4141C24.6523 17.6068 24.291 17.0534 23.7636 16.7539C23.0019 16.3633 22.276 16.2363 21.5859 16.373C20.9023 16.5098 20.2806 16.819 19.7207 17.3008C19.1673 17.7826 18.7018 18.349 18.3242 19C17.9596 19.6706 17.735 20.3151 17.6504 20.9336C17.5657 21.5521 17.5397 22.0534 17.5722 22.4375C18.2363 20.3542 19.1315 18.7591 20.2578 17.6523C20.3945 17.5091 20.5442 17.3887 20.707 17.291C20.8763 17.1934 21.0651 17.1868 21.2734 17.2715C21.5924 17.4212 21.7389 17.6328 21.7129 17.9062C21.6868 18.1797 21.5761 18.4694 21.3808 18.7754C21.1855 19.0749 20.9934 19.3418 20.8046 19.5762C20.72 19.6868 20.6484 19.778 20.5898 19.8496C19.9843 20.7285 19.5254 21.526 19.2129 22.2422C18.9069 22.9583 18.7181 23.4824 18.6464 23.8145C18.6334 23.8861 18.6627 23.9382 18.7343 23.9707C18.8125 23.9967 18.9036 24.0098 19.0078 24.0098C19.1119 24.0098 19.2063 24.0033 19.291 23.9902C19.3756 23.9772 19.457 23.9837 19.5351 24.0098C19.6198 24.0358 19.6653 24.0879 19.6718 24.166C19.6653 24.2311 19.6328 24.319 19.5742 24.4297C19.5156 24.5339 19.4342 24.6283 19.33 24.7129C19.1412 24.8626 18.8743 24.9505 18.5293 24.9766C18.399 24.9896 18.3112 25.0352 18.2656 25.1133C18.22 25.1849 18.1907 25.263 18.1777 25.3477C18.1712 25.3672 18.1647 25.3867 18.1582 25.4062C18.1126 25.5885 18.1028 25.8652 18.1289 26.2363C18.1549 26.6074 18.2461 26.9622 18.4023 27.3008C18.5651 27.6393 18.8222 27.8542 19.1738 27.9453C19.6751 28.0365 20.2448 27.9225 20.8828 27.6035C21.5273 27.2845 22.136 26.7962 22.7089 26.1387C22.5527 25.9108 22.3639 25.5983 22.1425 25.2012C21.9212 24.7975 21.791 24.4362 21.7519 24.1172C21.7584 23.8372 21.8593 23.6257 22.0546 23.4824C22.25 23.3392 22.4648 23.2904 22.6992 23.3359C22.9336 23.375 23.1093 23.528 23.2265 23.7949C23.3046 23.9967 23.4479 24.3027 23.6562 24.7129Z" fill="#F2416F"/>
<path d="M119.576 144.936C119.817 146.381 119.732 147.813 119.322 149.232C118.919 150.652 118.294 151.96 117.447 153.158C117.59 153.406 117.704 153.585 117.789 153.695C118.075 154.079 118.372 154.454 118.678 154.818C118.886 155.072 119.091 155.326 119.293 155.58C119.352 155.658 119.381 155.723 119.381 155.775C119.374 155.854 119.329 155.909 119.244 155.941C119.159 155.967 119.062 155.971 118.951 155.951C118.697 155.899 118.463 155.805 118.248 155.668C117.896 155.46 117.571 155.212 117.271 154.926C117.037 154.711 116.816 154.49 116.607 154.262C116.256 154.672 115.859 155.033 115.416 155.346C114.973 155.652 114.491 155.873 113.971 156.01C113.294 156.186 112.613 156.186 111.93 156.01C111.253 155.84 110.751 155.411 110.426 154.721C110.159 154.063 110.003 153.493 109.957 153.012C109.918 152.523 109.911 152.107 109.937 151.762C109.983 151.312 109.941 150.964 109.811 150.717C109.27 149.799 109.049 148.829 109.146 147.807C109.244 146.778 109.566 145.808 110.113 144.896C110.66 143.985 111.337 143.24 112.144 142.66C112.815 142.198 113.561 141.882 114.381 141.713C115.201 141.537 116.008 141.537 116.803 141.713C117.577 141.908 118.196 142.302 118.658 142.895C119.127 143.487 119.433 144.167 119.576 144.936ZM116.656 151.713C117.281 150.528 117.685 149.385 117.867 148.285C118.056 147.178 118.049 146.221 117.848 145.414C117.652 144.607 117.291 144.053 116.764 143.754C116.002 143.363 115.276 143.236 114.586 143.373C113.902 143.51 113.281 143.819 112.721 144.301C112.167 144.783 111.702 145.349 111.324 146C110.96 146.671 110.735 147.315 110.65 147.934C110.566 148.552 110.54 149.053 110.572 149.438C111.236 147.354 112.131 145.759 113.258 144.652C113.394 144.509 113.544 144.389 113.707 144.291C113.876 144.193 114.065 144.187 114.273 144.271C114.592 144.421 114.739 144.633 114.713 144.906C114.687 145.18 114.576 145.469 114.381 145.775C114.186 146.075 113.993 146.342 113.805 146.576C113.72 146.687 113.648 146.778 113.59 146.85C112.984 147.729 112.525 148.526 112.213 149.242C111.907 149.958 111.718 150.482 111.646 150.814C111.633 150.886 111.663 150.938 111.734 150.971C111.812 150.997 111.904 151.01 112.008 151.01C112.112 151.01 112.206 151.003 112.291 150.99C112.376 150.977 112.457 150.984 112.535 151.01C112.62 151.036 112.665 151.088 112.672 151.166C112.665 151.231 112.633 151.319 112.574 151.43C112.516 151.534 112.434 151.628 112.33 151.713C112.141 151.863 111.874 151.951 111.529 151.977C111.399 151.99 111.311 152.035 111.266 152.113C111.22 152.185 111.191 152.263 111.178 152.348C111.171 152.367 111.165 152.387 111.158 152.406C111.113 152.589 111.103 152.865 111.129 153.236C111.155 153.607 111.246 153.962 111.402 154.301C111.565 154.639 111.822 154.854 112.174 154.945C112.675 155.036 113.245 154.923 113.883 154.604C114.527 154.285 115.136 153.796 115.709 153.139C115.553 152.911 115.364 152.598 115.143 152.201C114.921 151.798 114.791 151.436 114.752 151.117C114.758 150.837 114.859 150.626 115.055 150.482C115.25 150.339 115.465 150.29 115.699 150.336C115.934 150.375 116.109 150.528 116.227 150.795C116.305 150.997 116.448 151.303 116.656 151.713Z" fill="#F2416F"/>
<defs>
<filter id="filter0_d" x="0" y="0" width="133" height="177" filterUnits="userSpaceOnUse" color-interpolation-filters="sRGB">
<feFlood flood-opacity="0" result="BackgroundImageFix"/>
<feColorMatrix in="SourceAlpha" type="matrix" values="0 0 0 0 0 0 0 0 0 0 0 0 0 0 0 0 0 0 127 0"/>
<feOffset dx="-2" dy="2"/>
<feGaussianBlur stdDeviation="2"/>
<feColorMatrix type="matrix" values="0 0 0 0 0 0 0 0 0 0 0 0 0 0 0 0 0 0 0.247159 0"/>
<feBlend mode="normal" in2="BackgroundImageFix" result="effect1_dropShadow"/>
<feBlend mode="normal" in="SourceGraphic" in2="effect1_dropShadow" result="shape"/>
</filter>
</defs>
</svg>
