<svg width="133" height="177" viewBox="0 0 133 177" fill="none" xmlns="http://www.w3.org/2000/svg">
<g filter="url(#filter0_d)">
<rect x="6" y="2" width="125" height="169" rx="8" fill="#E4D8F1"/>
</g>
<path fill-rule="evenodd" clip-rule="evenodd" d="M21.898 42.8938C10.1094 42.5703 21.8831 33 21.8831 33C21.8831 33 33.8711 42.2635 22.3648 42.8775C22.3636 43.4519 23.1583 43.91 23.1583 43.91C22.6455 44.858 22.0269 45.1108 20.7505 44.959C21.3955 44.521 22.0007 43.5701 21.898 42.8938Z" fill="#393A36" stroke="#393A36"/>
<path fill-rule="evenodd" clip-rule="evenodd" d="M67.5715 112.539C-9.52288 110.396 67.4743 47 67.4743 47C67.4743 47 145.873 108.364 70.6241 112.431C70.6166 116.236 75.8138 119.271 75.8138 119.271C72.4598 125.551 68.4144 127.225 60.0669 126.22C64.2851 123.318 68.2432 117.019 67.5715 112.539Z" fill="#393A36" stroke="#393A36"/>
<path d="M28.2202 15.1694C28.5213 16.9761 28.4155 18.7664 27.9028 20.5405C27.3982 22.3146 26.617 23.9504 25.559 25.4478C25.7381 25.757 25.8805 25.9808 25.9863 26.1191C26.3444 26.5993 26.7146 27.0672 27.0971 27.5229C27.3575 27.8403 27.6139 28.1577 27.8662 28.4751C27.9394 28.5728 27.976 28.6541 27.976 28.7192C27.9679 28.8169 27.9109 28.8861 27.8051 28.9268C27.6993 28.9593 27.5773 28.9634 27.4389 28.939C27.1215 28.8739 26.8286 28.7559 26.56 28.585C26.1206 28.3245 25.7137 28.0153 25.3393 27.6572C25.0463 27.3887 24.7696 27.112 24.5092 26.8271C24.0698 27.3398 23.5734 27.7915 23.02 28.1821C22.4666 28.5646 21.8644 28.8413 21.2133 29.0122C20.367 29.2319 19.5166 29.2319 18.6621 29.0122C17.8157 28.8006 17.1891 28.2635 16.7822 27.4009C16.4485 26.5789 16.2532 25.8669 16.1962 25.2646C16.1474 24.6543 16.1393 24.1335 16.1718 23.7021C16.2288 23.1406 16.1759 22.7052 16.0131 22.396C15.3377 21.2485 15.061 20.036 15.1831 18.7583C15.3051 17.4725 15.708 16.2599 16.3916 15.1206C17.0751 13.9813 17.9215 13.0495 18.9306 12.3252C19.7688 11.7474 20.7006 11.3527 21.726 11.1411C22.7514 10.9214 23.7605 10.9214 24.7534 11.1411C25.7218 11.3853 26.4949 11.8776 27.0727 12.6182C27.6586 13.3587 28.0411 14.2091 28.2202 15.1694ZM24.5703 23.6411C25.3515 22.16 25.8561 20.7318 26.0839 19.3564C26.3199 17.973 26.3118 16.7767 26.0595 15.7676C25.8154 14.7585 25.3637 14.0667 24.7045 13.6924C23.7524 13.2041 22.845 13.0454 21.9824 13.2163C21.1279 13.3872 20.3507 13.7738 19.6508 14.376C18.9591 14.9782 18.3772 15.6862 17.9052 16.5C17.4495 17.3382 17.1687 18.1439 17.0629 18.917C16.9571 19.6901 16.9246 20.3167 16.9653 20.7969C17.7954 18.1927 18.9143 16.1989 20.3222 14.8154C20.4931 14.6364 20.6803 14.4858 20.8837 14.3638C21.0953 14.2417 21.3313 14.2336 21.5917 14.3394C21.9905 14.5265 22.1736 14.791 22.1411 15.1328C22.1085 15.4746 21.9702 15.8368 21.726 16.2192C21.4819 16.5936 21.2418 16.9272 21.0058 17.2202C20.9 17.3586 20.8105 17.4725 20.7373 17.562C19.9804 18.6606 19.4067 19.6576 19.0161 20.5527C18.6336 21.4479 18.3976 22.103 18.3081 22.5181C18.2918 22.6076 18.3284 22.6727 18.4179 22.7134C18.5156 22.7459 18.6295 22.7622 18.7597 22.7622C18.8899 22.7622 19.0079 22.7541 19.1137 22.7378C19.2195 22.7215 19.3212 22.7297 19.4189 22.7622C19.5247 22.7948 19.5817 22.8599 19.5898 22.9575C19.5817 23.0389 19.541 23.1488 19.4677 23.2871C19.3945 23.4173 19.2928 23.5353 19.1625 23.6411C18.9265 23.8283 18.5929 23.9382 18.1616 23.9707C17.9988 23.987 17.8889 24.0439 17.832 24.1416C17.775 24.2311 17.7384 24.3288 17.7221 24.4346C17.714 24.459 17.7058 24.4834 17.6977 24.5078C17.6407 24.7357 17.6285 25.0815 17.6611 25.5454C17.6936 26.0093 17.8076 26.4528 18.0029 26.876C18.2063 27.2992 18.5278 27.5677 18.9672 27.6816C19.5939 27.7956 20.3059 27.6532 21.1035 27.2544C21.9091 26.8556 22.67 26.2453 23.3862 25.4233C23.1909 25.1385 22.9549 24.7479 22.6782 24.2515C22.4015 23.7469 22.2387 23.2952 22.1899 22.8965C22.198 22.5465 22.3242 22.2821 22.5683 22.103C22.8125 21.924 23.081 21.863 23.374 21.9199C23.6669 21.9688 23.8867 22.16 24.0332 22.4937C24.1308 22.7459 24.3098 23.1284 24.5703 23.6411Z" fill="black"/>
<path d="M120.22 143.169C120.521 144.976 120.415 146.766 119.903 148.541C119.398 150.315 118.617 151.95 117.559 153.448C117.738 153.757 117.88 153.981 117.986 154.119C118.344 154.599 118.715 155.067 119.097 155.523C119.358 155.84 119.614 156.158 119.866 156.475C119.939 156.573 119.976 156.654 119.976 156.719C119.968 156.817 119.911 156.886 119.805 156.927C119.699 156.959 119.577 156.963 119.439 156.939C119.122 156.874 118.829 156.756 118.56 156.585C118.121 156.325 117.714 156.015 117.339 155.657C117.046 155.389 116.77 155.112 116.509 154.827C116.07 155.34 115.573 155.792 115.02 156.182C114.467 156.565 113.864 156.841 113.213 157.012C112.367 157.232 111.517 157.232 110.662 157.012C109.816 156.801 109.189 156.264 108.782 155.401C108.449 154.579 108.253 153.867 108.196 153.265C108.147 152.654 108.139 152.133 108.172 151.702C108.229 151.141 108.176 150.705 108.013 150.396C107.338 149.249 107.061 148.036 107.183 146.758C107.305 145.472 107.708 144.26 108.392 143.121C109.075 141.981 109.921 141.049 110.931 140.325C111.769 139.747 112.701 139.353 113.726 139.141C114.751 138.921 115.761 138.921 116.753 139.141C117.722 139.385 118.495 139.878 119.073 140.618C119.659 141.359 120.041 142.209 120.22 143.169ZM116.57 151.641C117.352 150.16 117.856 148.732 118.084 147.356C118.32 145.973 118.312 144.777 118.06 143.768C117.815 142.758 117.364 142.067 116.705 141.692C115.752 141.204 114.845 141.045 113.982 141.216C113.128 141.387 112.351 141.774 111.651 142.376C110.959 142.978 110.377 143.686 109.905 144.5C109.449 145.338 109.169 146.144 109.063 146.917C108.957 147.69 108.925 148.317 108.965 148.797C109.795 146.193 110.914 144.199 112.322 142.815C112.493 142.636 112.68 142.486 112.884 142.364C113.095 142.242 113.331 142.234 113.592 142.339C113.991 142.527 114.174 142.791 114.141 143.133C114.109 143.475 113.97 143.837 113.726 144.219C113.482 144.594 113.242 144.927 113.006 145.22C112.9 145.359 112.81 145.472 112.737 145.562C111.98 146.661 111.407 147.658 111.016 148.553C110.634 149.448 110.398 150.103 110.308 150.518C110.292 150.608 110.328 150.673 110.418 150.713C110.516 150.746 110.63 150.762 110.76 150.762C110.89 150.762 111.008 150.754 111.114 150.738C111.22 150.722 111.321 150.73 111.419 150.762C111.525 150.795 111.582 150.86 111.59 150.958C111.582 151.039 111.541 151.149 111.468 151.287C111.394 151.417 111.293 151.535 111.163 151.641C110.927 151.828 110.593 151.938 110.162 151.971C109.999 151.987 109.889 152.044 109.832 152.142C109.775 152.231 109.738 152.329 109.722 152.435C109.714 152.459 109.706 152.483 109.698 152.508C109.641 152.736 109.629 153.082 109.661 153.545C109.694 154.009 109.808 154.453 110.003 154.876C110.206 155.299 110.528 155.568 110.967 155.682C111.594 155.796 112.306 155.653 113.103 155.254C113.909 154.856 114.67 154.245 115.386 153.423C115.191 153.139 114.955 152.748 114.678 152.251C114.401 151.747 114.239 151.295 114.19 150.896C114.198 150.547 114.324 150.282 114.568 150.103C114.812 149.924 115.081 149.863 115.374 149.92C115.667 149.969 115.887 150.16 116.033 150.494C116.131 150.746 116.31 151.128 116.57 151.641Z" fill="black"/>
<defs>
<filter id="filter0_d" x="0" y="0" width="133" height="177" filterUnits="userSpaceOnUse" color-interpolation-filters="sRGB">
<feFlood flood-opacity="0" result="BackgroundImageFix"/>
<feColorMatrix in="SourceAlpha" type="matrix" values="0 0 0 0 0 0 0 0 0 0 0 0 0 0 0 0 0 0 127 0"/>
<feOffset dx="-2" dy="2"/>
<feGaussianBlur stdDeviation="2"/>
<feColorMatrix type="matrix" values="0 0 0 0 0 0 0 0 0 0 0 0 0 0 0 0 0 0 0.247159 0"/>
<feBlend mode="normal" in2="BackgroundImageFix" result="effect1_dropShadow"/>
<feBlend mode="normal" in="SourceGraphic" in2="effect1_dropShadow" result="shape"/>
</filter>
</defs>
</svg>
